<svg width="40" height="40" viewBox="0 0 40 40" fill="none" xmlns="http://www.w3.org/2000/svg">
<path d="M40 0H0V40H40V0Z" fill="#7D3DAF"/>
<path d="M32.6505 12.8938L32.6426 12.8622C32.0036 10.2791 29.123 7.50726 26.4775 6.9306L26.4477 6.92446C22.1689 6.10819 17.8303 6.10819 13.5524 6.92446L13.5217 6.9306C10.8771 7.50726 7.99647 10.2791 7.35662 12.8622L7.3496 12.8938C6.55966 16.5012 6.55966 20.1595 7.3496 23.7669L7.35662 23.7984C7.96917 26.2713 10.6353 28.9158 13.182 29.643V32.5265C13.182 33.5701 14.4538 34.0827 15.177 33.3296L18.0985 30.2928C18.7321 30.3283 19.3661 30.348 20 30.348C22.1539 30.348 24.3087 30.1444 26.4477 29.7363L26.4775 29.7301C29.123 29.1535 32.0036 26.3816 32.6426 23.7985L32.6505 23.7669C33.4404 20.1595 33.4404 16.5012 32.6505 12.8938ZM30.3386 23.2437C29.912 24.9289 27.7248 27.024 25.9869 27.4111C23.7118 27.8437 21.4187 28.0287 19.1279 27.9652C19.0823 27.964 19.0385 27.9816 19.0067 28.0143C18.6816 28.348 16.8736 30.204 16.8736 30.204L14.6048 32.5326C14.4389 32.7055 14.1475 32.5878 14.1475 32.3491V27.5724C14.1475 27.4935 14.0911 27.4265 14.0136 27.4113C14.0132 27.4112 14.0127 27.4111 14.0123 27.411C12.2744 27.0239 10.0881 24.9289 9.66061 23.2436C8.94966 19.983 8.94966 16.6775 9.66061 13.4168C10.0881 11.7316 12.2744 9.6365 14.0123 9.24943C17.9857 8.49372 22.0144 8.49372 25.9869 9.24943C27.7257 9.6365 29.912 11.7316 30.3386 13.4168C31.0503 16.6776 31.0503 19.983 30.3386 23.2437Z" fill="white"/>
<path d="M23.7804 25.4487C23.5133 25.3676 23.2586 25.3131 23.0222 25.215C20.572 24.1984 18.3169 22.8869 16.5307 20.8765C15.5149 19.7333 14.7199 18.4426 14.0478 17.0767C13.7292 16.429 13.4606 15.7559 13.1868 15.0871C12.9372 14.4773 13.3049 13.8473 13.692 13.3878C14.0553 12.9566 14.5228 12.6266 15.029 12.3833C15.4242 12.1935 15.814 12.303 16.1026 12.6379C16.7264 13.362 17.2995 14.1231 17.7635 14.9625C18.0489 15.4788 17.9706 16.1098 17.4535 16.4612C17.3278 16.5466 17.2132 16.6468 17.0961 16.7433C16.9934 16.8278 16.8968 16.9132 16.8264 17.0277C16.6977 17.2371 16.6916 17.4841 16.7745 17.7118C17.4122 19.4644 18.4871 20.8272 20.2512 21.5612C20.5334 21.6787 20.8169 21.8154 21.1421 21.7775C21.6867 21.7139 21.8631 21.1165 22.2447 20.8044C22.6177 20.4994 23.0944 20.4953 23.4962 20.7496C23.8981 21.004 24.2878 21.277 24.675 21.553C25.0551 21.8238 25.4336 22.0888 25.7842 22.3976C26.1214 22.6945 26.2375 23.084 26.0476 23.487C25.7001 24.225 25.1943 24.8389 24.4648 25.2308C24.2588 25.3413 24.0128 25.3772 23.7804 25.4487C23.5133 25.3675 24.0128 25.3772 23.7804 25.4487Z" fill="white"/>
<path d="M20.0067 11.5394C23.2117 11.6292 25.844 13.7562 26.4081 16.9247C26.5042 17.4646 26.5385 18.0166 26.5812 18.5645C26.5992 18.795 26.4687 19.014 26.22 19.017C25.963 19.0201 25.8475 18.8051 25.8308 18.5747C25.7978 18.1187 25.7749 17.6606 25.712 17.2083C25.3802 14.8208 23.4765 12.8456 21.1001 12.4218C20.7425 12.358 20.3765 12.3412 20.0143 12.3032C19.7853 12.2792 19.4854 12.2653 19.4346 11.9806C19.3921 11.742 19.5935 11.552 19.8207 11.5398C19.8825 11.5363 19.9447 11.5392 20.0067 11.5394C23.2117 11.6292 19.9447 11.5392 20.0067 11.5394Z" fill="white"/>
<path d="M24.8773 17.8535C24.8721 17.8936 24.8692 17.9877 24.8458 18.0763C24.7608 18.3981 24.2729 18.4384 24.1606 18.1136C24.1273 18.0172 24.1223 17.9076 24.1221 17.8039C24.121 17.125 23.9735 16.4469 23.6311 15.8563C23.2793 15.2493 22.7417 14.739 22.1111 14.4302C21.7298 14.2435 21.3175 14.1275 20.8996 14.0583C20.717 14.0281 20.5324 14.0098 20.3489 13.9842C20.1264 13.9534 20.0077 13.8116 20.0182 13.5924C20.0281 13.3871 20.1781 13.2393 20.402 13.252C21.1375 13.2938 21.8479 13.4527 22.5018 13.799C23.8315 14.5032 24.5911 15.6147 24.8128 17.0989C24.8228 17.1661 24.839 17.2327 24.8441 17.3002C24.8566 17.4669 24.8645 17.6338 24.8773 17.8535C24.8721 17.8936 24.8645 17.6338 24.8773 17.8535Z" fill="white"/>
<path d="M22.8838 17.776C22.6157 17.7809 22.4722 17.6324 22.4445 17.3866C22.4253 17.2152 22.4101 17.0415 22.3692 16.8747C22.2887 16.5463 22.1141 16.2419 21.8378 16.0406C21.7074 15.9456 21.5596 15.8763 21.4047 15.8316C21.208 15.7749 21.0038 15.7905 20.8075 15.7424C20.5944 15.6902 20.4765 15.5176 20.5101 15.3177C20.5405 15.1357 20.7176 14.9937 20.9164 15.0081C22.1589 15.0978 23.047 15.7402 23.1737 17.203C23.1827 17.3062 23.1932 17.4153 23.1703 17.514C23.1311 17.6831 23.0059 17.7678 22.8838 17.776C22.6157 17.7809 23.0059 17.7678 22.8838 17.776Z" fill="white"/>
</svg>
