<svg width="121" height="24" viewBox="0 0 121 24" fill="none" xmlns="http://www.w3.org/2000/svg">
<path d="M109.028 3.82547e-07C105.938 0.000828054 103.121 1.17447 100.998 3.10211C98.874 1.17695 96.0591 0.00248361 92.9724 0.00248361C92.9468 0.00248361 92.9204 0.00248361 92.8956 0.00248361C86.3225 0.0455225 81 5.40387 81 11.9996C81 18.6218 86.3638 23.9959 92.9716 23.9959C96.0582 23.9959 98.8731 22.823 100.997 20.8962C100.553 20.4948 100.152 20.0503 99.7726 19.5852H102.245C101.872 20.0429 101.466 20.4716 101.029 20.8706H101.027C101.017 20.8813 101.007 20.888 100.997 20.8971C103.122 22.8255 105.94 24.0008 109.032 24C115.644 23.9975 121.002 18.6243 121 11.9996C121 11.9971 121 11.9954 121 11.9938C121.001 5.36911 115.639 -0.00165496 109.028 3.82547e-07ZM99.9097 4.34114H102.185C102.521 4.74835 102.832 5.17709 103.114 5.62569H99.0548C99.3167 5.19695 99.6041 4.7558 99.9097 4.34114ZM98.3478 6.8854H103.805C103.999 7.30089 104.171 7.73045 104.321 8.17077H97.7011C97.7672 8.04662 97.9984 7.54671 98.3478 6.8854ZM85.8873 15.0553L86.6133 10.4684L84.9754 15.0553H84.0974L83.9834 10.4684L83.2078 15.0553H81.9779L82.9972 8.97196H84.8573L84.9225 12.7048L86.1788 8.97196H88.1967L87.1915 15.0553H85.8873ZM90.236 15.0454L90.2781 14.5596C90.2583 14.5621 89.8701 15.1464 88.9706 15.1464C88.4998 15.1464 87.7399 14.889 87.7399 13.77C87.7399 12.3472 88.8979 11.8754 90.0006 11.8754C90.174 11.8754 90.5482 11.9069 90.5482 11.9069C90.5482 11.9069 90.5903 11.82 90.5903 11.5849C90.5903 11.1984 90.2434 11.1454 89.7685 11.1454C88.9318 11.1454 88.3792 11.3697 88.3792 11.3697L88.5642 10.2689C88.5642 10.2689 89.2349 9.98752 90.108 9.98752C90.5598 9.98752 91.859 10.0355 91.859 11.5278L91.3585 15.0454H90.236ZM94.9795 13.496C94.9795 15.1936 93.3383 15.1207 93.0517 15.1207C91.9821 15.1207 91.6517 14.9726 91.6211 14.9643L91.7913 13.8469C91.7929 13.837 92.3282 14.0415 92.9237 14.0415C93.2673 14.0415 93.7133 14.0075 93.7133 13.5962C93.7133 12.9804 92.1175 13.1277 92.1175 11.6652C92.1175 10.3749 93.074 9.99745 94.0173 9.99745C94.7458 9.99745 95.1934 10.0976 95.1934 10.0976L95.0324 11.2249C95.0324 11.2249 94.341 11.1678 94.1618 11.1678C93.7084 11.1678 93.4614 11.2671 93.4614 11.5849C93.4606 12.2239 94.9795 11.911 94.9795 13.496ZM96.9503 13.9413C97.0634 13.9413 97.1915 13.9024 97.279 13.9024L97.1196 14.9875C96.9916 15.0231 96.629 15.1522 96.164 15.1555C95.5701 15.1605 95.148 14.8277 95.148 14.0729C95.148 13.5664 95.8724 9.39242 95.9005 9.36511H97.1749L97.0453 10.1117H97.6813L97.5185 11.3143H96.8437L96.4853 13.5299C96.458 13.7062 96.5067 13.9413 96.9503 13.9413ZM99.7536 9.97096C101.153 9.97096 101.572 10.9973 101.572 11.839C101.572 12.1759 101.403 13.0036 101.403 13.0036H98.8128C98.8128 13.0036 98.5733 14.0257 99.9419 14.0257C100.584 14.0257 101.296 13.7112 101.296 13.7112L101.071 14.942C101.071 14.942 100.66 15.1522 99.7247 15.1522C98.7112 15.1522 97.5227 14.7226 97.5227 12.9183C97.5235 11.3548 98.4717 9.97096 99.7536 9.97096ZM103.129 18.3495H98.8822C98.6237 17.9356 98.3825 17.5111 98.1752 17.0649H103.827C103.619 17.5086 103.386 17.9373 103.129 18.3495ZM102.844 15.0645H101.536L102.331 10.1133H103.518L103.404 10.8309C103.404 10.8309 103.827 10.0504 104.398 10.0504C104.564 10.0504 104.644 10.067 104.644 10.067C104.475 10.4129 104.325 10.7299 104.17 11.5485C103.285 11.234 103.217 12.9498 102.844 15.0645ZM107.829 14.9875C107.829 14.9875 107.144 15.1629 106.714 15.1629C105.193 15.1629 104.42 14.111 104.42 12.5177C104.42 10.115 105.852 8.8354 107.323 8.8354C107.988 8.8354 108.758 9.14825 108.758 9.14825L108.55 10.5015C108.55 10.5015 108.029 10.1365 107.381 10.1365C106.513 10.1365 105.735 10.9658 105.735 12.473C105.735 13.2154 106.098 13.9074 107.003 13.9074C107.433 13.9074 108.057 13.5937 108.057 13.5937L107.829 14.9875ZM110.898 15.0479L110.941 14.5587C110.92 14.5612 110.532 15.1456 109.633 15.1456C109.162 15.1456 108.402 14.8882 108.402 13.7691C108.402 12.3464 109.56 11.8746 110.662 11.8746C110.836 11.8746 111.211 11.9061 111.211 11.9061C111.211 11.9061 111.254 11.82 111.254 11.5849C111.254 11.1984 110.907 11.1454 110.431 11.1454C109.594 11.1454 109.042 11.3697 109.042 11.3697L109.227 10.2689C109.227 10.2689 109.898 9.98752 110.772 9.98752C111.223 9.98752 112.523 10.0355 112.522 11.5278L112.022 15.0454C112.021 15.0479 110.898 15.0479 110.898 15.0479ZM113.546 15.0645H112.238L113.034 10.1133H114.221L114.107 10.8309C114.107 10.8309 114.531 10.0504 115.102 10.0504C115.268 10.0504 115.347 10.067 115.347 10.067C115.179 10.4129 115.027 10.7299 114.873 11.5485C113.987 11.234 113.919 12.9498 113.546 15.0645ZM117.452 15.0512L117.508 14.5952C117.508 14.5952 117.085 15.1298 116.32 15.1298C115.26 15.1298 114.741 14.1044 114.741 13.0565C114.741 11.4359 115.714 10.0231 116.882 10.0231C117.633 10.0248 118.113 10.6894 118.113 10.6894L118.389 8.98024L119.667 8.97776L118.692 15.0512H117.452V15.0512ZM119.973 14.8799C119.939 14.9411 119.892 14.9883 119.83 15.0247C119.77 15.0587 119.706 15.076 119.638 15.076C119.572 15.076 119.508 15.0587 119.447 15.0247C119.386 14.9883 119.338 14.9411 119.304 14.8799C119.27 14.8178 119.253 14.7549 119.253 14.6879C119.253 14.62 119.27 14.5554 119.304 14.4942C119.338 14.4329 119.389 14.3833 119.449 14.3502C119.512 14.3162 119.574 14.2989 119.638 14.2989C119.704 14.2989 119.767 14.3162 119.828 14.3502C119.891 14.3841 119.939 14.4313 119.973 14.4942C120.009 14.5563 120.025 14.6208 120.025 14.6879C120.025 14.7549 120.008 14.8186 119.973 14.8799Z" fill="white"/>
<path d="M90.1038 12.8247C89.1696 12.8247 88.9805 13.2455 88.9805 13.5959C88.9805 13.7764 89.0837 14.0779 89.4794 14.0779C90.2467 14.0779 90.4061 13.0691 90.3813 12.8545C90.345 12.8471 90.3218 12.8255 90.1038 12.8247Z" fill="white"/>
<path d="M99.7586 11.114C99.064 11.114 98.9302 11.9067 98.9302 11.9904H100.345C100.345 11.9266 100.478 11.114 99.7586 11.114Z" fill="white"/>
<path d="M117.102 11.2522C116.541 11.2522 116.098 11.9044 116.099 12.8951C116.099 13.4993 116.313 13.8867 116.773 13.8867C117.463 13.8867 117.796 12.9837 117.796 12.3108C117.796 11.5684 117.561 11.2522 117.102 11.2522Z" fill="white"/>
<path d="M119.915 14.5274C119.887 14.4761 119.846 14.4363 119.795 14.4073C119.744 14.3783 119.692 14.3643 119.637 14.3643C119.584 14.3643 119.531 14.3792 119.479 14.4073C119.428 14.4338 119.388 14.4753 119.359 14.5274C119.33 14.5796 119.315 14.6351 119.315 14.689C119.315 14.7445 119.33 14.7991 119.357 14.8497C119.388 14.901 119.426 14.9399 119.478 14.9706C119.529 14.9987 119.582 15.0153 119.637 15.0153C119.692 15.0153 119.747 14.9987 119.796 14.9706C119.848 14.9416 119.887 14.9018 119.917 14.8497C119.946 14.7983 119.959 14.7445 119.959 14.689C119.959 14.6343 119.944 14.5796 119.915 14.5274ZM119.736 14.9018L119.699 14.8372C119.67 14.785 119.647 14.7519 119.63 14.7395C119.616 14.7287 119.599 14.7237 119.575 14.7237H119.537V14.901H119.468V14.4835H119.612C119.661 14.4835 119.697 14.4877 119.718 14.4968C119.739 14.5042 119.757 14.5183 119.771 14.5365C119.785 14.5548 119.79 14.5755 119.79 14.5978C119.79 14.6285 119.778 14.6542 119.757 14.6774C119.735 14.7014 119.706 14.7113 119.671 14.7155C119.687 14.7221 119.698 14.7295 119.706 14.737C119.724 14.7544 119.744 14.7792 119.768 14.819L119.819 14.9018C119.819 14.9018 119.736 14.9018 119.736 14.9018Z" fill="white"/>
<path d="M110.767 12.8247C109.833 12.8247 109.644 13.2455 109.644 13.5959C109.644 13.7764 109.746 14.0779 110.143 14.0779C110.91 14.0779 111.069 13.0691 111.045 12.8545C111.007 12.8471 110.984 12.8255 110.767 12.8247Z" fill="white"/>
<path d="M119.708 14.5688C119.701 14.5605 119.692 14.5539 119.68 14.5481C119.666 14.5439 119.645 14.5398 119.612 14.5398V14.5406H119.537V14.6665H119.619C119.658 14.6665 119.683 14.6616 119.699 14.6491C119.711 14.6367 119.719 14.621 119.719 14.6027C119.719 14.5887 119.716 14.5804 119.708 14.5688Z" fill="white"/>
<path d="M26.4267 2.33276L23.0725 21.7093H28.4371L31.794 2.33276H26.4267Z" fill="white"/>
<path d="M18.5744 2.35442L13.3202 15.5687L12.7601 13.5734C11.7239 11.1694 8.78218 7.71673 5.32861 5.54083L10.133 21.6998L15.8094 21.6902L24.2577 2.35034L18.5744 2.35442Z" fill="white"/>
<path d="M10.7236 3.74119C10.4118 2.56088 9.508 2.2091 8.38625 2.16699H0.0689886L0 2.55273C6.47251 4.0984 10.7553 7.82268 12.5325 12.3008L10.7236 3.74119Z" fill="white"/>
<path d="M42.6665 6.04754C44.4216 6.02037 45.6938 6.39796 46.6817 6.78913L47.166 7.01324L47.8917 2.81358C46.8293 2.42105 45.1639 2 43.086 2C37.7849 2 34.0485 4.62818 34.0195 8.39457C33.985 11.1776 36.6811 12.7314 38.7176 13.6591C40.808 14.6098 41.5089 15.2143 41.4993 16.0632C41.4827 17.3603 39.8325 17.9552 38.2913 17.9552C36.143 17.9552 35.0019 17.6632 33.2399 16.9406L32.5487 16.6309L31.7939 20.9677C33.0495 21.5097 35.3662 21.9756 37.7711 22C43.4102 22 47.0749 19.4031 47.1135 15.3786C47.137 13.1769 45.7062 11.4968 42.6058 10.1182C40.7293 9.21901 39.5814 8.62139 39.5924 7.71409C39.5924 6.90866 40.5665 6.04754 42.6665 6.04754Z" fill="white"/>
<path d="M61.6591 2.35449H57.5143C56.227 2.35449 55.2694 2.69948 54.7037 3.96264L46.7383 21.7202H52.3719C52.3719 21.7202 53.2908 19.3324 53.4992 18.8095C54.1159 18.8095 59.5895 18.8177 60.369 18.8177C60.5291 19.4941 61.0231 21.7202 61.0231 21.7202H65.9999L61.6591 2.35449ZM55.0431 14.8435C55.4847 13.7311 57.1804 9.42818 57.1804 9.42818C57.1514 9.48115 57.6178 8.30763 57.8951 7.57826L58.2566 9.24889C58.2566 9.24889 59.2845 13.875 59.4998 14.8435H55.0431Z" fill="white"/>
</svg>
