<svg width="40" height="40" viewBox="0 0 40 40" fill="none" xmlns="http://www.w3.org/2000/svg">
<path d="M40 0.000488281H0V40.0005H40V0.000488281Z" fill="#1BD741"/>
<path d="M6.01178 34.0036L7.97109 27.0448C6.71114 24.9043 6.04777 22.4689 6.04777 19.9671C6.04777 12.2639 12.3148 5.99683 20.018 5.99683C27.7213 5.99683 33.9882 12.2639 33.9882 19.9671C33.9882 27.6703 27.7213 33.9373 20.018 33.9373C17.6177 33.9373 15.2674 33.3229 13.1882 32.1563L6.01178 34.0036ZM13.5551 29.6147L13.9827 29.8758C15.7955 30.9825 17.8826 31.5675 20.018 31.5675C26.4145 31.5675 31.6184 26.3636 31.6184 19.9671C31.6184 13.5706 26.4145 8.36665 20.018 8.36665C13.6215 8.36665 8.41758 13.5706 8.41758 19.9671C8.41758 22.1959 9.05103 24.3602 10.2493 26.2261L10.5373 26.6746L9.40896 30.682L13.5551 29.6147Z" fill="white"/>
<path d="M16.0936 13.4651L15.1871 13.4157C14.9024 13.4002 14.6231 13.4953 14.4079 13.6823C13.9684 14.0639 13.2657 14.8017 13.0499 15.7631C12.728 17.1967 13.2254 18.9521 14.5128 20.7076C15.8001 22.463 18.1992 25.2716 22.4414 26.4712C23.8084 26.8578 24.8838 26.5972 25.7135 26.0664C26.3706 25.6461 26.8236 24.9714 26.9869 24.2087L27.1316 23.5326C27.1776 23.3178 27.0685 23.0998 26.8689 23.0078L23.8053 21.5956C23.6064 21.504 23.3705 21.5619 23.2368 21.7353L22.0341 23.2944C21.9432 23.4122 21.7877 23.4589 21.6472 23.4096C20.8236 23.1201 18.0646 21.9646 16.5507 19.0485C16.4851 18.922 16.5014 18.7685 16.5945 18.6606L17.744 17.3309C17.8614 17.1951 17.8911 17.0042 17.8205 16.8392L16.4999 13.7496C16.4296 13.5851 16.2721 13.4749 16.0936 13.4651Z" fill="white"/>
</svg>
