<?xml version="1.0" encoding="UTF-8" standalone="no"?>
<svg
   xmlns:dc="http://purl.org/dc/elements/1.1/"
   xmlns:cc="http://creativecommons.org/ns#"
   xmlns:rdf="http://www.w3.org/1999/02/22-rdf-syntax-ns#"
   xmlns:svg="http://www.w3.org/2000/svg"
   xmlns="http://www.w3.org/2000/svg"
   viewBox="0 0 1333.3333 1333.3333"
   height="1333.3333"
   width="1333.3333"
   xml:space="preserve"
   id="svg2"
   version="1.1"><metadata
     id="metadata8"><rdf:RDF><cc:Work
         rdf:about=""><dc:format>image/svg+xml</dc:format><dc:type
           rdf:resource="http://purl.org/dc/dcmitype/StillImage" /></cc:Work></rdf:RDF></metadata><defs
     id="defs6" /><g
     transform="matrix(1.3333333,0,0,-1.3333333,0,1333.3333)"
     id="g10"><g
       transform="scale(0.1)"
       id="g12"><path
         id="path14"
         style="fill:#ffffff;fill-opacity:1;fill-rule:nonzero;stroke:none"
         d="M 10000,0 H 0 V 10000 H 10000 V 0" /><path
         id="path16"
         style="fill:#1a1b1b;fill-opacity:1;fill-rule:nonzero;stroke:none"
         d="m 4846.88,6210.05 c -243.35,207.06 -466.64,436.75 -666.73,686.06 -248.52,-183.99 -514.37,-345.79 -794.95,-481.98 169.56,-267.03 364.53,-516.14 581.66,-744.27 313.44,148.62 607.99,330.38 880.02,540.19" /><path
         id="path18"
         style="fill:#1a1b1b;fill-opacity:1;fill-rule:nonzero;stroke:none"
         d="m 3796.06,4336.9 c 353.24,95.66 695.56,230.15 1011.89,399.3 -321.1,200.7 -618.4,436.02 -885.56,701.87 -271.02,-119.37 -554.45,-215.16 -847.9,-285.36 211.13,-298.59 449.72,-572.49 721.57,-815.81" /><path
         id="path20"
         style="fill:#1a1b1b;fill-opacity:1;fill-rule:nonzero;stroke:none"
         d="m 5000,4844.77 v 0.01 c 322.72,192.04 620.97,420.83 889.53,680.28 -316.82,155.54 -628.35,318.3 -889.53,495.84 v -0.02 c -261.19,-177.54 -572.71,-340.3 -889.53,-495.84 268.56,-259.45 566.81,-488.23 889.53,-680.27" /><path
         id="path22"
         style="fill:#1a1b1b;fill-opacity:1;fill-rule:nonzero;stroke:none"
         d="m 4556.45,3560.69 c -286.79,161.91 -556.35,350.71 -804.73,563.92 -158.5,-39.42 -320.03,-70.97 -483.97,-95.02 12.14,-18.67 25.67,-36.31 38.4,-54.55 105.13,-143.61 410.38,-521.73 710.24,-521.73 370.12,0 538.79,107.43 538.79,107.43 l 1.27,-0.05" /><path
         id="path24"
         style="fill:#1a1b1b;fill-opacity:1;fill-rule:nonzero;stroke:none"
         d="m 4875.13,7808.64 c -96.8,121.44 -187.44,247.92 -272.87,378.11 0,0 -502.5,-439.2 -491.66,-871.03 34.16,-50.02 67.65,-100.55 103.65,-149.18 240.18,192.67 461.45,407.7 660.88,642.1" /><path
         id="path26"
         style="fill:#1a1b1b;fill-opacity:1;fill-rule:nonzero;stroke:none"
         d="m 5000,7925.65 v 0.01 c 63.8,81.48 124.82,165.25 184.56,249.91 14.68,135.02 -184.56,161.61 -184.56,161.61 v -0.01 c 0,0 -199.24,-26.6 -184.56,-161.61 59.74,-84.67 120.76,-168.43 184.56,-249.91" /><path
         id="path28"
         style="fill:#1a1b1b;fill-opacity:1;fill-rule:nonzero;stroke:none"
         d="m 3572.97,4285.73 c -187.14,176.8 -358.47,369.48 -516.36,573.18 -1.61,0.54 -3.45,0.59 -4.61,2.07 -13.74,17.64 -32.12,4.12 -33.2,-16.78 30.11,-147.51 105.91,-454.24 226.9,-523.8 140.18,-80.6 290.98,-45.08 327.27,-34.67" /><path
         id="path30"
         style="fill:#1a1b1b;fill-opacity:1;fill-rule:nonzero;stroke:none"
         d="m 3301.65,5414.54 c 163.39,49.05 323.63,105.43 479.12,171.2 -189.87,204.87 -361.53,426.42 -515.39,660.74 -2.81,2.93 -5.77,6.39 -9.18,11.55 -31.21,47.26 -102.27,28.29 -105.94,-36.17 -21.32,-236.47 -56.93,-848.88 151.39,-807.32" /><path
         id="path32"
         style="fill:#1a1b1b;fill-opacity:1;fill-rule:nonzero;stroke:none"
         d="m 4061.72,7048.42 c -84.59,114.08 -162.76,233.02 -237.47,354.3 -1.97,1.5 -4.04,3.64 -6.33,7.33 -26.14,42.15 -71.02,26.72 -85.98,2.48 -75.7,-150.91 -231.51,-495.05 -189.84,-698.1 180.42,100.71 354.27,211.83 519.62,333.99" /><path
         id="path34"
         style="fill:#1a1b1b;fill-opacity:1;fill-rule:nonzero;stroke:none"
         d="m 5153.12,6210.06 c 272.03,-209.8 566.58,-391.56 880.02,-540.18 217.13,228.12 412.1,477.24 581.66,744.26 -280.58,136.2 -546.43,298 -794.95,481.99 -200.09,-249.32 -423.38,-479 -666.73,-686.07" /><path
         id="path36"
         style="fill:#1a1b1b;fill-opacity:1;fill-rule:nonzero;stroke:none"
         d="m 6925.51,5152.73 c -293.45,70.19 -576.88,165.99 -847.9,285.36 -267.16,-265.85 -564.46,-501.17 -885.56,-701.87 316.33,-169.15 658.65,-303.65 1011.89,-399.31 271.85,243.32 510.44,517.23 721.57,815.82" /><path
         id="path38"
         style="fill:#1a1b1b;fill-opacity:1;fill-rule:nonzero;stroke:none"
         d="m 5000,6332.49 c 244.32,204.68 467.85,433.26 667.57,681.79 -241.87,193.79 -449.27,372.98 -667.57,579.77 v -0.02 c -218.3,-206.79 -425.7,-385.97 -667.57,-579.76 199.72,-248.54 423.25,-477.11 667.57,-681.79 v 0.01" /><path
         id="path40"
         style="fill:#1a1b1b;fill-opacity:1;fill-rule:nonzero;stroke:none"
         d="m 5443.55,3560.7 1.27,0.05 c 0,0 168.67,-107.43 538.79,-107.43 299.86,0 605.11,378.13 710.24,521.73 12.73,18.25 26.26,35.89 38.4,54.56 -163.94,24.05 -325.47,55.6 -483.97,95.01 -248.38,-213.21 -517.94,-402 -804.73,-563.92" /><path
         id="path42"
         style="fill:#1a1b1b;fill-opacity:1;fill-rule:nonzero;stroke:none"
         d="m 5000,3549.43 v 0.02 c 368.09,169.87 711.53,384.24 1022.71,637.12 -359.45,107.58 -714.27,226.11 -1022.71,371.48 0,-0.01 0,-0.01 0,-0.01 v -0.01 C 4691.55,4412.66 4336.74,4294.14 3977.29,4186.56 4288.47,3933.67 4631.91,3719.31 5000,3549.43" /><path
         id="path44"
         style="fill:#1a1b1b;fill-opacity:1;fill-rule:nonzero;stroke:none"
         d="m 5000,3410.12 v -0.02 c 0,0 -527.77,-103.14 -776.9,-79.15 106.55,-59.01 207.26,-90.56 278.43,-108.67 -0.19,-0.06 -0.38,-0.14 -0.58,-0.2 3.26,-0.81 6.62,-1.35 9.89,-2.14 30.05,-7.43 54.78,-12.64 70.59,-16.12 l 1.15,0.57 c 134.88,-27.79 274.31,-43.35 417.42,-43.35 v 0.02 c 143.11,0 282.54,15.56 417.42,43.34 l 1.15,-0.56 c 15.81,3.48 40.54,8.69 70.59,16.11 3.27,0.8 6.63,1.34 9.89,2.15 -0.2,0.06 -0.39,0.13 -0.58,0.2 71.17,18.11 171.89,49.65 278.43,108.66 -249.13,-23.98 -776.9,79.16 -776.9,79.16" /><path
         id="path46"
         style="fill:#1a1b1b;fill-opacity:1;fill-rule:nonzero;stroke:none"
         d="m 5785.75,7166.56 c 36,48.63 69.49,99.15 103.65,149.17 10.84,431.84 -491.66,871.03 -491.66,871.03 -85.43,-130.18 -176.07,-256.66 -272.87,-378.1 199.43,-234.4 420.7,-449.44 660.88,-642.1" /><path
         id="path48"
         style="fill:#1a1b1b;fill-opacity:1;fill-rule:nonzero;stroke:none"
         d="m 6948,4861 c -1.16,-1.49 -3,-1.53 -4.61,-2.07 -157.89,-203.7 -329.22,-396.38 -516.36,-573.18 36.29,-10.41 187.09,-45.94 327.27,34.67 120.99,69.56 196.79,376.29 226.9,523.8 -1.08,20.9 -19.46,34.42 -33.2,16.78" /><path
         id="path50"
         style="fill:#1a1b1b;fill-opacity:1;fill-rule:nonzero;stroke:none"
         d="m 6698.35,5414.55 c 208.32,-41.56 172.71,570.86 151.39,807.32 -3.67,64.46 -74.73,83.44 -105.94,36.17 -3.41,-5.15 -6.37,-8.62 -9.18,-11.54 -153.86,-234.33 -325.52,-455.87 -515.39,-660.74 155.49,-65.78 315.73,-122.16 479.12,-171.21" /><path
         id="path52"
         style="fill:#1a1b1b;fill-opacity:1;fill-rule:nonzero;stroke:none"
         d="m 6268.06,7412.55 c -14.96,24.23 -59.85,39.66 -85.98,-2.48 -2.29,-3.69 -4.36,-5.83 -6.33,-7.33 -74.71,-121.29 -152.88,-240.23 -237.47,-354.3 165.35,-122.17 339.2,-233.28 519.62,-333.99 41.67,203.04 -114.14,547.18 -189.84,698.1" /><path
         id="path54"
         style="fill:#231f20;fill-opacity:1;fill-rule:nonzero;stroke:none"
         d="m 3138.43,2027.26 c 54.58,0 80.93,25.42 80.93,88.44 v 87.53 c 0,60.22 -21.64,90.34 -75.28,90.34 h -70.57 v -266.31 z m 5.65,333.11 c 103.52,0 147.74,-61.17 147.74,-160.91 v -79.04 c 0,-104.46 -48.93,-159.03 -153.39,-159.03 h -64.92 v -259.72 h -73.4 v 658.7 h 143.97" /><path
         id="path56"
         style="fill:#231f20;fill-opacity:1;fill-rule:nonzero;stroke:none"
         d="m 3425.5,2360.37 v -658.7 h -73.4 v 658.7 h 73.4" /><path
         id="path58"
         style="fill:#231f20;fill-opacity:1;fill-rule:nonzero;stroke:none"
         d="m 3565.72,1701.67 h -65.88 v 658.7 h 93.17 l 152.44,-476.14 v 476.14 h 64.92 v -658.7 h -76.21 l -168.44,532.6 v -532.6" /><path
         id="path60"
         style="fill:#231f20;fill-opacity:1;fill-rule:nonzero;stroke:none"
         d="m 4120.03,2068.67 v -65.88 h -160.91 v -234.3 h 197.61 v -66.82 h -271.01 v 658.7 h 271.01 v -66.8 h -197.61 v -224.9 h 160.91" /><path
         id="path62"
         style="fill:#231f20;fill-opacity:1;fill-rule:nonzero;stroke:none"
         d="m 4515.29,2201.34 v -59.28 h -69.63 v 63.05 c 0,59.28 -23.52,95.04 -77.16,95.04 -52.7,0 -77.16,-35.76 -77.16,-95.04 v -348.18 c 0,-59.28 24.46,-95.03 77.16,-95.03 53.64,0 77.16,35.75 77.16,95.03 v 85.64 h 69.63 v -81.87 c 0,-99.74 -47.05,-165.62 -148.68,-165.62 -100.68,0 -147.73,65.88 -147.73,165.62 v 340.64 c 0,99.75 47.05,165.62 147.73,165.62 101.63,0 148.68,-65.87 148.68,-165.62" /><path
         id="path64"
         style="fill:#231f20;fill-opacity:1;fill-rule:nonzero;stroke:none"
         d="m 4648.97,1856.93 c 0,-60.22 25.4,-95.03 78.1,-95.03 53.63,0 78.1,34.81 78.1,95.03 v 348.18 c 0,59.28 -24.47,95.04 -78.1,95.04 -52.7,0 -78.1,-35.76 -78.1,-95.04 z m -72.46,344.41 c 0,100.69 49.88,165.62 150.56,165.62 101.63,0 151.51,-64.93 151.51,-165.62 V 1860.7 c 0,-99.74 -49.88,-165.62 -151.51,-165.62 -100.68,0 -150.56,65.88 -150.56,165.62 v 340.64" /><path
         id="path66"
         style="fill:#231f20;fill-opacity:1;fill-rule:nonzero;stroke:none"
         d="m 5013.19,1701.67 h -65.88 v 658.7 h 93.16 l 152.45,-476.14 v 476.14 h 64.92 v -658.7 h -76.21 l -168.44,532.6 v -532.6" /><path
         id="path68"
         style="fill:#231f20;fill-opacity:1;fill-rule:nonzero;stroke:none"
         d="m 5567.5,2068.67 v -65.88 h -160.91 v -234.3 h 197.6 v -66.82 h -271 v 658.7 h 271 v -66.8 h -197.6 v -224.9 h 160.91" /><path
         id="path70"
         style="fill:#231f20;fill-opacity:1;fill-rule:nonzero;stroke:none"
         d="m 5891.25,2360.37 v -658.7 h -73.39 v 658.7 h 73.39" /><path
         id="path72"
         style="fill:#231f20;fill-opacity:1;fill-rule:nonzero;stroke:none"
         d="m 6257.33,2201.34 v -59.28 h -69.65 v 63.05 c 0,59.28 -23.52,95.04 -77.15,95.04 -52.69,0 -77.16,-35.76 -77.16,-95.04 v -348.18 c 0,-59.28 24.47,-95.03 77.16,-95.03 53.63,0 77.15,35.75 77.15,95.03 v 85.64 h 69.65 v -81.87 c 0,-99.74 -47.06,-165.62 -148.69,-165.62 -100.69,0 -147.74,65.88 -147.74,165.62 v 340.64 c 0,99.75 47.05,165.62 147.74,165.62 101.63,0 148.69,-65.87 148.69,-165.62" /><path
         id="path74"
         style="fill:#231f20;fill-opacity:1;fill-rule:nonzero;stroke:none"
         d="m 6391.01,1856.93 c 0,-60.22 25.42,-95.03 78.1,-95.03 53.63,0 78.1,34.81 78.1,95.03 v 348.18 c 0,59.28 -24.47,95.04 -78.1,95.04 -52.68,0 -78.1,-35.76 -78.1,-95.04 z m -72.47,344.41 c 0,100.69 49.89,165.62 150.57,165.62 101.63,0 151.49,-64.93 151.49,-165.62 V 1860.7 c 0,-99.74 -49.86,-165.62 -151.49,-165.62 -100.68,0 -150.57,65.88 -150.57,165.62 v 340.64" /><path
         id="path76"
         style="fill:#231f20;fill-opacity:1;fill-rule:nonzero;stroke:none"
         d="m 6755.23,1701.67 h -65.88 v 658.7 h 93.18 l 152.43,-476.14 v 476.14 h 64.93 v -658.7 h -76.24 l -168.42,532.6 v -532.6" /></g></g></svg>