<svg width="152" height="55" viewBox="0 0 152 55" fill="none" xmlns="http://www.w3.org/2000/svg">
<path d="M2.98039 8.12501C2.98039 5.91587 4.77125 4.12501 6.98039 4.12501H116C135.882 4.12501 152 20.2428 152 40.125V51C152 53.2091 150.209 55 148 55H7.98039C5.21897 55 2.98039 52.7614 2.98039 50V8.12501Z" fill="#E4D1D1"/>
<path d="M6.98039 4.62501H116C135.606 4.62501 151.5 20.5189 151.5 40.125V51C151.5 52.933 149.933 54.5 148 54.5H7.98039C5.49511 54.5 3.48039 52.4853 3.48039 50V8.12501C3.48039 6.19201 5.0474 4.62501 6.98039 4.62501Z" stroke="black" stroke-opacity="0.24"/>
<path d="M4 0.5H110.039C129.645 0.5 145.539 16.3939 145.539 36V45.5C145.539 47.433 143.972 49 142.039 49H5C2.51472 49 0.5 46.9853 0.5 44.5V4C0.5 2.067 2.067 0.5 4 0.5Z" fill="#E38484" stroke="black"/>
<path d="M38.38 34.158C38.3453 34.1407 38.276 34.1147 38.172 34.08C38.068 34.0453 37.9553 34.028 37.834 34.028C37.626 33.976 37.4527 33.8633 37.314 33.69C37.1927 33.5167 37.132 33.3173 37.132 33.092C37.132 32.9707 37.1407 32.8753 37.158 32.806C37.21 32.754 37.2533 32.6153 37.288 32.39C37.34 32.182 37.366 31.9913 37.366 31.818C37.418 31.714 37.4613 31.61 37.496 31.506C37.5307 31.3847 37.574 31.22 37.626 31.012C37.7647 30.2493 38.0853 28.9667 38.588 27.164C39.0907 25.3613 39.4027 24.3993 39.524 24.278V23.992C39.524 23.94 39.5413 23.836 39.576 23.68C39.6107 23.524 39.6887 23.3593 39.81 23.186C39.8793 22.978 39.9313 22.7787 39.966 22.588C40.018 22.38 40.0527 22.224 40.07 22.12C40.1393 22.0333 40.252 21.7733 40.408 21.34C40.5813 20.9067 40.694 20.6207 40.746 20.482C40.8673 20.1527 41.0147 19.7713 41.188 19.338C41.3787 18.8873 41.5087 18.5927 41.578 18.454V18.324C41.6127 18.2893 41.6993 18.116 41.838 17.804C41.994 17.4747 42.124 17.1973 42.228 16.972C42.3493 16.6947 42.67 15.9753 43.19 14.814C43.242 14.6927 43.32 14.5453 43.424 14.372C43.5453 14.1813 43.606 14.0513 43.606 13.982C43.6753 13.8607 43.7967 13.8 43.97 13.8C44.126 13.8 44.282 13.8607 44.438 13.982C44.6113 14.086 44.7413 14.2247 44.828 14.398L45.088 14.814L44.152 16.686C43.892 17.1367 43.6667 17.57 43.476 17.986C43.2853 18.402 43.19 18.6447 43.19 18.714C43.1207 18.8873 42.982 19.2427 42.774 19.78C42.5833 20.3173 42.4273 20.7767 42.306 21.158C42.2193 21.418 42.1153 21.6953 41.994 21.99C41.8727 22.2673 41.786 22.4667 41.734 22.588C41.5953 22.9 41.526 23.0733 41.526 23.108C41.526 23.0387 42.566 23.004 44.646 23.004C44.9753 23.004 45.556 22.9953 46.388 22.978C47.2373 22.9607 47.766 22.9347 47.974 22.9L49.326 22.77L50.21 20.092C50.3833 19.4853 50.7647 18.3067 51.354 16.556C51.614 15.8107 51.822 15.334 51.978 15.126C52.134 14.9007 52.3247 14.788 52.55 14.788C52.6367 14.788 52.758 14.8313 52.914 14.918C53.0873 14.9873 53.2 15.0827 53.252 15.204C53.4427 15.3947 53.538 15.594 53.538 15.802C53.538 16.0447 53.3993 16.3827 53.122 16.816C52.914 17.18 52.6193 17.8647 52.238 18.87C52.082 19.338 51.9867 19.6067 51.952 19.676C51.952 20.04 51.8653 20.3087 51.692 20.482C51.6227 20.5513 51.5013 20.8027 51.328 21.236C51.1547 21.652 51.068 21.8947 51.068 21.964C51.068 22.1027 51.042 22.2587 50.99 22.432C50.938 22.588 50.8773 22.7007 50.808 22.77L50.626 23.394C50.0193 25.5953 49.5427 27.1207 49.196 27.97C49.196 28.0567 49.1527 28.2127 49.066 28.438C48.9793 28.6633 48.936 28.8193 48.936 28.906C48.9013 29.0273 48.8233 29.27 48.702 29.634C48.5807 29.998 48.52 30.2147 48.52 30.284C48.4853 30.4747 48.416 30.778 48.312 31.194C48.052 32.3727 47.922 33.014 47.922 33.118C47.8873 33.1527 47.8353 33.17 47.766 33.17C47.6967 33.17 47.584 33.144 47.428 33.092C47.2893 33.04 47.1853 32.9967 47.116 32.962C46.7 32.7367 46.492 32.4767 46.492 32.182C46.492 31.9913 46.57 31.74 46.726 31.428C46.778 31.3413 46.9427 30.778 47.22 29.738L47.454 28.776C47.558 28.4987 47.792 27.6753 48.156 26.306C48.4507 25.2487 48.6153 24.7027 48.65 24.668V24.408C48.598 24.3213 47.9653 24.278 46.752 24.278C45.3827 24.278 44.126 24.3473 42.982 24.486H41.76H41.084C40.9973 24.6767 40.7287 25.4827 40.278 26.904C39.8447 28.308 39.602 29.192 39.55 29.556C39.4287 30.128 39.238 30.9253 38.978 31.948C38.718 32.9533 38.5187 33.69 38.38 34.158ZM52.4578 31.064C52.4058 30.96 52.3191 30.856 52.1978 30.752C52.0938 30.6307 52.0418 30.5527 52.0418 30.518C52.0418 30.3273 51.9984 30.18 51.9118 30.076C51.8771 30.0413 51.8598 29.9633 51.8598 29.842C51.8598 29.5647 51.9898 29.0967 52.2498 28.438C52.5271 27.762 52.8824 27.034 53.3158 26.254C53.4198 26.15 53.5498 25.968 53.7058 25.708C53.8791 25.448 53.9918 25.3007 54.0438 25.266C54.0438 25.1967 54.0698 25.136 54.1218 25.084C54.1738 25.0147 54.2344 24.98 54.3038 24.98V24.824C54.3038 24.668 54.5898 24.2953 55.1618 23.706C55.7338 23.0993 56.2018 22.6833 56.5658 22.458C56.9991 22.1633 57.4411 22.016 57.8918 22.016C58.2038 22.016 58.4724 22.1027 58.6978 22.276C58.7844 22.38 59.1831 22.7527 59.8938 23.394L60.8558 24.252L60.3878 25.552C60.2318 26.02 60.1538 26.4447 60.1538 26.826C60.1538 27.4847 60.3444 28.1173 60.7258 28.724C60.8124 28.9147 60.9858 29.0967 61.2458 29.27C61.5058 29.4433 61.7658 29.5473 62.0258 29.582C62.4071 29.6513 62.5978 29.842 62.5978 30.154C62.5978 30.5007 62.4418 30.7087 62.1298 30.778C62.0604 30.7953 61.9564 30.804 61.8178 30.804C60.7951 30.804 59.9111 30.0847 59.1658 28.646C59.0964 28.542 59.0011 28.3513 58.8798 28.074C58.7758 27.7967 58.7151 27.606 58.6978 27.502C58.5938 27.6407 58.4638 27.8053 58.3078 27.996C58.1518 28.1867 58.0044 28.3513 57.8658 28.49C55.9764 30.3793 54.4858 31.324 53.3938 31.324C53.0471 31.324 52.7351 31.2373 52.4578 31.064ZM53.3938 29.608C53.3938 29.6947 53.4804 29.7207 53.6538 29.686C53.8444 29.6513 54.0698 29.5647 54.3298 29.426C54.6071 29.2873 54.8844 29.1053 55.1618 28.88C56.6524 27.5973 57.7271 26.4793 58.3858 25.526L58.9578 24.59C58.7844 24.226 58.6024 23.966 58.4118 23.81C58.2211 23.6367 58.0478 23.55 57.8918 23.55C57.5278 23.55 56.9558 24.0093 56.1758 24.928C55.3958 25.8293 54.6851 26.8953 54.0438 28.126C53.8878 28.4207 53.7491 28.724 53.6278 29.036C53.5064 29.3307 53.4284 29.5213 53.3938 29.608ZM67.5116 31.61C67.1129 31.4367 66.8442 31.2287 66.7056 30.986C66.5496 30.7607 66.4716 30.414 66.4716 29.946C66.4716 29.6167 66.4802 29.3567 66.4976 29.166C66.5149 29.062 66.6102 28.724 66.7836 28.152C66.9742 27.58 67.1129 27.1813 67.1996 26.956C67.0436 26.9907 66.8962 27.0513 66.7576 27.138C66.6362 27.2247 66.5149 27.3113 66.3936 27.398C66.2202 27.5713 65.9862 27.7447 65.6916 27.918C65.3969 28.0913 65.1282 28.2213 64.8856 28.308C64.8162 28.3427 64.7382 28.36 64.6516 28.36C64.4609 28.36 64.2442 28.2993 64.0016 28.178C63.7762 28.0393 63.6116 27.866 63.5076 27.658C63.4209 27.45 63.3602 27.216 63.3256 26.956C63.3082 26.8693 63.2996 26.7393 63.2996 26.566C63.2996 26.1327 63.4036 25.708 63.6116 25.292L64.2616 23.966C64.4176 23.6713 64.6342 23.2293 64.9116 22.64C64.9636 22.536 65.0416 22.406 65.1456 22.25C65.2496 22.094 65.3189 21.9553 65.3536 21.834C65.3709 21.7647 65.4229 21.6867 65.5096 21.6C65.6136 21.496 65.7089 21.444 65.7956 21.444C66.2462 21.4787 66.5669 21.6433 66.7576 21.938C66.8616 22.0593 66.9136 22.1893 66.9136 22.328C66.9136 22.5013 66.8442 22.666 66.7056 22.822C66.1682 23.55 65.6136 24.5293 65.0416 25.76C64.8856 26.0373 64.8076 26.3147 64.8076 26.592C64.8076 26.6787 64.8162 26.748 64.8336 26.8C65.1109 26.8 65.5096 26.6093 66.0296 26.228C66.5496 25.8467 67.2169 25.318 68.0316 24.642L68.6556 24.122C69.0542 23.7927 69.4009 23.394 69.6956 22.926C69.8516 22.6313 70.1202 22.4753 70.5016 22.458C70.7616 22.5793 70.9262 22.6573 70.9956 22.692C71.0649 22.8307 71.1342 22.978 71.2036 23.134C71.2902 23.2727 71.3336 23.3853 71.3336 23.472C71.3336 23.628 71.2122 23.836 70.9696 24.096C70.8482 24.1133 70.6056 24.382 70.2416 24.902C69.8949 25.4047 69.6262 25.838 69.4356 26.202C69.3836 26.2887 69.3142 26.384 69.2276 26.488C69.1582 26.5747 69.0889 26.6787 69.0196 26.8L68.0316 29.192C68.0142 29.2613 67.9969 29.348 67.9796 29.452C67.9622 29.556 67.9536 29.686 67.9536 29.842C67.9536 29.9807 67.9709 30.076 68.0056 30.128C68.0922 30.128 68.1616 30.1193 68.2136 30.102C68.2829 30.0847 68.3522 30.076 68.4216 30.076C68.5256 30.076 68.5949 30.1193 68.6296 30.206C68.7162 30.5007 68.7596 30.6827 68.7596 30.752C68.7596 30.9253 68.6382 31.142 68.3956 31.402C68.2049 31.5927 68.0229 31.688 67.8496 31.688C67.7629 31.688 67.6502 31.662 67.5116 31.61ZM73.9096 31.246C73.7363 31.2807 73.5803 31.298 73.4416 31.298C73.2163 31.298 73.0083 31.2807 72.8176 31.246C72.6269 31.194 72.5316 31.1333 72.5316 31.064C72.5316 31.012 72.5229 30.9773 72.5056 30.96C72.4883 30.9427 72.4536 30.934 72.4016 30.934C72.3843 30.9167 72.3323 30.8733 72.2456 30.804C72.1589 30.7347 72.0549 30.674 71.9336 30.622C71.7776 30.3793 71.6996 30.1193 71.6996 29.842C71.6996 29.5473 71.7776 29.088 71.9336 28.464C71.9856 27.9093 72.2456 27.216 72.7136 26.384C73.1816 25.552 73.7276 24.7633 74.3516 24.018C74.9929 23.2727 75.5649 22.7527 76.0676 22.458C76.3276 22.198 76.6569 22.068 77.0556 22.068C77.3676 22.068 77.6623 22.146 77.9396 22.302C78.1823 22.4407 78.4336 22.6747 78.6936 23.004C78.9709 23.3333 79.1876 23.6713 79.3436 24.018C79.4129 24.278 79.4476 24.5293 79.4476 24.772C79.4476 25.032 79.4129 25.4393 79.3436 25.994C79.2569 26.306 79.1789 26.6873 79.1096 27.138C79.0576 27.5887 79.0316 27.9787 79.0316 28.308C78.9969 28.5507 79.0143 28.75 79.0836 28.906C79.1529 29.0447 79.2483 29.114 79.3696 29.114C79.4563 29.114 79.5516 29.088 79.6556 29.036C79.8289 28.9493 80.0196 28.906 80.2276 28.906C80.4183 28.906 80.5743 28.958 80.6956 29.062C80.8169 29.166 80.8776 29.322 80.8776 29.53C80.8776 29.842 80.6609 30.154 80.2276 30.466C79.8116 30.778 79.4129 30.934 79.0316 30.934C78.7716 30.934 78.5289 30.7347 78.3036 30.336C78.0956 29.92 77.8876 29.3913 77.6796 28.75L77.5236 28.152L76.4056 29.218L75.8076 29.816C75.5303 30.0933 75.3743 30.258 75.3396 30.31C75.1489 30.6393 74.6723 30.9513 73.9096 31.246ZM73.9876 29.712C74.4036 29.4693 74.9149 29.0447 75.5216 28.438C76.1283 27.8313 76.6309 27.2507 77.0296 26.696C77.5669 25.9853 77.9049 25.2833 78.0436 24.59C77.9743 24.382 77.8616 24.174 77.7056 23.966C77.5496 23.758 77.4109 23.6453 77.2896 23.628C76.9429 23.628 76.5789 23.8273 76.1976 24.226C75.8163 24.6247 75.3656 25.1793 74.8456 25.89L73.9876 27.164C73.8836 27.3027 73.7016 27.6753 73.4416 28.282C73.1816 28.8713 73.0516 29.2267 73.0516 29.348C73.0516 29.7293 73.1643 29.92 73.3896 29.92C73.5629 29.92 73.7623 29.8507 73.9876 29.712ZM82.8632 31.038C82.7245 30.8647 82.6552 30.6913 82.6552 30.518C82.6552 30.3793 82.6118 30.31 82.5252 30.31C82.4212 30.206 82.6205 29.6167 83.1232 28.542C83.6258 27.45 84.0592 26.618 84.4232 26.046C84.4925 25.994 84.5445 25.9247 84.5792 25.838C84.6138 25.734 84.6138 25.682 84.5792 25.682C84.6138 25.63 84.6658 25.5433 84.7352 25.422C84.8045 25.3007 84.8738 25.1967 84.9432 25.11C85.2378 24.538 85.3592 24.0787 85.3072 23.732C85.2378 23.6627 85.1598 23.6367 85.0732 23.654C85.0038 23.6713 84.9605 23.6887 84.9432 23.706C84.9085 23.7233 84.8132 23.758 84.6572 23.81C84.5185 23.8447 84.3972 23.8967 84.2932 23.966C83.8945 24.226 83.6432 24.356 83.5392 24.356C83.4352 24.356 83.3398 24.304 83.2532 24.2C83.1838 24.096 83.1058 23.9227 83.0192 23.68C82.9672 23.524 82.9412 23.4113 82.9412 23.342C82.9412 23.2207 83.0105 23.0993 83.1492 22.978C83.2532 22.874 83.3745 22.796 83.5132 22.744C83.6692 22.6747 83.7732 22.6227 83.8252 22.588C84.1892 22.38 84.4492 22.2587 84.6052 22.224C84.9172 22.1373 85.1685 22.094 85.3592 22.094C85.8792 22.094 86.2432 22.3367 86.4512 22.822C86.6938 23.1167 86.8152 23.4547 86.8152 23.836C86.8152 24.1653 86.6938 24.59 86.4512 25.11L86.1912 25.5C86.1392 25.604 86.1132 25.6733 86.1132 25.708C86.1132 25.7427 86.1218 25.76 86.1392 25.76C86.2085 25.76 86.2865 25.6993 86.3732 25.578C86.4598 25.4913 86.5725 25.3873 86.7112 25.266C86.8498 25.1273 86.9452 25.058 86.9972 25.058C87.0145 25.058 87.0405 25.0493 87.0752 25.032C87.1098 24.9973 87.1272 24.928 87.1272 24.824L87.3872 24.59C87.4565 24.59 87.6645 24.4427 88.0112 24.148L88.5052 23.758C88.6958 23.6193 88.8692 23.55 89.0252 23.55C89.0772 23.5327 89.1552 23.524 89.2592 23.524C89.5885 23.524 89.8572 23.706 90.0652 24.07C90.2732 24.4167 90.3772 24.8673 90.3772 25.422L89.8312 26.826L90.7672 25.682C90.9232 25.4913 91.1312 25.2833 91.3912 25.058C91.4258 24.954 91.4692 24.8933 91.5212 24.876C91.5905 24.8413 91.6338 24.824 91.6512 24.824C91.6685 24.824 91.6858 24.8153 91.7032 24.798C91.7378 24.7807 91.7552 24.7547 91.7552 24.72C91.8245 24.668 91.9112 24.6073 92.0152 24.538C92.1365 24.4513 92.2145 24.382 92.2492 24.33C92.4052 24.2607 92.5785 24.226 92.7692 24.226C93.1332 24.226 93.4365 24.46 93.6792 24.928C93.7832 25.1187 93.8438 25.292 93.8612 25.448C93.8958 25.5867 93.9132 25.8293 93.9132 26.176C93.8438 26.5573 93.7832 26.956 93.7312 27.372C93.7312 27.4413 93.7138 27.6147 93.6792 27.892C93.5925 28.0827 93.5492 28.3773 93.5492 28.776C93.5492 29.0187 93.5578 29.1747 93.5752 29.244C93.6098 29.3133 93.6792 29.348 93.7832 29.348C94.0432 29.296 94.3812 29.1747 94.7972 28.984C95.2305 28.776 95.5425 28.5767 95.7332 28.386C95.9932 28.126 96.2272 27.996 96.4352 27.996C96.6258 27.996 96.7472 28.1 96.7992 28.308C96.8512 28.412 96.7125 28.6893 96.3832 29.14C96.0712 29.5907 95.8545 29.816 95.7332 29.816C95.6985 29.816 95.6292 29.868 95.5252 29.972C95.4385 30.076 95.3692 30.1453 95.3172 30.18C95.0225 30.5093 94.7798 30.674 94.5892 30.674C94.5198 30.674 94.4245 30.7 94.3032 30.752C94.1992 30.7867 94.1038 30.804 94.0172 30.804C93.9825 30.8213 93.8958 30.83 93.7572 30.83C93.4972 30.83 93.2458 30.7607 93.0032 30.622C92.7605 30.4833 92.6045 30.2753 92.5352 29.998C92.3965 29.6513 92.3272 29.166 92.3272 28.542C92.3272 28.386 92.3445 28.1347 92.3792 27.788L92.5092 26.982C92.5438 26.6527 92.5785 26.4533 92.6132 26.384V26.15C92.6132 25.8553 92.5872 25.708 92.5352 25.708C92.3965 25.708 91.9372 26.1587 91.1572 27.06C90.3772 27.944 89.7792 28.7067 89.3632 29.348C89.2418 29.504 89.1032 29.738 88.9472 30.05C88.8085 30.3447 88.7218 30.5007 88.6872 30.518C88.6178 30.5873 88.5398 30.622 88.4532 30.622C88.3492 30.622 88.2365 30.57 88.1152 30.466C87.9938 30.362 87.8898 30.232 87.8032 30.076C87.7338 29.9027 87.6992 29.7727 87.6992 29.686C87.6992 29.5647 87.7512 29.3307 87.8552 28.984C87.9592 28.62 88.1065 28.1433 88.2972 27.554C88.4878 26.982 88.6438 26.488 88.7652 26.072C88.9038 25.656 88.9905 25.3787 89.0252 25.24C89.0252 25.1187 88.5918 25.4307 87.7252 26.176C87.5518 26.384 87.3525 26.6007 87.1272 26.826C86.7285 27.242 86.2778 27.7273 85.7752 28.282C85.2898 28.8367 84.8652 29.3653 84.5012 29.868C84.1198 30.388 83.8338 30.752 83.6432 30.96C83.4698 31.168 83.3225 31.272 83.2012 31.272C83.1145 31.272 83.0018 31.194 82.8632 31.038ZM100.135 31.584C99.8577 31.5493 99.6584 31.532 99.5371 31.532C99.2077 31.4973 98.9564 31.454 98.7831 31.402C98.6271 31.35 98.4797 31.2373 98.3411 31.064C97.9771 30.752 97.7951 30.2407 97.7951 29.53C97.7951 28.7673 97.9684 27.8833 98.3151 26.878C98.6617 25.8727 99.1037 24.7547 99.6411 23.524C99.9877 22.692 100.17 22.2413 100.187 22.172C100.152 21.964 100.282 21.86 100.577 21.86C100.716 21.86 100.854 21.8773 100.993 21.912C101.149 21.9467 101.27 21.9813 101.357 22.016C101.461 22.1373 101.565 22.2673 101.669 22.406C101.773 22.5447 101.834 22.6833 101.851 22.822C101.886 23.082 101.738 23.4027 101.409 23.784C101.149 24.0787 100.846 24.6333 100.499 25.448C100.17 26.2627 99.8924 27.1033 99.6671 27.97C99.4591 28.8193 99.3724 29.452 99.4071 29.868C99.7537 29.972 100.083 30.024 100.395 30.024C100.95 30.024 101.47 29.894 101.955 29.634C102.44 29.374 102.813 29.0447 103.073 28.646C103.246 28.3687 103.333 28.1 103.333 27.84C103.333 27.32 102.969 27.06 102.241 27.06C101.894 27.06 101.487 27.1033 101.019 27.19C100.776 26.9473 100.655 26.7133 100.655 26.488C100.655 26.2107 100.811 25.9853 101.123 25.812C101.435 25.6387 101.764 25.552 102.111 25.552C102.475 25.552 102.856 25.6473 103.255 25.838C103.671 26.0287 104.009 26.2627 104.269 26.54C104.564 26.8693 104.737 27.216 104.789 27.58C104.824 27.8227 104.841 27.996 104.841 28.1C104.841 28.6893 104.668 29.2093 104.321 29.66C104.061 30.024 103.688 30.336 103.203 30.596C102.718 30.856 102.25 31.0727 101.799 31.246C101.366 31.4193 101.088 31.532 100.967 31.584C100.863 31.584 100.768 31.5753 100.681 31.558C100.612 31.5407 100.534 31.532 100.447 31.532L100.135 31.584Z" fill="white"/>
</svg>
