<svg width="40" height="40" viewBox="0 0 40 40" fill="none" xmlns="http://www.w3.org/2000/svg">
<path d="M40 0.000488281H0V40.0005H40V0.000488281Z" fill="#61A8DE"/>
<path d="M31.4961 8.83007L4.74765 19.2537C3.88126 19.5913 3.93374 20.8346 4.82559 21.0979L11.6227 23.1051L14.1593 31.1542C14.4243 31.995 15.4898 32.2499 16.1065 31.6201L19.6208 28.0318L26.5161 33.0932C27.3599 33.7126 28.5617 33.2524 28.7759 32.2278L33.3428 10.3939C33.5664 9.3244 32.5142 8.43335 31.4961 8.83007ZM28.1426 13.6756L15.7181 24.6626C15.5942 24.7721 15.5154 24.9237 15.497 25.088L15.0186 29.3403C15.003 29.479 14.8089 29.4974 14.7675 29.3641L12.7994 23.0224C12.7093 22.732 12.8268 22.4175 13.0851 22.2573L27.7572 13.1575C28.0946 12.9481 28.44 13.4126 28.1426 13.6756Z" fill="white"/>
</svg>
