<svg width="45" height="31" viewBox="0 0 45 31" fill="none" xmlns="http://www.w3.org/2000/svg">
<path d="M36.7899 22.5922C35.6903 22.5922 34.6457 23.0228 33.8577 23.8017C33.0696 24.5897 32.6298 25.616 32.6298 26.7156C32.6298 27.8151 33.0605 28.8414 33.8577 29.6294C34.6549 30.4083 35.6903 30.839 36.7899 30.839C39.044 30.839 40.8766 28.988 40.8766 26.7156C40.8766 24.4431 39.044 22.5922 36.7899 22.5922ZM36.7899 29.0063C35.5254 29.0063 34.4624 27.9617 34.4624 26.7156C34.4624 25.4694 35.5254 24.4248 36.7899 24.4248C38.036 24.4248 39.044 25.4511 39.044 26.7156C39.044 27.9801 38.036 29.0063 36.7899 29.0063ZM37.8528 8.85667C37.6878 8.7009 37.4679 8.61843 37.2388 8.61843H32.5382C32.0342 8.61843 31.6219 9.03077 31.6219 9.53474V17.0485C31.6219 17.5525 32.0342 17.9648 32.5382 17.9648H39.9969C40.5009 17.9648 40.9133 17.5525 40.9133 17.0485V12.0179C40.9133 11.7614 40.8033 11.514 40.6109 11.3399L37.8528 8.85667ZM39.0806 16.1322H33.4545V10.4419H36.8815L39.0806 12.4211V16.1322ZM14.4136 22.5922C13.314 22.5922 12.2694 23.0228 11.4814 23.8017C10.6933 24.5897 10.2535 25.616 10.2535 26.7156C10.2535 27.8151 10.6842 28.8414 11.4814 29.6294C12.2786 30.4083 13.314 30.839 14.4136 30.839C16.6677 30.839 18.5003 28.988 18.5003 26.7156C18.5003 24.4431 16.6677 22.5922 14.4136 22.5922ZM14.4136 29.0063C13.1491 29.0063 12.0861 27.9617 12.0861 26.7156C12.0861 25.4694 13.1491 24.4248 14.4136 24.4248C15.6597 24.4248 16.6677 25.4511 16.6677 26.7156C16.6677 27.9801 15.6597 29.0063 14.4136 29.0063ZM8.30177 23.7192H6.45999V21.2818C6.45999 20.7779 6.04765 20.3655 5.54368 20.3655C5.03971 20.3655 4.62737 20.7779 4.62737 21.2818V24.6355C4.62737 25.1395 5.03971 25.5518 5.54368 25.5518H8.30177C8.80574 25.5518 9.21808 25.1395 9.21808 24.6355C9.21808 24.1316 8.80574 23.7192 8.30177 23.7192ZM12.9475 18.7253C12.9475 18.2214 12.5351 17.809 12.0312 17.809H0.91631C0.41234 17.809 0 18.2214 0 18.7253C0 19.2293 0.41234 19.6416 0.91631 19.6416H12.0312C12.5351 19.6416 12.9475 19.2385 12.9475 18.7253ZM2.77642 15.4175L13.8913 15.4816C14.3952 15.4816 14.8076 15.0784 14.8167 14.5745C14.8259 14.0613 14.4136 13.649 13.9096 13.649L2.79475 13.5848C2.78558 13.5848 2.78558 13.5848 2.78558 13.5848C2.28161 13.5848 1.86927 13.988 1.86927 14.492C1.86011 15.0051 2.27245 15.4175 2.77642 15.4175ZM4.64569 11.2574H15.7605C16.2645 11.2574 16.6768 10.8451 16.6768 10.3411C16.6768 9.83712 16.2645 9.42478 15.7605 9.42478H4.64569C4.14172 9.42478 3.72938 9.83712 3.72938 10.3411C3.72938 10.8451 4.14172 11.2574 4.64569 11.2574ZM44.661 10.0204L38.1002 4.58667C37.9352 4.44922 37.7337 4.37592 37.5137 4.37592H29.7984V1.0772C29.7984 0.573228 29.3861 0.160889 28.8821 0.160889H5.54368C5.03971 0.160889 4.62737 0.573228 4.62737 1.0772V7.78459C4.62737 8.28856 5.03971 8.7009 5.54368 8.7009C6.04765 8.7009 6.45999 8.28856 6.45999 7.78459V1.99351H27.975V23.7192H20.4612C19.9572 23.7192 19.5449 24.1316 19.5449 24.6355C19.5449 25.1395 19.9572 25.5518 20.4612 25.5518H31.6494C32.1533 25.5518 32.5657 25.1395 32.5657 24.6355C32.5657 24.1316 32.1533 23.7192 31.6494 23.7192H29.8076V6.20854H37.193L43.1674 11.1566L43.1032 23.7009H42.1503C41.6463 23.7009 41.234 24.1132 41.234 24.6172C41.234 25.1212 41.6463 25.5335 42.1503 25.5335H44.0104C44.5144 25.5335 44.9267 25.1303 44.9267 24.6264L45 10.7351C44.9908 10.4602 44.8717 10.1945 44.661 10.0204Z" fill="black"/>
</svg>
