<svg width="32" height="25" viewBox="0 0 32 25" fill="none" xmlns="http://www.w3.org/2000/svg">
<path d="M22.2462 19.4155C21.0987 19.4155 21.0987 21.2721 22.2462 21.2721C23.3938 21.2721 23.3938 19.4155 22.2462 19.4155Z" fill="white"/>
<path d="M24.5411 20.4157C25.6887 20.4157 25.6887 18.559 24.5411 18.559C23.3936 18.559 23.3936 20.4157 24.5411 20.4157Z" fill="white"/>
<path d="M1.44658 10.7071H7.61464V12.563H5.46299C5.1761 12.563 4.88921 12.8485 4.88921 13.1341C4.88921 13.4196 5.1761 13.7051 5.46299 13.7051H7.61464V15.561H2.59412C2.30724 15.561 2.02035 15.8465 2.02035 16.132C2.02035 16.4176 2.30724 16.7031 2.59412 16.7031H7.61464V18.9873C7.61464 19.2728 7.75808 19.4156 7.90152 19.5583L19.6639 24.4122H19.8073H19.9508L31.7131 19.5583C31.8566 19.4156 32 19.2728 32 18.9873V5.28217V5.13941C32 5.13941 32 5.13941 32 4.99665L20.2376 0C20.0942 0 19.9508 0 19.8073 0L7.90152 4.71113C7.90152 4.71113 7.90152 4.71113 7.90152 4.85389V4.99665V9.42226H1.44658C1.15969 9.70778 0.872803 9.85054 0.872803 10.1361C0.872803 10.4216 1.15969 10.7071 1.44658 10.7071ZM23.8237 7.99464L19.9508 9.56502L15.6475 7.85188L25.8319 3.56904L30.2787 5.42493L23.8237 7.99464ZM31.2828 18.559L20.5245 22.9846V10.5643L23.5368 9.27949L31.1393 6.13874V18.559H31.2828ZM19.9508 1.14209L24.3975 2.99799L14.213 7.28083L9.62284 5.28217L19.9508 1.14209ZM8.76218 6.13874L12.922 7.85188L19.5204 10.5643V22.9846L8.76218 18.559V16.7031H10.9138C11.2007 16.7031 11.4876 16.4176 11.4876 16.132C11.4876 15.8465 11.2007 15.561 10.9138 15.561H8.76218V13.7051H13.9261C14.213 13.7051 14.4999 13.4196 14.4999 13.1341C14.4999 12.8485 14.213 12.563 13.9261 12.563H8.76218V10.7071H9.90973C10.1966 10.7071 10.4835 10.4216 10.4835 10.1361C10.4835 9.85054 10.1966 9.56502 9.90973 9.56502H8.76218V6.13874Z" fill="white"/>
</svg>
