<svg width="27" height="35" viewBox="0 0 27 35" fill="none" xmlns="http://www.w3.org/2000/svg">
<path d="M9.09778 24.1478V18.3608H25.7354V32.1049H9.09778V28.4881" stroke="white" stroke-width="1.75" stroke-miterlimit="10"/>
<path d="M14.8884 18.3608V21.2543H19.952V18.3608" stroke="white" stroke-width="1.75" stroke-miterlimit="10"/>
<path d="M24.2903 18.361L22.6989 15.6845C22.3372 15.1058 21.7585 14.6718 21.1075 14.4548L17.7799 13.2974" stroke="white" stroke-width="1.75" stroke-miterlimit="10"/>
<path d="M9.10121 13.2974L5.195 14.9611C4.47162 15.2505 3.89292 15.9015 3.60357 16.6249L1.1441 23.4969C0.710079 24.6543 1.28878 25.8841 2.44618 26.3181L12.7181 29.935" stroke="white" stroke-width="1.75" stroke-miterlimit="10"/>
<path d="M14.1672 27.0416L6.21005 22.7014" stroke="white" stroke-width="1.75" stroke-miterlimit="10"/>
<path d="M6.21005 27.7648V34.9986" stroke="white" stroke-width="1.75" stroke-miterlimit="10"/>
<path d="M19.9524 32.105V35" stroke="white" stroke-width="1.75" stroke-miterlimit="10"/>
<path d="M17.7785 8.23374V10.2592C17.7785 10.8379 17.5615 11.4166 17.1275 11.7783L15.319 13.5867C15.0297 13.8761 14.668 14.0207 14.3063 14.0207H12.5702C12.2085 14.0207 11.8468 13.8761 11.5575 13.5867L9.6767 11.7783C9.24268 11.3442 9.02567 10.8379 9.02567 10.2592V8.23374V4.61687C9.02567 2.59142 10.6171 1 12.6425 1H14.0893C16.1147 1 17.7061 2.59142 17.7061 4.61687V6.78699" stroke="white" stroke-width="1.75" stroke-miterlimit="10"/>
<path d="M11.2683 6.78693H22.8423" stroke="white" stroke-width="1.75" stroke-miterlimit="10"/>
<path d="M23.5742 29.2114H22.1267" stroke="white" stroke-width="1.75" stroke-miterlimit="10"/>
<path d="M21.3999 29.2114H19.9524" stroke="white" stroke-width="1.75" stroke-miterlimit="10"/>
</svg>
