<svg width="33" height="34" viewBox="0 0 33 34" fill="none" xmlns="http://www.w3.org/2000/svg">
<path d="M32.9311 33.3666C32.6096 30.0639 31.9207 28.7745 31.3006 27.9601C30.7265 27.191 28.8434 25.5622 25.9729 24.0013C26.4092 21.7618 26.5699 19.4997 26.4781 17.3506C27.7641 16.491 28.0167 14.2967 28.2004 12.6454L28.2234 12.4644C28.2234 11.1976 27.7871 10.5868 27.4426 10.1118C27.2129 9.79508 27.1211 9.63673 27.0981 9.38789C26.8685 4.86361 22.7349 0 16.4885 0C9.94363 0 6.13152 4.84098 5.87891 9.38789C5.85595 9.63673 5.76409 9.79508 5.53445 10.0892C5.16702 10.5642 4.68476 11.2202 4.77662 12.6001C4.93737 15.3826 5.83299 16.6267 6.52192 17.1697C6.4071 19.3866 6.59081 21.7166 7.02714 24.0013C4.17954 25.5396 2.29645 27.191 1.69937 27.9601C1.07933 28.7745 0.390397 30.0639 0.0688935 33.3666L0 34H33L32.9311 33.3666ZM11.2526 23.3679C11.5741 25.5848 12.929 28.2994 16.5115 28.2994C17.9812 28.2994 19.1983 27.8244 20.1169 26.9195C21.1962 25.8337 21.6096 24.3633 21.7474 23.3679C26.5699 25.155 29.7161 27.8244 30.3591 28.6613C30.6576 29.0459 31.3236 29.9281 31.691 32.8463H1.33194C1.69937 29.9281 2.36534 29.0685 2.66388 28.6613C3.28393 27.8244 6.4071 25.155 11.2526 23.3679ZM10.5177 7.75915C12.1023 5.51963 14.1691 4.32069 16.4885 4.32069C18.8079 4.32069 20.8747 5.49701 22.4363 7.73653C24.0898 10.0665 25.0313 13.2562 25.261 16.7399C24.9165 16.9887 24.1587 17.4637 22.9415 17.9614V17.8709C22.9415 14.2063 20.3236 9.29741 20.2088 9.09381L19.8413 8.36993L19.2672 8.98071C18.3027 9.99867 16.8789 10.6773 15.501 11.3333C12.929 12.5549 10.0355 13.9122 10.0355 17.8935V17.984L10.0585 18.0745C10.3111 18.7758 10.6785 19.4318 11.1378 20.0426V22.1464C10.0355 22.5309 9.02505 22.9834 8.08351 23.4358C7.02714 17.5316 7.87683 11.5369 10.5177 7.75915ZM24.8706 23.4358C23.929 22.9834 22.9186 22.5536 21.8392 22.1464V20.0878C21.977 19.9069 22.1148 19.7033 22.2526 19.4997C23.6534 19.002 24.6639 18.5043 25.3299 18.0971C25.3528 19.839 25.215 21.6487 24.8706 23.4358ZM21.4259 18.5269C20.5532 18.7984 19.5428 19.0925 18.3716 19.3187L18.0731 19.3866L17.9582 19.658C17.8664 19.839 17.6827 19.9747 17.476 19.9747C17.1775 19.9747 16.9478 19.7485 16.9478 19.4544C16.9478 19.1603 17.1775 18.9341 17.476 18.9341C17.6597 18.9341 17.8205 19.0246 17.9353 19.183L18.9457 18.5722C18.6242 18.0745 18.0731 17.7578 17.476 17.7578C16.5344 17.7578 15.7537 18.5269 15.7537 19.4544C15.7537 20.3819 16.5344 21.151 17.476 21.151C18.0501 21.151 18.5553 20.8796 18.8768 20.4271C19.3591 20.314 19.8184 20.2236 20.2547 20.1104C18.8079 21.5582 16.9248 22.3726 16.4885 22.3952C15.7766 22.3952 12.2401 20.5629 11.2296 17.7804C11.2756 14.6134 13.4802 13.5729 16.0292 12.3739C17.2463 11.8084 18.5094 11.1976 19.5428 10.338C20.2317 11.7858 21.7474 15.179 21.7704 17.7804C21.6785 18.0519 21.5637 18.3007 21.4259 18.5269ZM12.3549 21.3546C13.8935 22.7572 15.7077 23.5715 16.5115 23.5715C17.0626 23.5715 18.9917 22.825 20.6681 21.3546C20.6681 21.8975 20.8288 24.5442 19.2672 26.1051C18.5783 26.7838 17.6597 27.1231 16.5115 27.1231C15.3633 27.1231 14.4447 26.7838 13.7557 26.0825C12.4008 24.7478 12.3549 22.7572 12.3549 21.3546ZM5.94781 12.5323C5.90188 11.5822 6.17745 11.1976 6.47599 10.7904C6.7286 10.4511 7.02714 10.0665 7.05011 9.45575C7.27975 5.42914 10.6785 1.17631 16.4885 1.17631C22.023 1.17631 25.6973 5.47438 25.9269 9.43313C25.9499 10.0439 26.2484 10.4285 26.4781 10.7678C26.7537 11.175 27.0292 11.5595 27.0292 12.4192V12.487C26.9374 13.4145 26.7766 14.7718 26.3633 15.6314C25.9958 12.3287 25.0084 9.32003 23.4238 7.03526C21.6096 4.45642 19.2213 3.09913 16.4885 3.09913C13.7557 3.09913 11.3445 4.47904 9.53027 7.05788C7.96869 9.27478 6.98121 12.2156 6.61378 15.4278C6.31524 14.8849 6.03967 13.98 5.94781 12.5323Z" fill="#1C354B"/>
</svg>
