<svg width="661" height="544" viewBox="0 0 661 544" fill="none" xmlns="http://www.w3.org/2000/svg">
<path opacity="0.8" d="M41.1044 142.537C62.0702 126.554 86.0979 125.371 109.135 126.302C132.173 127.232 155.59 129.749 178.017 119.96C212.704 104.89 239.722 63.0342 268.197 28.2896C277.765 16.6059 288.123 5.2239 300.005 1.50229C321.597 -5.19754 342.143 14.837 357.412 37.7067C372.681 60.5764 386.16 88.0061 405.686 101.753C456.447 137.255 517.975 65.056 572.862 83.1268C587.939 88.0963 601.648 99.8845 613.825 113.971C641.455 145.886 663.163 195.332 660.459 249.354C657.441 309.547 626.106 358.144 595.512 397.847C543.598 465.327 484.477 527.434 417.982 540.454C396.172 544.711 374.198 543.532 352.398 540.977C309.035 535.957 268.514 527.4 240.101 464.463C227.279 439.709 224.346 411.475 212.114 390.027C192.755 356.026 158.837 353.039 128.82 356.785C98.8037 360.531 66.8527 368.257 40.2347 348.526C-11.1963 310.277 -13.9057 184.585 41.1044 142.537Z" fill="#847FFE"/>
</svg>
