<svg width="1920" height="412" viewBox="0 0 1920 412" fill="none" xmlns="http://www.w3.org/2000/svg">
<g clip-path="url(#clip0)">
<rect width="1920" height="412" fill="#407FFE"/>
<g style="mix-blend-mode:screen" opacity="0.5">
<path d="M367.405 -483.319C350.293 -460.592 349.202 -420.47 346.106 -383.829C343.172 -348.811 309.728 -323.456 304.106 -289.134C277.214 -125.061 153.643 -67.973 132.701 98.5352C129.36 125.088 130.419 153.961 140.605 176.687C194.795 297.51 307.738 131.35 371.544 126.248C387.353 124.973 405.362 131.234 413.022 150.946C434.046 204.632 440.076 285.451 499.889 260.406C571.273 230.606 608.595 107 620.247 12.4983C632.552 -87.3371 625.87 -194.825 600.935 -289.791C580.481 -367.711 535.262 -474.033 477.976 -506.964C437.15 -530.618 396.415 -521.699 367.405 -483.319Z" fill="#251F1F"/>
</g>
<g style="mix-blend-mode:lighten" opacity="0.8">
<path d="M1213.1 -55.463C1234.07 -71.4464 1258.1 -72.6286 1281.14 -71.6982C1304.17 -70.7679 1327.59 -68.2508 1350.02 -78.0399C1384.7 -93.1103 1411.72 -134.966 1440.2 -169.71C1449.76 -181.394 1460.12 -192.776 1472.01 -196.498C1493.6 -203.198 1514.14 -183.163 1529.41 -160.293C1544.68 -137.424 1558.16 -109.994 1577.69 -96.2474C1628.45 -60.745 1689.97 -132.944 1744.86 -114.873C1759.94 -109.904 1773.65 -98.1156 1785.82 -84.0291C1813.46 -52.1142 1835.16 -2.6675 1832.46 51.3539C1829.44 111.547 1798.11 160.144 1767.51 199.847C1715.6 267.327 1656.48 329.434 1589.98 342.454C1568.17 346.711 1546.2 345.532 1524.4 342.977C1481.03 337.957 1440.51 329.4 1412.1 266.463C1399.28 241.709 1396.35 213.475 1384.11 192.027C1364.75 158.026 1330.84 155.039 1300.82 158.785C1270.8 162.531 1238.85 170.257 1212.23 150.526C1160.8 112.277 1158.09 -13.4149 1213.1 -55.463Z" fill="#957987"/>
</g>
</g>
<defs>
<clipPath id="clip0">
<rect width="1920" height="412" fill="white"/>
</clipPath>
</defs>
</svg>
