<svg width="717" height="587" viewBox="0 0 717 587" fill="none" xmlns="http://www.w3.org/2000/svg">
<g clip-path="url(#clip0)">
<path d="M528 402.479C507.65 414.019 480.461 406.612 455 401.851C430.675 397.277 403.666 423.842 379 421.98C261.082 413.089 185.792 518.949 68.0282 503.87C49.248 501.467 30.2352 494.378 18.0747 479.876C-46.5631 402.743 98.566 329.985 121.122 270.192C126.719 255.38 127.929 236.882 117.029 225.425C87.3917 194.066 35.0903 171.298 69.8017 119.513C111.167 57.6908 205.12 48.1119 271.887 56.8921C342.42 66.1734 412.382 95.1785 468.483 138.96C514.517 174.877 572.137 240.398 577 301.98C580.59 345.906 562.399 382.886 528 402.479Z" fill="#43BBFE"/>
<mask id="mask0" mask-type="alpha" maskUnits="userSpaceOnUse" x="46" y="-3" width="734" height="588">
<path d="M46 572.98C46 579.607 51.3726 584.98 58 584.98H768C774.627 584.98 780 579.607 780 572.98V9.97974C780 3.35229 774.627 -2.02026 768 -2.02026H58C51.3726 -2.02026 46 3.35229 46 9.97974V572.98Z" fill="#407FFE"/>
</mask>
<g mask="url(#mask0)">
<path opacity="0.8" d="M630.615 21.2111C606.869 22.4409 585.869 34.1467 566.483 46.6101C547.097 59.0736 527.962 72.6864 505.211 78.3934C470.048 87.2625 431.737 76.0734 394.757 69.9106C382.328 67.8341 369.333 66.3473 357.81 70.2513C336.894 77.383 326.57 100.038 321.792 121.67C317.014 143.302 315.422 166.749 303.69 185.099C273.107 232.663 194.247 221.073 153.809 260.294C142.704 271.071 135.242 285.239 129.926 299.995C117.845 333.45 117.193 374.379 139.1 405.442C163.515 440.052 207.966 453.06 248.559 461.108C317.478 474.829 390.618 481.597 452.269 455.06C472.486 446.348 490.871 434.284 508.608 421.484C543.912 396.06 575.5 369.98 577 317.48C579 295.98 571.271 277.499 573.965 258.291C578.208 227.856 606.164 208.535 633.22 195.275C660.277 182.015 690.434 170.147 706.066 144.536C736.227 94.9767 692.961 18.0509 630.615 21.2111Z" fill="#8D83FE"/>
<path d="M314.29 361.223C316.387 376.53 326.585 418.451 331.631 433.602C319.329 437.762 299.489 432.064 293.678 393.255C287.867 354.446 287.178 325.926 302.738 325.676C310.889 325.549 312.586 348.783 314.29 361.223Z" fill="#DF7842"/>
<path d="M275.079 340.604C281.655 353.911 294.27 386.738 340.95 429.355C288.326 437.306 287.659 409.674 282.99 400.165C276.82 387.644 237.981 326.378 258.444 320.357C266.296 318.044 270.622 331.561 275.079 340.604Z" fill="#EC8F66"/>
<path d="M259.609 346.931C272.616 363.466 330.433 424.855 357.492 441.693C325.829 447.268 248.006 392.333 237.345 370.526C226.684 348.718 217.049 323.552 229.041 318.939C240.845 314.401 251.517 336.653 259.609 346.931Z" fill="#F4976E"/>
<path d="M202.405 326.152C222.573 347.252 255.275 376.733 296.047 403.327C336.82 429.921 361.976 422.019 379.663 410.19C397.35 398.361 415.536 372.107 420.702 366.449C425.867 360.791 437.768 340.348 466.587 336.401C476.843 334.996 478.919 340 471.356 350.769C463.793 361.539 455.33 387.944 453.446 413.945C451.562 439.946 451.542 479.554 459.151 495.343C466.759 511.133 476.178 525.685 501.714 560.307C527.249 594.928 445.477 641.279 440.105 634.589C434.733 627.899 412.207 600.786 404.645 588.95C397.083 577.115 356.164 527.768 328.006 502.912C299.848 478.055 243.96 431.106 196.928 372.547C181.405 353.188 167.036 325.997 176.256 318.496C185.386 311.057 198.13 321.688 202.405 326.152Z" fill="#FFC6A7"/>
<path d="M363.62 594.036C363.62 594.036 431.432 550.587 502.533 502.233C509.809 515.593 599.814 665.685 704.338 691.467C608.121 704.647 452.62 725.948 452.62 725.948C452.62 725.948 401.17 662.161 363.62 594.036Z" fill="#2B499E"/>
</g>
<path d="M335.627 178.573L191.705 178.573L175 204.274L188.721 222.192C191.547 225.882 195.93 228.046 200.578 228.046L200.899 228.046C204.615 228.046 208.181 226.585 210.828 223.978L213.011 221.828C217.34 217.565 224.298 217.591 228.595 221.888C232.934 226.227 239.977 226.205 244.288 221.838L245.06 221.057C249.532 216.527 256.836 216.504 261.336 221.005C265.817 225.485 273.094 225.472 277.574 220.992C282.069 216.497 289.369 216.484 293.864 220.979L301.574 228.689L335.627 228.689L335.627 178.573Z" fill="#FCFCFF"/>
<path d="M187.85 184.57L183.567 190.995L319.993 190.995L319.993 184.57L187.85 184.57Z" fill="#629ADE"/>
<path d="M180.568 195.707L177.784 199.99L319.993 199.99L319.993 195.707L180.568 195.707Z" fill="#B2CFF2"/>
<path d="M314.639 178.573C311.854 186.498 310.355 195.278 310.355 204.059C310.355 212.626 311.64 220.765 314.21 228.475L335.627 228.475L335.627 178.359L314.639 178.359L314.639 178.573Z" fill="#629ADE"/>
<path d="M483.357 204.437C483.357 160.532 447.805 124.98 403.9 124.98C359.996 124.98 324.444 160.532 324.444 204.437C324.444 248.341 359.996 283.894 403.9 283.894C447.805 283.679 483.357 248.127 483.357 204.437ZM415.037 204.437C415.037 191.587 425.532 181.092 438.382 181.092C451.232 181.092 461.726 191.587 461.726 204.437C461.726 217.287 451.232 227.781 438.382 227.781C425.532 227.781 415.037 217.287 415.037 204.437Z" fill="#FCFCFF"/>
<path fill-rule="evenodd" clip-rule="evenodd" d="M438.382 181.092C425.532 181.092 415.037 191.587 415.037 204.437C415.037 217.287 425.532 227.781 438.382 227.781C451.232 227.781 461.726 217.287 461.726 204.437C461.726 191.587 451.232 181.092 438.382 181.092ZM335.218 204.247C335.218 242.284 366.053 273.119 404.09 273.119C442.127 273.119 472.962 242.284 472.962 204.247C472.962 166.211 442.127 135.376 404.09 135.376C366.053 135.376 335.218 166.211 335.218 204.247Z" fill="#CCE3FF"/>
<path d="M471.411 204.274C471.411 186.069 456.633 171.077 438.214 171.077C420.01 171.077 405.018 185.855 405.018 204.274C405.018 222.478 419.796 237.47 438.214 237.47C456.633 237.256 471.411 222.478 471.411 204.274ZM414.87 204.274C414.87 191.423 425.364 180.929 438.214 180.929C451.065 180.929 461.559 191.423 461.559 204.274C461.559 217.124 451.065 227.618 438.214 227.618C425.364 227.618 414.87 217.124 414.87 204.274Z" fill="#629ADE"/>
<path d="M412.134 77.9249L416.085 26.1554C416.23 24.2497 417.927 22.9417 419.674 23.075C421.58 23.2205 422.888 24.9176 422.754 26.6644L418.803 78.434C418.658 80.3396 416.961 81.6476 415.214 81.5143C413.296 81.5277 411.988 79.8306 412.134 77.9249Z" fill="white"/>
<path d="M502.611 120.928L541.936 87.0326C543.303 85.8591 545.526 86.0288 546.7 87.3962C547.873 88.7636 547.703 90.9868 546.336 92.1602L506.853 126.044C505.486 127.217 503.263 127.048 502.089 125.68C501.074 124.325 501.244 122.102 502.611 120.928Z" fill="white"/>
<path d="M317.719 111.61L283.824 72.2856C282.65 70.9182 282.82 68.695 284.187 67.5215C285.555 66.348 287.778 66.5177 288.951 67.8851L322.835 107.368C324.008 108.735 323.839 110.959 322.471 112.132C321.104 113.306 318.881 113.136 317.719 111.61Z" fill="white"/>
<path d="M390.708 318.546L384.2 370.057C383.96 371.953 382.2 373.175 380.462 372.956C378.566 372.716 377.344 370.956 377.563 369.218L384.072 317.708C384.311 315.812 386.071 314.589 387.809 314.809C389.725 314.89 390.948 316.65 390.708 318.546Z" fill="white"/>
<path d="M302.469 271.118L261.516 303.026C260.092 304.13 257.88 303.851 256.776 302.427C255.671 301.003 255.951 298.791 257.375 297.687L298.486 265.799C299.91 264.694 302.122 264.974 303.226 266.397C304.173 267.801 303.893 270.013 302.469 271.118Z" fill="white"/>
<path d="M486.674 289.575L518.582 330.529C519.686 331.953 519.407 334.165 517.983 335.269C516.559 336.373 514.347 336.094 513.243 334.67L481.354 293.559C480.25 292.135 480.53 289.923 481.953 288.818C483.377 287.714 485.589 287.994 486.674 289.575Z" fill="white"/>
<path d="M531.037 204.653L582.845 208.008C584.643 208.128 586.111 209.806 585.991 211.604C585.87 213.402 584.192 214.87 582.394 214.75L530.481 211.275C528.683 211.155 527.216 209.476 527.336 207.679C527.456 205.881 529.135 204.413 531.037 204.653Z" fill="white"/>
</g>
<defs>
<clipPath id="clip0">
<rect width="717" height="587" fill="white"/>
</clipPath>
</defs>
</svg>
