<svg width="362" height="84" viewBox="0 0 362 84" fill="none" xmlns="http://www.w3.org/2000/svg">
<path d="M38.6992 39.0234H40.9062C42.3255 39.0234 43.4193 38.5872 44.1875 37.7148C44.9557 36.8424 45.3398 35.651 45.3398 34.1406C45.3398 30.8073 44.0508 29.1406 41.4727 29.1406C40.2357 29.1406 39.2656 29.5898 38.5625 30.4883C37.8594 31.3867 37.5078 32.5651 37.5078 34.0234H34.0703C34.0703 31.7448 34.7604 29.8698 36.1406 28.3984C37.5339 26.9141 39.3112 26.1719 41.4727 26.1719C43.7122 26.1719 45.4896 26.875 46.8047 28.2812C48.1198 29.6745 48.7773 31.6536 48.7773 34.2188C48.7773 35.5339 48.4323 36.7643 47.7422 37.9102C47.0651 39.043 46.1797 39.8763 45.0859 40.4102C47.7682 41.3997 49.1094 43.6198 49.1094 47.0703C49.1094 49.6094 48.3997 51.6341 46.9805 53.1445C45.5742 54.6419 43.7318 55.3906 41.4531 55.3906C39.2005 55.3906 37.3776 54.681 35.9844 53.2617C34.6042 51.8294 33.9141 49.9089 33.9141 47.5H37.3711C37.3711 49.0104 37.7357 50.2148 38.4648 51.1133C39.194 51.9987 40.1901 52.4414 41.4531 52.4414C42.7422 52.4414 43.7643 52.0052 44.5195 51.1328C45.2878 50.2604 45.6719 48.9323 45.6719 47.1484C45.6719 43.6979 44.0378 41.9727 40.7695 41.9727H38.6992V39.0234Z" fill="#3AA5F2"/>
<circle cx="42" cy="42" r="41" stroke="#3AA5F2" stroke-width="2"/>
<line opacity="0.7" x1="107" y1="39.5" x2="362" y2="39.5" stroke="#3AA5F2"/>
</svg>
