<svg width="340" height="84" viewBox="0 0 340 84" fill="none" xmlns="http://www.w3.org/2000/svg">
<path d="M50.1836 55H34.2852V52.4023L42.3906 41.6602C43.6146 40.0065 44.4609 38.6523 44.9297 37.5977C45.4115 36.5299 45.6523 35.4036 45.6523 34.2188C45.6523 32.7083 45.3008 31.4844 44.5977 30.5469C43.8945 29.6094 42.9701 29.1406 41.8242 29.1406C40.3789 29.1406 39.2591 29.6419 38.4648 30.6445C37.6836 31.6341 37.293 33.0664 37.293 34.9414H33.8359C33.8359 32.3242 34.5521 30.2083 35.9844 28.5938C37.4167 26.9792 39.3633 26.1719 41.8242 26.1719C44.0898 26.1719 45.8737 26.8685 47.1758 28.2617C48.4779 29.6419 49.1289 31.4844 49.1289 33.7891C49.1289 36.6016 47.6641 39.9284 44.7344 43.7695L38.4062 52.0508H50.1836V55Z" fill="#3AA5F2"/>
<circle cx="42" cy="42" r="41" stroke="#3AA5F2" stroke-width="2"/>
<line opacity="0.7" x1="113" y1="39.5" x2="340" y2="39.5" stroke="#3AA5F2"/>
</svg>
