<svg width="119" height="40" viewBox="0 0 119 40" fill="none" xmlns="http://www.w3.org/2000/svg">
<rect x="0.5" y="0.5" width="118" height="39" rx="5.5" stroke="white"/>
<path d="M24.6314 20.3008C24.6421 19.4661 24.8626 18.6478 25.2723 17.9218C25.6821 17.1959 26.2678 16.5859 26.9749 16.1488C26.5257 15.5036 25.933 14.9727 25.2441 14.5981C24.5551 14.2236 23.7887 14.0157 23.0059 13.9911C21.336 13.8148 19.7171 14.9959 18.8661 14.9959C17.9987 14.9959 16.6885 14.0086 15.2776 14.0378C14.365 14.0674 13.4757 14.3343 12.6961 14.8123C11.9166 15.2904 11.2735 15.9633 10.8295 16.7656C8.90626 20.114 10.3408 25.0351 12.1832 27.7417C13.1049 29.067 14.1822 30.5475 15.5918 30.495C16.9711 30.4374 17.4863 29.6105 19.1513 29.6105C20.8009 29.6105 21.2842 30.495 22.7224 30.4616C24.2025 30.4374 25.1351 29.1303 26.0245 27.7925C26.6868 26.8481 27.1964 25.8044 27.5345 24.7C26.6746 24.3342 25.9407 23.722 25.4245 22.9398C24.9082 22.1575 24.6324 21.2397 24.6314 20.3008V20.3008Z" fill="white"/>
<path d="M21.915 12.2108C22.722 11.2366 23.1196 9.98444 23.0233 8.72021C21.7903 8.85043 20.6514 9.44299 19.8335 10.3798C19.4336 10.8375 19.1273 11.3699 18.9322 11.9467C18.737 12.5235 18.6568 13.1332 18.6961 13.7412C19.3128 13.7476 19.9229 13.6132 20.4805 13.3481C21.038 13.083 21.5285 12.6941 21.915 12.2108Z" fill="white"/>
<path d="M42.0675 27.1396H37.3604L36.23 30.4961H34.2362L38.6947 18.0781H40.7662L45.2247 30.4961H43.1969L42.0675 27.1396ZM37.8479 25.5908H41.5791L39.7397 20.1436H39.6883L37.8479 25.5908Z" fill="white"/>
<path d="M54.8536 25.9699C54.8536 28.7834 53.3561 30.591 51.0962 30.591C50.5238 30.6211 49.9545 30.4885 49.4535 30.2084C48.9525 29.9282 48.54 29.5119 48.2634 29.007H48.2207V33.4914H46.3726V21.4426H48.1614V22.9484H48.1954C48.4848 22.446 48.9042 22.0318 49.409 21.7499C49.9138 21.4681 50.4851 21.3291 51.0622 21.3479C53.3473 21.3479 54.8536 23.1643 54.8536 25.9699ZM52.954 25.9699C52.954 24.1369 52.012 22.9318 50.5747 22.9318C49.1627 22.9318 48.2129 24.1623 48.2129 25.9699C48.2129 27.7941 49.1627 29.0158 50.5747 29.0158C52.012 29.0158 52.954 27.8195 52.954 25.9699Z" fill="white"/>
<path d="M64.7631 25.9699C64.7631 28.7834 63.2656 30.591 61.0058 30.591C60.4333 30.6211 59.864 30.4885 59.363 30.2084C58.862 29.9282 58.4496 29.5119 58.173 29.007H58.1302V33.4914H56.2821V21.4426H58.0709V22.9484H58.1049C58.3943 22.446 58.8137 22.0318 59.3185 21.7499C59.8233 21.4681 60.3947 21.3291 60.9718 21.3479C63.2569 21.3479 64.7631 23.1643 64.7631 25.9699ZM62.8636 25.9699C62.8636 24.1369 61.9216 22.9318 60.4843 22.9318C59.0722 22.9318 58.1224 24.1623 58.1224 25.9699C58.1224 27.7941 59.0722 29.0158 60.4843 29.0158C61.9216 29.0158 62.8636 27.8195 62.8636 25.9699H62.8636Z" fill="white"/>
<path d="M71.3125 27.0362C71.4495 28.2676 72.6391 29.0761 74.2648 29.0761C75.8225 29.0761 76.9432 28.2676 76.9432 27.1572C76.9432 26.1933 76.2673 25.6162 74.6668 25.2207L73.0664 24.833C70.7988 24.2822 69.7461 23.2158 69.7461 21.4853C69.7461 19.3428 71.6029 17.8711 74.2395 17.8711C76.849 17.8711 78.6378 19.3428 78.6981 21.4853H76.8325C76.7208 20.2461 75.7021 19.498 74.2133 19.498C72.7245 19.498 71.7058 20.2549 71.7058 21.3564C71.7058 22.2344 72.3565 22.751 73.9482 23.1464L75.3087 23.4824C77.8425 24.0849 78.8952 25.1084 78.8952 26.9247C78.8952 29.248 77.0549 30.7031 74.1278 30.7031C71.3892 30.7031 69.5402 29.2822 69.4207 27.0361L71.3125 27.0362Z" fill="white"/>
<path d="M82.8837 19.2998V21.4424H84.5958V22.9141H82.8837V27.9052C82.8837 28.6806 83.2265 29.042 83.9791 29.042C84.1824 29.0384 84.3853 29.024 84.5871 28.999V30.4618C84.2487 30.5254 83.9047 30.5542 83.5606 30.5478C81.7377 30.5478 81.0269 29.8593 81.0269 28.1035V22.9141H79.7178V21.4424H81.0268V19.2998H82.8837Z" fill="white"/>
<path d="M85.5874 25.9697C85.5874 23.1211 87.2558 21.3311 89.8575 21.3311C92.4679 21.3311 94.1286 23.121 94.1286 25.9697C94.1286 28.8262 92.4767 30.6084 89.8575 30.6084C87.2393 30.6084 85.5874 28.8261 85.5874 25.9697ZM92.2455 25.9697C92.2455 24.0156 91.355 22.8623 89.8575 22.8623C88.36 22.8623 87.4704 24.0244 87.4704 25.9697C87.4704 27.9316 88.36 29.0761 89.8575 29.0761C91.355 29.0761 92.2455 27.9316 92.2455 25.9697H92.2455Z" fill="white"/>
<path d="M95.6523 21.4425H97.4149V22.9835H97.4577C97.5769 22.5022 97.8573 22.0769 98.2517 21.779C98.6461 21.4811 99.1304 21.3288 99.6233 21.3478C99.8363 21.347 100.049 21.3703 100.257 21.4171V23.1554C99.9876 23.0728 99.7072 23.0348 99.4261 23.0431C99.1577 23.0321 98.89 23.0797 98.6415 23.1826C98.3931 23.2855 98.1697 23.4412 97.9868 23.6391C97.8038 23.837 97.6656 24.0724 97.5816 24.329C97.4977 24.5857 97.47 24.8576 97.5004 25.1261V30.4962H95.6523L95.6523 21.4425Z" fill="white"/>
<path d="M108.777 27.8369C108.529 29.4804 106.937 30.6084 104.9 30.6084C102.281 30.6084 100.656 28.8437 100.656 26.0127C100.656 23.1728 102.29 21.3311 104.823 21.3311C107.314 21.3311 108.88 23.0517 108.88 25.7969V26.4336H102.521V26.5459C102.492 26.8791 102.533 27.2147 102.643 27.5306C102.752 27.8464 102.928 28.1352 103.157 28.3778C103.386 28.6203 103.664 28.8111 103.972 28.9374C104.28 29.0637 104.611 29.1226 104.943 29.1103C105.38 29.1515 105.818 29.0498 106.193 28.8203C106.567 28.5909 106.858 28.246 107.022 27.8369L108.777 27.8369ZM102.53 25.1348H107.031C107.048 24.8352 107.003 24.5353 106.898 24.2541C106.794 23.9729 106.634 23.7164 106.426 23.5006C106.219 23.2849 105.969 23.1145 105.693 23.0003C105.418 22.8861 105.121 22.8305 104.823 22.8369C104.522 22.8351 104.224 22.8932 103.945 23.008C103.667 23.1227 103.413 23.2918 103.2 23.5054C102.987 23.7191 102.818 23.973 102.703 24.2527C102.588 24.5323 102.529 24.8321 102.53 25.1348V25.1348Z" fill="white"/>
<path d="M36.5344 11.2534H37.3279C37.4644 11.2705 37.6031 11.259 37.735 11.2195C37.8669 11.1801 37.9893 11.1136 38.0944 11.0242C38.1995 10.9348 38.2851 10.8246 38.3457 10.7003C38.4063 10.576 38.4407 10.4405 38.4466 10.3022C38.4466 9.75193 38.0348 9.39646 37.3366 9.39646C37.1967 9.3768 37.0542 9.38553 36.9177 9.42213C36.7812 9.45874 36.6533 9.52249 36.5417 9.6096C36.4301 9.69672 36.337 9.80544 36.2678 9.92934C36.1987 10.0533 36.1549 10.1898 36.1392 10.331H35.268C35.283 10.0747 35.3503 9.82427 35.4657 9.59526C35.5812 9.36625 35.7422 9.16359 35.9389 8.99988C36.1356 8.83618 36.3637 8.71494 36.609 8.64372C36.8543 8.5725 37.1115 8.55282 37.3647 8.58591C38.533 8.58591 39.3556 9.24362 39.3556 10.1904C39.3584 10.5076 39.2528 10.8161 39.0567 11.0645C38.8605 11.3128 38.5855 11.486 38.2776 11.5551V11.6255C38.6426 11.6417 38.9863 11.8026 39.2336 12.073C39.4809 12.3434 39.6117 12.7012 39.5974 13.0683C39.5704 13.3322 39.4913 13.588 39.3647 13.8208C39.2381 14.0535 39.0666 14.2585 38.8602 14.4237C38.6538 14.5889 38.4166 14.711 38.1627 14.7829C37.9087 14.8548 37.6431 14.875 37.3813 14.8422C37.1189 14.8782 36.8521 14.8607 36.5966 14.7907C36.3411 14.7208 36.1023 14.5998 35.8943 14.435C35.6863 14.2703 35.5134 14.0651 35.386 13.8317C35.2585 13.5983 35.1791 13.3415 35.1525 13.0766H36.0372C36.0906 13.6474 36.6121 14.0156 37.3813 14.0156C38.1504 14.0156 38.6525 13.6021 38.6525 13.019C38.6525 12.4277 38.1795 12.0635 37.3531 12.0635H36.5344V11.2534Z" fill="white"/>
<path d="M40.6025 13.4243C40.6025 12.6138 41.2037 12.1465 42.268 12.0801L43.481 12.0098V11.6211C43.481 11.1455 43.1693 10.8769 42.5643 10.8769C42.0709 10.8769 41.73 11.0591 41.631 11.3774H40.7754C40.8657 10.604 41.5902 10.1079 42.606 10.1079C43.7287 10.1079 44.3618 10.6699 44.3618 11.6211V14.6977H43.5101V14.0649H43.4402C43.2983 14.2919 43.099 14.477 42.8627 14.6012C42.6264 14.7254 42.3615 14.7843 42.0952 14.7719C41.9072 14.7916 41.7172 14.7714 41.5375 14.7127C41.3577 14.654 41.1922 14.5581 41.0515 14.4311C40.9109 14.3042 40.7983 14.149 40.721 13.9756C40.6436 13.8021 40.6033 13.6144 40.6025 13.4243V13.4243ZM43.481 13.0395V12.6631L42.3875 12.7334C41.7708 12.7749 41.4911 12.9858 41.4911 13.3828C41.4911 13.7881 41.8407 14.0239 42.3215 14.0239C42.4623 14.0382 42.6046 14.0239 42.7399 13.9819C42.8751 13.9398 43.0006 13.8708 43.1088 13.7789C43.2169 13.6871 43.3057 13.5743 43.3696 13.4473C43.4336 13.3202 43.4714 13.1816 43.481 13.0395V13.0395Z" fill="white"/>
<path d="M46.7071 10.9429V14.6977H45.8234V10.1948H48.7718V10.9428L46.7071 10.9429Z" fill="white"/>
<path d="M54.1277 12.4443C54.1277 13.8749 53.408 14.7719 52.2776 14.7719C52.0001 14.791 51.723 14.7299 51.4789 14.5959C51.2347 14.4619 51.0337 14.2606 50.8996 14.0156H50.8296V16.1948H49.9459V10.1948H50.7966V10.939H50.8627C50.9992 10.6854 51.2029 10.4747 51.451 10.3302C51.6992 10.1857 51.9822 10.113 52.2689 10.1201C53.408 10.1201 54.1277 11.0131 54.1277 12.4443ZM53.2187 12.4443C53.2187 11.4931 52.771 10.9184 52.0222 10.9184C51.2784 10.9184 50.8131 11.5053 50.8131 12.4482C50.8131 13.3867 51.2783 13.9741 52.0183 13.9741C52.771 13.9741 53.2187 13.3994 53.2187 12.4443Z" fill="white"/>
<path d="M55.3047 16.3105V15.5454C55.4003 15.5576 55.4967 15.5632 55.5931 15.562C55.7814 15.576 55.9682 15.5196 56.1176 15.4037C56.2671 15.2877 56.3687 15.1203 56.403 14.9336L56.469 14.7143L54.8482 10.1948H55.8106L56.9333 13.7715H57.0032L58.122 10.1948H59.0591L57.3897 14.8838C57.0071 15.9795 56.5837 16.331 55.6708 16.331C55.597 16.331 55.3872 16.3227 55.3047 16.3105Z" fill="white"/>
<path d="M59.7477 13.42H60.6275C60.7139 13.817 61.084 14.024 61.6016 14.024C62.1901 14.024 62.5513 13.7633 62.5513 13.358C62.5513 12.9239 62.227 12.7169 61.6016 12.7169H60.9315V12.0265H61.5899C62.124 12.0265 62.396 11.8199 62.396 11.4435C62.396 11.1129 62.1328 10.8605 61.5899 10.8605C61.0956 10.8605 60.7343 11.0714 60.677 11.4269H59.8253C59.889 11.0184 60.1096 10.6514 60.4396 10.4048C60.7695 10.1581 61.1826 10.0516 61.5899 10.108C62.6543 10.108 63.2632 10.5919 63.2632 11.3527C63.2682 11.5645 63.2007 11.7717 63.072 11.9395C62.9433 12.1073 62.7612 12.2255 62.5562 12.2745V12.3449C62.8003 12.3765 63.0243 12.4972 63.1858 12.6839C63.3473 12.8707 63.4349 13.1106 63.4322 13.358C63.4322 14.214 62.7077 14.7804 61.6016 14.7804C60.6236 14.7804 59.8292 14.3297 59.7477 13.42Z" fill="white"/>
<path d="M64.7049 14.6977V10.1948H65.5808V13.292H65.6508L67.7144 10.1948H68.5904V14.6977H67.7144V11.584H67.6484L65.5808 14.6978L64.7049 14.6977Z" fill="white"/>
<path d="M73.416 10.9428H72.0059V14.6977H71.1212V10.9428H69.711V10.1948H73.416V10.9428Z" fill="white"/>
<path d="M78.1766 13.482C78.0561 13.8935 77.7958 14.2494 77.4409 14.4875C77.0861 14.7256 76.6594 14.8308 76.2352 14.7847C75.9402 14.7926 75.647 14.7357 75.376 14.6182C75.1051 14.5007 74.8628 14.3253 74.6659 14.1041C74.4691 13.883 74.3225 13.6214 74.2363 13.3376C74.1501 13.0538 74.1264 12.7545 74.1667 12.4605C74.1274 12.1656 74.1516 11.8657 74.2376 11.581C74.3236 11.2964 74.4694 11.0336 74.6652 10.8105C74.861 10.5874 75.1021 10.4093 75.3723 10.2881C75.6425 10.1669 75.9355 10.1054 76.2314 10.108C77.4773 10.108 78.23 10.964 78.23 12.378V12.6881H75.0679V12.7379C75.0539 12.9032 75.0745 13.0696 75.1282 13.2264C75.182 13.3832 75.2678 13.527 75.3801 13.6485C75.4924 13.77 75.6288 13.8665 75.7804 13.9318C75.932 13.9972 76.0955 14.0299 76.2605 14.0279C76.4717 14.0533 76.6857 14.0149 76.8753 13.9177C77.0648 13.8205 77.2213 13.6688 77.3249 13.482L78.1766 13.482ZM75.0679 12.0308H77.3287C77.3399 11.8798 77.3195 11.7281 77.2689 11.5854C77.2183 11.4427 77.1386 11.3123 77.0349 11.2024C76.9312 11.0926 76.8058 11.0058 76.6667 10.9475C76.5277 10.8893 76.378 10.861 76.2275 10.8643C76.0746 10.8623 75.9228 10.891 75.7812 10.9489C75.6395 11.0068 75.5108 11.0926 75.4027 11.2014C75.2946 11.3101 75.2093 11.4395 75.1518 11.582C75.0943 11.7245 75.0658 11.8771 75.0679 12.0308H75.0679Z" fill="white"/>
<path d="M81.9232 10.1948H83.9422C84.8182 10.1948 85.3319 10.6411 85.3319 11.3398C85.3333 11.5615 85.2589 11.777 85.1212 11.9501C84.9835 12.1233 84.7908 12.2436 84.5754 12.291V12.3613C84.8369 12.3779 85.0821 12.4949 85.2603 12.6881C85.4385 12.8813 85.5361 13.1359 85.533 13.3994C85.533 14.185 84.9454 14.6977 83.9626 14.6977H81.9232V10.1948ZM82.7992 10.877V12.0429H83.6752C84.2093 12.0429 84.4647 11.8364 84.4647 11.4556C84.4647 11.1045 84.2423 10.8769 83.7733 10.8769L82.7992 10.877ZM82.7992 12.6963V14.0156H83.8471C84.3696 14.0156 84.6493 13.7837 84.6493 13.3579C84.6493 12.9072 84.3327 12.6963 83.7364 12.6963L82.7992 12.6963Z" fill="white"/>
</svg>
