<svg width="61" height="61" viewBox="0 0 61 61" fill="none" xmlns="http://www.w3.org/2000/svg">
<g clip-path="url(#clip0)">
<path d="M43.841 61C41.8719 61 39.9195 60.6519 38.0103 59.9583C29.5996 56.9029 21.7926 51.9266 15.4332 45.5673C9.07369 39.2079 4.09739 31.4008 1.04216 22.9901C0.0603615 20.2871 -0.229377 17.497 0.181284 14.6968C0.565974 12.0739 1.58196 9.52764 3.11953 7.33316C4.66389 5.12903 6.72279 3.29577 9.07358 2.03162C11.5804 0.683601 14.3166 0 17.2064 0C18.1051 0 18.8819 0.627964 19.0703 1.50671L22.0622 15.4693C22.1977 16.1016 22.0034 16.7594 21.5463 17.2167L16.4338 22.329C21.2566 31.9178 29.0824 39.7436 38.6712 44.5664L43.7835 39.4539C44.2407 38.9968 44.8986 38.8027 45.5309 38.938L59.4935 41.9299C60.3723 42.1183 61.0002 42.8951 61.0002 43.7938C61.0002 46.6836 60.3166 49.4199 58.9685 51.9267C57.7043 54.2775 55.871 56.3364 53.6669 57.8808C51.4726 59.4184 48.9263 60.4343 46.3033 60.819C45.4813 60.9397 44.6595 60.9999 43.841 61ZM15.6833 3.89574C11.8716 4.31653 8.48838 6.31443 6.24172 9.52097C3.71533 13.1266 3.1262 17.5614 4.6254 21.6885C10.4993 37.8584 23.1421 50.5012 39.3119 56.375C43.4389 57.8742 47.8738 57.2852 51.4795 54.7587C54.686 52.5121 56.6839 49.1288 57.1047 45.3171L45.7462 42.8831L40.407 48.2223C39.8388 48.7905 38.9756 48.9414 38.2486 48.5998C26.9081 43.272 17.7284 34.0924 12.4007 22.7518C12.0591 22.0247 12.2099 21.1615 12.7781 20.5934L18.1173 15.2543L15.6833 3.89574Z" fill="white"/>
<path d="M59.0937 32.4049C58.041 32.4049 57.1875 31.5514 57.1875 30.4987C57.1875 15.7838 45.2161 3.81234 30.5011 3.81234C29.4485 3.81234 28.595 2.95886 28.595 1.90617C28.595 0.853488 29.4485 0 30.5011 0C38.6478 0 46.3066 3.17235 52.0671 8.9328C57.8275 14.6932 60.9999 22.3521 60.9999 30.4987C60.9999 31.5514 60.1465 32.4049 59.0937 32.4049Z" fill="white"/>
<path d="M51.469 32.405C50.4163 32.405 49.5629 31.5515 49.5629 30.4988C49.5629 19.9882 41.0118 11.4371 30.5011 11.4371C29.4485 11.4371 28.595 10.5836 28.595 9.53093C28.595 8.47824 29.4485 7.62476 30.5011 7.62476C43.1139 7.62476 53.3752 17.886 53.3752 30.4988C53.3752 31.5515 52.5218 32.405 51.469 32.405Z" fill="white"/>
<path d="M43.8443 32.4051C42.7917 32.4051 41.9382 31.5516 41.9382 30.4989C41.9382 24.1924 36.8076 19.0619 30.5011 19.0619C29.4485 19.0619 28.595 18.2084 28.595 17.1557C28.595 16.103 29.4485 15.2495 30.5011 15.2495C38.9097 15.2495 45.7505 22.0903 45.7505 30.4989C45.7505 31.5516 44.8971 32.4051 43.8443 32.4051Z" fill="white"/>
</g>
<defs>
<clipPath id="clip0">
<rect width="61" height="61" fill="white"/>
</clipPath>
</defs>
</svg>
