<svg width="35" height="36" viewBox="0 0 35 36" fill="none" xmlns="http://www.w3.org/2000/svg">
<mask id="mask0" mask-type="alpha" maskUnits="userSpaceOnUse" x="0" y="0" width="35" height="36">
<rect width="35" height="36" fill="#C4C4C4"/>
</mask>
<g mask="url(#mask0)">
<path d="M12.7208 2.9051C9.34054 2.9051 5.53772 6.22515 5.53772 10.3752C5.53772 10.7902 5.96026 11.2052 6.38279 11.2052C6.80533 11.2052 7.22786 10.7902 7.22786 10.3752C7.22786 7.05516 10.1856 4.15012 12.7208 4.15012C13.1434 4.15012 13.5659 4.15012 13.5659 3.73511C13.5659 3.3201 13.1434 2.9051 12.7208 2.9051Z" fill="#1C354B"/>
<path d="M33.0003 13.6952C33.0003 7.47011 28.775 2.49004 23.7045 2.49004C22.4369 2.49004 21.1693 2.90504 19.9017 3.32005C17.789 1.24502 15.2538 0 12.2961 0C7.22566 0 3.00031 4.98007 3.00031 11.2052C3.00031 16.6002 6.80312 21.1653 11.0285 21.9953L9.76087 24.9004C9.76087 24.9004 9.60542 25.4484 9.76087 25.7304C9.94127 26.0576 10.1834 26.1454 10.6059 26.1454H12.2961C13.1412 27.8054 12.7186 29.4654 11.8735 31.1255C11.0285 32.7855 10.1834 34.8605 11.8735 36.9356C13.1412 38.5956 12.7186 39.4256 11.8735 40.6706C11.451 41.9156 10.6059 43.1606 11.8735 44.8207C11.8735 45.2357 12.2961 45.2357 12.7186 45.2357H13.1412C13.5637 44.8207 13.5637 44.4057 13.1412 43.9907C12.7186 43.1606 12.7186 42.7456 13.5637 41.5006C14.4088 40.2556 15.2538 38.1806 13.1412 36.1055C12.2961 34.8605 13.1412 31.9555 13.1412 31.9555C13.1412 31.9555 14.262 28.2204 13.4169 26.1454H14.5745C14.9971 26.1454 15.0983 26.1852 15.2538 25.9515C15.4376 25.6754 15.2538 25.3154 15.2538 25.3154L13.5637 21.9953C14.4088 21.9953 15.2538 21.5803 16.0989 21.1653C17.789 23.2403 19.9017 24.4854 22.4369 24.9004L20.7468 27.8054C20.7468 27.8054 20.6494 28.1947 20.7468 28.4075C20.8873 28.7144 21.0778 28.8 21.5003 28.8H23.0003C23.8454 30.46 22.8595 33.6155 22.8595 33.6155C22.8595 33.6155 21.1693 37.3506 22.8595 39.4256C24.1271 41.0856 23.7045 41.9156 22.8595 43.1606C22.4369 44.4057 21.5919 45.6507 22.8595 47.3107C22.8595 47.7257 23.282 47.7257 23.7045 47.7257H24.1271C24.5496 47.3107 24.5496 46.8957 24.1271 46.4807C23.7045 45.6507 23.7045 45.2357 24.5496 43.9907C24.9721 42.7456 25.8172 40.6706 24.1271 38.1806C23.282 36.9356 24.1271 34.0305 24.1271 34.0305C24.1271 34.0305 24.9721 30.875 24.1271 28.8H25.5003C25.9228 28.8 26.0901 28.5607 26.2397 28.2204C26.3148 28.0498 26.0003 27.2571 26.0003 27.2571L24.9721 24.9004C29.1975 24.0704 33.0003 19.5053 33.0003 13.6952ZM11.8735 24.4854L12.7186 23.2403L13.5637 24.4854H11.8735ZM12.2961 20.7503C8.07073 20.7503 4.26791 16.6002 4.26791 11.2052C4.26791 5.81009 7.64819 1.66002 12.2961 1.66002C14.4088 1.66002 16.5214 2.90504 18.2116 4.56507C15.6764 6.6401 13.9862 9.96015 13.9862 13.6952C13.9862 15.7702 14.4088 17.8453 15.6764 19.5053C14.4088 20.3353 13.5637 20.7503 12.2961 20.7503ZM22.8595 27.3904L23.7045 26.1454L24.1271 27.3904H22.8595ZM23.7045 23.2403C19.4792 23.2403 15.6764 19.0903 15.6764 13.6952C15.6764 8.71513 19.0566 4.15006 23.7045 4.15006C27.9299 4.15006 31.7327 8.30012 31.7327 13.6952C31.3102 19.0903 27.9299 23.2403 23.7045 23.2403Z" fill="#1C354B"/>
<path d="M24.1264 5.39504C20.7461 5.39504 16.9433 8.71509 16.9433 12.8652C16.9433 13.2802 17.3658 13.6952 17.7884 13.6952C18.2109 13.6952 18.6334 13.2802 18.6334 12.8652C18.6334 9.5451 22.0137 7.05507 24.1264 7.05507C24.5489 7.05507 24.9715 6.64006 24.9715 6.22505C24.9715 5.81005 24.5489 5.39504 24.1264 5.39504Z" fill="#1C354B"/>
</g>
</svg>
