<svg width="34" height="34" viewBox="0 0 34 34" fill="none" xmlns="http://www.w3.org/2000/svg">
<path d="M2.66658 34C1.95962 33.9991 1.28186 33.7179 0.781966 33.218C0.282072 32.7182 0.000856917 32.0404 0 31.3335V5.8901C0 4.42081 1.19608 3.22515 2.66658 3.22515H7.52534V0.874645C7.52534 0.392169 7.91755 0 8.39962 0C8.8817 0 9.2739 0.392179 9.2739 0.87425V3.22515H16.1257V0.874645C16.1257 0.392169 16.5179 0 17 0C17.4821 0 17.8743 0.392179 17.8743 0.87425V3.22515H24.7257V0.874645C24.7257 0.392169 25.1183 0 25.6 0C26.0825 0 26.4747 0.392179 26.4747 0.87425V3.22515H31.3346C32.0413 3.2259 32.7188 3.50692 33.2185 4.00661C33.7182 4.5063 33.9992 5.18383 34 5.89049V31.3335C34 32.8036 32.8043 34 31.3346 34H2.66658ZM2.66658 4.97375C2.42342 4.97396 2.19026 5.07058 2.01825 5.24244C1.84624 5.4143 1.74941 5.64734 1.74898 5.89049V31.3335C1.7493 31.5767 1.84608 31.8099 2.01809 31.9819C2.1901 32.1539 2.42331 32.2507 2.66658 32.251H31.3346C31.5777 32.2505 31.8107 32.1536 31.9825 31.9816C32.1542 31.8096 32.2508 31.5766 32.251 31.3335V5.8901C32.2507 5.64716 32.1541 5.41422 31.9823 5.24244C31.8105 5.07065 31.5776 4.97407 31.3346 4.97375H26.4747V7.32455C26.4747 7.80662 26.0824 8.1989 25.6004 8.1989C25.3686 8.19869 25.1463 8.10648 24.9824 7.94256C24.8185 7.77865 24.7263 7.55636 24.7261 7.32455V4.97375H17.8743V7.32455C17.8743 7.80662 17.4821 8.1989 17 8.1989C16.7682 8.19869 16.5459 8.10648 16.382 7.94256C16.2181 7.77865 16.1259 7.55636 16.1257 7.32455V4.97375H9.27431V7.32455C9.27431 7.80662 8.88169 8.1989 8.40002 8.1989C8.16817 8.19869 7.94589 8.10647 7.78191 7.94256C7.61793 7.77866 7.52566 7.5564 7.52534 7.32455V4.97375H2.66658ZM7.52534 15.7241V12.9002H11.424V15.7241H7.52534ZM7.52534 21.0994V18.2754H11.424V21.0994H7.52534ZM7.52534 26.4747V23.6506H11.424V26.4747H7.52534ZM15.0507 26.4747V23.6506H18.9493V26.4747H15.0507ZM15.0507 21.0994V18.2754H18.9493V21.0994H15.0507ZM15.0507 15.7241V12.9002H18.9493V15.7241H15.0507ZM22.576 26.4747V23.6506H26.4747V26.4747H22.576ZM22.576 21.0994V18.2754H26.4747V21.0994H22.576Z" fill="white"/>
<path d="M22.6676 13.8518L24.66 15.0384L27.075 11.9629" stroke="white" stroke-width="1.25"/>
</svg>
