<svg width="37" height="33" viewBox="0 0 37 33" fill="none" xmlns="http://www.w3.org/2000/svg">
<path d="M37.0006 29.9069H23.6607V1H20.4858" stroke="#1C354B" stroke-width="1.5" stroke-miterlimit="10"/>
<path d="M23.9088 29.0354H20.9206" stroke="#1C354B" stroke-width="1.5" stroke-miterlimit="10"/>
<path d="M1 22.063V14.0947H10.5173L14.3242 18.0789H23.9091" stroke="#1C354B" stroke-width="1.5" stroke-miterlimit="10"/>
<path d="M7.97233 28.5373C7.97233 30.4547 6.40356 32.0235 4.48617 32.0235C2.56877 32.0235 1 30.4547 1 28.5373C1 26.6199 2.56877 25.0512 4.48617 25.0512C6.40356 25.0512 7.97233 26.6199 7.97233 28.5373Z" stroke="#1C354B" stroke-width="1.5" stroke-miterlimit="10"/>
<path d="M20.9209 28.5373C20.9209 30.4547 19.3522 32.0235 17.4348 32.0235C15.5174 32.0235 13.9486 30.4547 13.9486 28.5373C13.9486 26.6199 15.5174 25.0512 17.4348 25.0512C19.3522 25.0512 20.9209 26.6199 20.9209 28.5373Z" stroke="#1C354B" stroke-width="1.5" stroke-miterlimit="10"/>
<path d="M19.9474 18.2867C19.9474 18.2867 19.3202 9.68825 11.9121 4.39674C9.26639 4.39674 4.42311 4.39674 4.42311 4.39674V14.5" stroke="#1C354B" stroke-width="1.5" stroke-miterlimit="10"/>
<path d="M13.9483 29.0354L7.97204 29.0354" stroke="#1C354B" stroke-width="1.5" stroke-miterlimit="10"/>
<path d="M4.42478 4.39674H2.30818" stroke="#1C354B" stroke-width="1.5" stroke-miterlimit="10"/>
<path d="M25.9017 19.0749H34.8662V28.0393" stroke="#1C354B" stroke-width="1.5" stroke-miterlimit="10"/>
<path d="M25.9017 12.1026H32.8741V19.0749" stroke="#1C354B" stroke-width="1.5" stroke-miterlimit="10"/>
</svg>
