<svg width="64" height="64" viewBox="0 0 64 64" fill="none" xmlns="http://www.w3.org/2000/svg">
<path d="M60.4673 1.13102e-07H3.52979C1.58008 0.000976676 -0.000488168 1.58252 1.13102e-07 3.53271V60.4702C0.000976676 62.4199 1.58252 64.0005 3.53271 64H60.4673C62.418 64.0005 63.9995 62.4194 64 60.4688C64 60.4683 64 60.4678 64 60.4673V3.52979C63.999 1.58008 62.4175 -0.000488168 60.4673 1.13102e-07V1.13102e-07Z" fill="#4267B2"/>
<path d="M44.1875 64V39.25H52.5312L53.7812 29.5625H44.1875V23.3926C44.1875 20.5942 44.9644 18.6875 48.9771 18.6875H54.0625V10.0464C53.1777 9.92871 50.1421 9.66553 46.6099 9.66553C39.2349 9.66553 34.1875 14.1655 34.1875 22.4331V29.5625H25.875V39.25H34.1875V64H44.1875Z" fill="white"/>
</svg>
