<svg width="40" height="34" viewBox="0 0 40 34" fill="none" xmlns="http://www.w3.org/2000/svg">
<path d="M33.9731 20.3999L20.9444 27.119L15 15.5428L28.0287 8.82373L33.9731 20.3999Z" stroke="white" stroke-width="1.25" stroke-miterlimit="10" stroke-linejoin="round"/>
<path d="M23.7136 11.0906L25.1793 13.9239L20.8636 16.1906L19.3164 13.2763" stroke="white" stroke-width="1.25" stroke-miterlimit="10" stroke-linejoin="round"/>
<path d="M21.2695 24.2048L22.7353 23.3953" stroke="white" stroke-width="1.25" stroke-miterlimit="10" stroke-linejoin="round"/>
<path d="M23.4688 23.0715L24.9345 22.3429" stroke="white" stroke-width="1.25" stroke-miterlimit="10" stroke-linejoin="round"/>
<path d="M18.4059 27.784C15.0412 28.5316 13.6824 27.2026 12.1941 25.8736C14.3294 27.1195 16.1412 24.2954 14.9765 21.8035C14.2647 20.1422 12.7118 20.6406 11.5471 21.6373C10.2529 22.6341 8.95882 24.0462 7.47059 23.3817C4.3 21.8865 4.49412 18.564 1 19.893C1.58235 17.1519 4.3 16.0721 5.91765 16.7366C8.44118 17.8164 9.8 16.9858 9.8 14.9092C9.8 13.331 8.57059 11.7528 6.04706 12.4173C6.04706 12.4173 7.01765 9.09479 9.28235 9.09479C10.5118 9.09479 11.6765 10.3407 12.2588 11.0052C12.9059 11.7528 14.3941 13.0818 15.4941 11.9189C17.4353 9.92542 14.7176 6.60289 12.9706 7.43352C15.4941 5.44 19.4412 5.60613 23 7.43352" stroke="white" stroke-width="1.25" stroke-miterlimit="10" stroke-linejoin="round"/>
<path d="M23.6148 0.809509H17.1005" stroke="white" stroke-width="1.25" stroke-miterlimit="10" stroke-linejoin="round"/>
<path d="M15.4719 0.809509H13.8433" stroke="white" stroke-width="1.25" stroke-miterlimit="10" stroke-linejoin="round"/>
<path d="M12.214 0.809509H10.5854" stroke="white" stroke-width="1.25" stroke-miterlimit="10" stroke-linejoin="round"/>
<path d="M11.4 5.66669H7.32852" stroke="white" stroke-width="1.25" stroke-miterlimit="10" stroke-linejoin="round"/>
<path d="M5.69988 5.66669H4.07129" stroke="white" stroke-width="1.25" stroke-miterlimit="10" stroke-linejoin="round"/>
<path d="M28.0294 33.1904H18.2578" stroke="white" stroke-width="1.25" stroke-miterlimit="10" stroke-linejoin="round"/>
<path d="M16.6286 33.1904H15" stroke="white" stroke-width="1.25" stroke-miterlimit="10" stroke-linejoin="round"/>
</svg>
