<svg width="45" height="42" viewBox="0 0 45 42" fill="none" xmlns="http://www.w3.org/2000/svg">
<g filter="url(#filter0_d)">
<path d="M41 34L29.6154 31.0758L16.715 33.8105L4.06701 31.1697L5.60757 16.5325L4 1.66776L15.9042 7.26307L29.5665 0L40.9564 4.81094L39.3686 18.7448L41 34ZM28.8631 8.96886L38.9188 11.8001L39.6132 5.70778L29.5242 1.47592L28.8631 8.96886ZM16.5802 8.42023L17.1442 13.9743C17.792 14.062 18.416 14.2974 18.9767 14.6657C19.8282 13.1549 20.6361 9.83312 20.6447 9.79685L20.6862 9.62543L27.6485 8.62607L27.6576 8.62834L28.1896 2.24949L16.5802 8.42023ZM27.6119 9.16386L21.0612 10.1051C20.8811 10.8238 20.1661 13.5485 19.3739 14.9559C20.1592 15.5939 20.7518 16.4782 21.0744 17.4934L27.1252 16.4781L27.6119 9.16386ZM11.1625 6.52033C11.1218 7.39681 10.9088 8.57436 10.1676 9.56919C9.34527 10.6742 8.06251 11.2941 6.35215 11.4201L6.84757 16.7461L12.0074 17.6353C12.5604 15.7146 14.0689 14.269 15.9083 13.9874L15.3492 8.48731L11.1625 6.52033ZM6.29212 10.8946C7.88201 10.7835 9.06117 10.2267 9.80246 9.23188C10.5129 8.27696 10.677 7.10615 10.6922 6.29859L5.48998 3.85327L6.29212 10.8946ZM9.33869 30.8781L10.1717 24.9169L12.8145 22.5545C12.1431 21.615 11.7784 20.4534 11.7792 19.2572C11.7792 19.1647 11.7875 19.0749 11.7916 18.9842L6.70244 18.1064L5.42297 30.061L9.33869 30.8781ZM16.1098 24.556C14.943 24.4335 13.8991 23.8409 13.1274 22.9531L10.6124 25.2003L9.80534 30.9757L15.3928 32.1418L16.1098 24.556ZM16.5 24C18.6153 24 21 21.8538 21 19.5C21 17.1458 18.6794 14.9882 16.5641 14.9882C14.4496 14.9882 12 16.6458 12 19C11.2608 21.2428 14.3855 24.0005 16.5 24ZM20.5658 31.6C20.4922 30.4202 20.5596 28.0338 21.983 26.1199C23.2041 24.4798 25.1434 23.592 27.7382 23.4564L27.2448 17.8411L21.3297 18.8341C21.34 18.9738 21.349 19.1135 21.349 19.2558C21.349 21.8943 19.6156 24.083 17.3519 24.5034L16.6056 32.3953L16.7134 32.4175L20.5658 31.6ZM28.3097 29.9577L27.7842 23.9837C25.3169 24.1084 23.4849 24.9314 22.3493 26.4577C21.0657 28.1825 20.9823 30.3808 21.0398 31.4998L28.3097 29.9577ZM28.3434 16.2732L38.2573 17.6053L38.8596 12.3261L28.8186 9.50028L28.3434 16.2732ZM36.9284 22.691L32.8569 22.165L33.6401 30.7054L39.5709 32.228L38.1528 18.9743L28.5691 17.6208L28.4622 17.6389L29.5003 29.7056L33.1603 30.5812L32.3236 21.5615L36.8919 22.1664L36.9284 22.691Z" fill="#1C354B"/>
<circle cx="16.5" cy="19.5" r="2.5" fill="#1C354B"/>
<circle cx="16.5" cy="19.5" r="4.875" stroke="#1C354B" stroke-width="1.25"/>
</g>
<defs>
<filter id="filter0_d" x="0" y="0" width="45" height="42" filterUnits="userSpaceOnUse" color-interpolation-filters="sRGB">
<feFlood flood-opacity="0" result="BackgroundImageFix"/>
<feColorMatrix in="SourceAlpha" type="matrix" values="0 0 0 0 0 0 0 0 0 0 0 0 0 0 0 0 0 0 127 0"/>
<feOffset dy="4"/>
<feGaussianBlur stdDeviation="2"/>
<feColorMatrix type="matrix" values="0 0 0 0 0 0 0 0 0 0 0 0 0 0 0 0 0 0 0.25 0"/>
<feBlend mode="normal" in2="BackgroundImageFix" result="effect1_dropShadow"/>
<feBlend mode="normal" in="SourceGraphic" in2="effect1_dropShadow" result="shape"/>
</filter>
</defs>
</svg>
