<svg width="36" height="36" viewBox="0 0 36 36" fill="none" xmlns="http://www.w3.org/2000/svg">
<path d="M4.54737 29.8723C7.76842 33.7021 12.5053 36 18 36C23.3053 36 28.0421 33.7021 31.4526 29.8723C31.4526 29.8723 31.4526 29.8723 31.6421 29.6809C34.2947 26.617 36 22.4043 36 18C36 8.04255 28.0421 0 18.1895 0C7.9579 0 0 8.04255 0 18C0 22.5957 1.70526 26.8085 4.54737 29.8723C4.35789 29.8723 4.35789 29.8723 4.54737 29.8723ZM5.11579 7.65957C6.63158 8.42553 8.33684 9 10.2316 9.38298C9.66316 11.6809 9.28421 14.3617 9.28421 17.234H1.51579C1.70526 13.5957 3.03158 10.3404 5.11579 7.65957ZM34.1053 17.234H26.5263C26.5263 14.3617 26.1474 11.6809 25.5789 9.38298C27.4737 9 29.1789 8.42553 30.6947 7.65957C32.7789 10.3404 34.1053 13.5957 34.1053 17.234ZM30.5053 28.5319C28.9895 27.766 27.2842 27.1915 25.3895 26.8085C25.9579 24.5106 26.3368 21.8298 26.3368 18.9574H34.1053C34.1053 22.4043 32.7789 25.8511 30.5053 28.5319ZM17.0526 25.8511C15.1579 25.8511 13.2632 26.0426 11.5579 26.4255C10.9895 24.1277 10.6105 21.6383 10.6105 18.766H17.0526V25.8511ZM17.0526 27.383V34.4681C14.9684 33.8936 13.2632 31.4043 11.9368 27.766C13.6421 27.5745 15.3474 27.383 17.0526 27.383ZM18.5684 34.4681V27.1915C20.2737 27.1915 21.9789 27.383 23.6842 27.766C22.3579 31.4043 20.6526 34.0851 18.5684 34.4681ZM18.5684 25.8511V18.766H25.0105C25.0105 21.4468 24.6316 24.1277 24.0632 26.4255C22.1684 26.0426 20.4632 25.8511 18.5684 25.8511ZM25.0105 17.234H18.5684V10.1489C20.4632 10.1489 22.3579 9.95745 24.0632 9.57447C24.6316 11.8723 25.0105 14.5532 25.0105 17.234ZM18.5684 8.80851V1.53192C20.6526 2.10638 22.3579 4.59575 23.6842 8.23404C21.9789 8.61702 20.2737 8.61702 18.5684 8.80851ZM17.0526 1.53192V8.80851C15.3474 8.80851 13.6421 8.61702 11.9368 8.23404C13.2632 4.59575 15.1579 2.10638 17.0526 1.53192ZM17.0526 10.1489V17.234H10.6105C10.6105 14.5532 10.9895 11.8723 11.5579 9.57447C13.4526 9.95745 15.1579 10.1489 17.0526 10.1489ZM9.28421 18.766C9.28421 21.6383 9.66316 24.3191 10.2316 26.617C8.33684 27 6.63158 27.5745 5.11579 28.3404C3.03158 25.6596 1.70526 22.4043 1.51579 18.5745H9.28421V18.766ZM6.06316 29.4894C7.38947 28.9149 8.90526 28.3404 10.6105 27.9574C11.3684 30.4468 12.5053 32.5532 13.8316 33.8936C10.8 33.3192 8.14737 31.7872 6.06316 29.4894ZM21.7895 34.0851C23.1158 32.7447 24.2526 30.6383 25.0105 28.1489C26.7158 28.5319 28.2316 29.1064 29.5579 29.6809C27.4737 31.7872 24.8211 33.3191 21.7895 34.0851ZM29.5579 6.51064C28.2316 7.08511 26.7158 7.65957 25.0105 8.04255C24.2526 5.55319 23.1158 3.44681 21.7895 2.10638C24.8211 2.68085 27.4737 4.21277 29.5579 6.51064ZM13.8316 1.91489C12.5053 3.25532 11.3684 5.3617 10.6105 8.04255C8.90526 7.65957 7.38947 7.08511 6.06316 6.51064C8.14737 4.21277 10.8 2.68085 13.8316 1.91489Z" fill="#1C354B"/>
</svg>
