<svg width="64" height="64" viewBox="0 0 64 64" fill="none" xmlns="http://www.w3.org/2000/svg">
<path d="M64 0H0V64H64V0Z" fill="#50ABF1"/>
<path d="M8.47899 47.4416C12.7383 50.143 17.7909 51.7063 23.207 51.7063C38.4228 51.7063 50.7573 39.3705 50.7573 24.156C50.7573 23.7762 50.7493 23.3991 50.7347 23.0232C51.285 22.5901 54.6888 19.8619 55.5232 18.108C55.5232 18.108 52.759 19.2567 50.0537 19.5273C50.0484 19.5273 50.0418 19.5286 50.0364 19.5286C50.0364 19.5286 50.0418 19.5259 50.051 19.5193C50.3003 19.3528 53.7853 16.9804 54.2572 14.1538C54.2572 14.1538 52.302 15.1973 49.5646 16.1103C49.1114 16.2609 48.637 16.4089 48.1479 16.5461C46.3833 14.6629 43.8752 13.4874 41.0911 13.4874C35.7508 13.4874 31.4235 17.8135 31.4235 23.1497C31.4235 23.9027 31.5101 24.6356 31.674 25.3393C30.9277 25.3087 19.5634 24.6716 11.8323 15.3091C11.8323 15.3091 7.21171 21.617 14.5857 28.1033C14.5857 28.1033 12.3441 28.014 10.4102 26.8585C10.4102 26.8585 9.69992 34.5004 18.0508 36.4542C18.0508 36.4542 16.4076 37.0766 13.7861 36.6329C13.7861 36.6329 15.2521 42.8075 22.6715 43.3845C22.6715 43.3845 16.8046 48.6845 8.47632 47.4409L8.47899 47.4416Z" fill="white"/>
</svg>
