<svg width="496" height="786" viewBox="0 0 496 786" fill="none" xmlns="http://www.w3.org/2000/svg">
<path d="M236.405 36.6813C219.293 59.408 218.202 99.5298 215.106 136.171C212.172 171.189 178.728 196.544 173.106 230.866C146.214 394.939 22.6435 452.027 1.70091 618.535C-1.64012 645.088 -0.580771 673.961 9.60531 696.687C63.7952 817.51 176.738 651.35 240.544 646.248C256.353 644.972 274.362 651.234 282.022 670.946C303.046 724.632 309.076 805.451 368.889 780.406C440.273 750.606 477.595 627 489.247 532.498C501.552 432.663 494.87 325.175 469.935 230.209C449.481 152.289 404.262 45.9667 346.975 13.0361C306.15 -10.6183 265.415 -1.69912 236.405 36.6813Z" fill="#4E87FE"/>
</svg>
