<svg width="525" height="330" viewBox="0 0 525 330" fill="none" xmlns="http://www.w3.org/2000/svg">
<path d="M97.7729 134.802C109.739 123.585 125.6 118.743 141.066 115.065C156.531 111.387 172.449 108.384 186.165 99.8026C207.388 86.5627 220.144 62.167 234.763 40.836C239.674 33.6644 245.149 26.4928 252.6 22.6311C266.146 15.6434 282.346 21.3439 295.384 29.3124C308.423 37.2809 320.841 47.7012 335.573 50.6434C373.842 58.1828 405.789 13.4368 444.623 12.0883C455.291 11.7205 465.903 14.7853 475.78 19.1986C498.189 29.1898 518.847 48.4367 523.814 74.181C529.346 102.867 514.557 131.186 499.148 155.214C473.014 196.037 441.406 235.634 398.734 253.594C384.736 259.478 369.947 262.85 355.102 265.547C325.582 270.941 291.659 272.596 269.589 250.652C259.994 241.089 253.559 227.85 242.722 220.004C225.563 207.561 202.59 212.219 183.06 219.329C163.53 226.44 143.211 235.757 123.003 231.282C83.9441 222.578 66.3899 164.286 97.7729 134.802Z" fill="#DBB7F8"/>
<path d="M252.631 146.144C244.936 154.4 234.414 160.18 222.007 161.673C210.15 163.089 198.057 162.617 186.435 165.33C130.879 178.303 112.78 249.344 56.3992 259.447C47.4081 261.059 37.6318 260.548 29.9364 255.634C-10.9747 229.49 45.2879 175.001 47.0155 144.218C47.4474 136.591 45.3272 127.903 38.6526 124.207C20.4743 114.064 -6.89149 111.155 1.58916 82.2985C11.6795 47.8594 53.533 29.8535 85.5316 24.2316C119.336 18.2952 155.732 21.5189 187.888 33.549C214.272 43.4169 251.336 63.7029 262.486 91.3407C270.496 111.037 265.627 132.149 252.631 146.144Z" fill="#DEFBFD"/>
<path d="M308.949 101.104H115.874C107.24 101.104 100.176 95.939 100.176 89.626V11.4782C100.176 5.16521 107.24 0 115.874 0H308.949C317.583 0 324.646 5.16521 324.646 11.4782V89.626C324.646 95.939 317.583 101.104 308.949 101.104Z" fill="#CCE3FF"/>
<path d="M147.946 85.3358C167.156 85.3358 182.729 69.7627 182.729 50.5522C182.729 31.3418 167.156 15.7687 147.946 15.7687C128.735 15.7687 113.162 31.3418 113.162 50.5522C113.162 69.7627 128.735 85.3358 147.946 85.3358Z" fill="#B2CFF2"/>
<rect x="192.005" y="15.7686" width="116.873" height="13.9134" rx="6.95671" fill="#B2CFF2"/>
<rect x="192.005" y="43.5955" width="116.873" height="13.9134" rx="6.95671" fill="#B2CFF2"/>
<rect x="192.005" y="71.4222" width="116.873" height="13.9134" rx="6.95671" fill="#B2CFF2"/>
<path d="M145.299 30.4065C146.132 27.8428 149.759 27.8428 150.592 30.4065L153.881 40.528C154.254 41.6745 155.322 42.4508 156.527 42.4508H167.17C169.865 42.4508 170.986 45.9002 168.805 47.4847L160.196 53.7401C159.22 54.4487 158.812 55.7047 159.185 56.8512L162.473 66.9726C163.306 69.5363 160.372 71.6682 158.191 70.0838L149.581 63.8284C148.606 63.1198 147.286 63.1198 146.31 63.8284L137.7 70.0838C135.52 71.6682 132.585 69.5363 133.418 66.9726L136.707 56.8512C137.08 55.7047 136.671 54.4487 135.696 53.7401L127.086 47.4847C124.905 45.9002 126.026 42.4508 128.722 42.4508H139.364C140.57 42.4508 141.638 41.6745 142.011 40.528L145.299 30.4065Z" fill="white"/>
<path d="M257.871 189.55H28.2259C21.8842 189.55 16.6956 184.363 16.6956 178.022V104.818C16.6956 98.4778 21.8842 93.2902 28.2259 93.2902H257.871C264.213 93.2902 269.401 98.4778 269.401 104.818V178.022C269.401 184.363 264.213 189.55 257.871 189.55Z" fill="#FCFDFF"/>
<path d="M65.3198 175.93C84.2741 175.93 99.6396 160.564 99.6396 141.61C99.6396 122.656 84.2741 107.29 65.3198 107.29C46.3655 107.29 31 122.656 31 141.61C31 160.564 46.3655 175.93 65.3198 175.93Z" fill="#CCE3FF"/>
<rect x="58" y="124.506" width="14.3333" height="38.7843" rx="0.843137" fill="white"/>
<rect x="62.2157" y="120.29" width="5.90196" height="5.05882" rx="0.843137" fill="white"/>
<rect x="109.452" y="106.29" width="145.627" height="13.9134" rx="6.95671" fill="#CCE3FF"/>
<rect x="109.452" y="134.117" width="145.627" height="13.9134" rx="6.95671" fill="#CCE3FF"/>
<rect x="109.452" y="161.944" width="145.627" height="13.9134" rx="6.95671" fill="#CCE3FF"/>
<path d="M227.594 140.062H490.338C500.219 140.062 508.304 134.882 508.304 128.551V44.9033C508.304 38.5722 500.219 33.3922 490.338 33.3922H227.594C217.713 33.3922 209.629 38.5722 209.629 44.9033V128.647C209.629 134.882 217.713 140.062 227.594 140.062Z" fill="#FCFCFF"/>
<path d="M257.711 121.712C277.434 121.712 293.422 105.724 293.422 86.0012C293.422 66.2785 277.434 50.29 257.711 50.29C237.988 50.29 222 66.2785 222 86.0012C222 105.724 237.988 121.712 257.711 121.712Z" fill="#DCEBFD"/>
<path d="M252.991 102.631L251 65.29H255.375H263.6L261.609 102.631C261.587 103.178 261.128 103.615 260.559 103.615H261.15C261.456 103.615 261.697 103.856 261.697 104.162V106.743C261.697 107.049 261.456 107.29 261.15 107.29H255.2H253.428H253.297C253.078 107.29 252.903 107.115 252.903 106.896V106.765V104.184V104.053C252.903 103.834 253.078 103.659 253.297 103.659H253.428H254.019C253.472 103.615 253.012 103.178 252.991 102.631Z" fill="white"/>
<rect x="304.24" y="50.0881" width="188.295" height="14.841" rx="7.42049" fill="#DCEBFD"/>
<rect x="304.24" y="78.8425" width="188.295" height="14.841" rx="7.42049" fill="#DCEBFD"/>
<rect x="304.24" y="107.597" width="188.295" height="14.841" rx="7.42049" fill="#DCEBFD"/>
<path d="M327.591 216.951C329.993 196.873 330.954 176.603 330.473 156.332C330.377 152.49 330.281 148.359 332.203 145.188C333.26 143.555 334.701 142.306 336.142 141.154C340.562 137.791 345.367 134.909 350.363 132.7C351.901 132.027 353.822 131.355 355.264 132.315C356.705 133.276 356.897 136.35 355.264 136.734C358.915 133.66 363.527 133.852 367.274 130.874C368.331 130.01 369.196 128.953 370.253 128.28C371.31 127.608 372.751 127.32 373.808 127.992C374.865 128.761 375.153 130.778 374.096 131.547C375.249 131.355 376.499 132.123 376.883 133.468C377.267 134.717 376.787 136.254 375.826 136.927C376.787 135.966 378.42 137.311 378.42 138.752C378.42 140.193 377.363 141.346 376.306 142.21C375.249 143.075 374.096 143.843 373.52 145.188C374.096 145.092 374.096 146.053 373.712 146.629C371.022 151.049 366.602 153.642 362.47 156.236C357.185 159.406 351.901 162.577 346.616 165.747C349.595 180.061 350.94 194.856 350.651 209.554C350.555 213.589 350.267 217.816 348.249 221.082C344.886 226.462 338.16 227.038 332.299 227.134C331.146 227.134 329.993 227.134 329.032 226.654C326.246 225.021 327.207 220.41 327.591 216.951Z" fill="#FDB790"/>
<path d="M229.487 172.213C229.199 179.899 228.046 187.584 226.22 195.078C225.932 196.423 225.452 197.864 224.202 198.44C237.462 200.169 251.683 193.444 258.409 181.916C260.619 178.074 262.156 173.462 261.003 169.139C259.37 162.799 252.163 158.86 245.726 159.532C239.192 160.301 233.331 166.834 229.487 172.213Z" fill="#DF7842"/>
<path d="M245.822 102.084C235.925 107.367 228.622 116.398 221.608 125.236C219.782 127.542 217.957 129.847 216.708 132.537C215.074 136.092 214.209 140.607 210.558 141.952C209.789 142.24 208.925 142.432 208.444 143.009C208.156 143.393 208.06 143.969 208.06 144.45C208.06 146.659 209.405 148.869 211.423 149.925C210.558 156.554 211.423 163.567 213.825 169.908C214.402 171.349 215.074 172.886 216.131 174.135C217.284 175.576 218.918 176.536 220.647 177.401C223.914 178.938 227.565 179.61 231.121 179.514C238.423 179.13 245.245 175.191 250.338 169.908C255.43 164.624 258.985 157.995 262.156 151.367C264.655 146.083 267.057 140.607 268.018 134.843C268.882 129.751 268.786 124.467 267.633 119.472C266.384 113.996 263.79 108.712 259.562 105.062C255.334 101.315 250.722 99.3938 245.822 102.084Z" fill="#FDB790"/>
<path d="M242.459 99.5861C235.829 99.2979 228.911 99.1058 223.145 102.372C217.765 105.35 214.306 111.018 213.153 117.07C212 123.123 213.911 128.365 216.121 134.033C223.077 122.438 225.932 119.76 232.658 113.324C237.078 109.001 241.21 105.542 242.459 99.5861Z" fill="#8A3622"/>
<path d="M141.61 188.448C140.984 203.235 140.357 217.927 139.64 232.715C139.192 242.732 138.744 252.94 136.416 262.671C134.804 269.635 132.296 282.419 123.787 282.896C119.846 283.087 116.174 280.606 113.846 277.267C110.8 273.07 109.546 267.632 109.457 262.289C109.367 256.947 110.352 251.7 111.338 246.452C115.189 226.8 119.757 207.338 124.952 188.067C124.504 187.685 124.593 187.685 124.862 187.113C126.026 184.727 127.28 182.438 129.161 180.625C131.042 178.813 133.55 177.668 136.058 178.24C138.655 178.908 140.536 181.484 141.342 184.25C142.058 187.017 141.969 189.879 141.79 192.741" fill="#FDB790"/>
<path d="M164.757 283.857C158.014 287.225 150.473 287.995 143.108 287.321C135.744 286.648 128.557 284.723 121.459 282.702C119.862 282.221 117.91 281.354 117.821 279.526C117.555 272.597 119.685 266.341 124.476 261.625C129.267 256.91 135.212 254.119 141.068 251.424C142.753 250.654 144.528 249.788 146.214 249.018C150.916 246.805 155.619 244.591 160.587 243.629C165.556 242.57 170.968 242.763 175.493 245.265C180.018 247.767 183.567 252.771 183.656 258.353C183.656 261.144 182.858 263.839 181.704 266.341C178.421 273.655 171.589 280.392 164.757 283.857Z" fill="#FDB790"/>
<path d="M338.575 305.155H207.136C207.048 305.251 206.784 304.771 206.696 304.867C202.04 302.373 199.492 296.617 198.437 291.149C198.086 289.423 197.91 287.792 198.086 286.065C183.765 287.696 169.531 289.039 155.21 289.711C149.411 283.667 145.897 274.938 145.633 266.112C145.458 257.287 148.533 248.461 154.068 242.034C162.766 231.961 178.405 232.825 189.3 225.822C194.747 222.369 199.931 218.244 205.642 215.174C211.704 211.912 218.206 209.994 224.708 208.267C233.933 205.965 243.246 204.142 252.56 203.087C260.203 202.128 267.935 201.648 275.491 203.279C281.026 204.526 286.298 206.828 291.482 209.322C297.808 212.296 304.046 215.462 309.757 219.683C321.882 228.604 331.195 242.226 335.5 257.478C340.157 273.115 340.069 288.751 338.575 305.155Z" fill="#2B499E"/>
<path d="M123.539 181.735C122.373 183.743 119.236 183.169 117.891 181.257C116.637 179.345 116.726 176.668 117.174 174.373C117.623 171.6 118.429 168.827 119.505 166.15C120.222 164.238 121.567 162.23 123.449 162.23C123.36 160.126 124.435 157.927 126.138 156.78C127.124 156.11 128.2 155.728 129.097 154.963C129.724 154.389 130.172 153.624 130.8 152.955C133.13 150.373 135.371 150.851 137.254 153.815C137.433 147.314 133.937 139.282 134.027 136.222C134.027 135.457 134.206 134.597 134.654 134.119C135.371 133.354 136.626 133.449 137.433 134.023C138.24 134.597 138.778 135.648 139.226 136.605C145.59 150.086 141.915 177.624 140.481 193.018C139.136 194.356 136.178 191.87 134.475 192.54C132.413 193.305 121.477 197.512 122.105 194.835C124.883 184.795 123.808 184.317 123.539 181.735Z" fill="#FDB790"/>
<path d="M224.561 144.42C223.912 143.956 223.263 143.492 222.428 143.214C221.315 142.75 220.202 142.565 219.089 142.472C218.996 141.545 219.274 140.617 220.016 139.875C221.315 138.484 223.356 138.298 224.654 139.504C225.953 140.71 226.046 142.843 224.747 144.234C224.654 144.327 224.561 144.42 224.561 144.42Z" fill="#231F20"/>
<path d="M233.002 135.793L222.706 131.805C221.872 131.527 220.944 131.898 220.666 132.733C220.295 133.567 220.666 134.495 221.501 134.866L231.889 138.762C232.724 139.04 233.652 138.669 233.93 137.834C234.301 136.999 233.837 136.072 233.002 135.793Z" fill="#A7523F"/>
<path d="M211.483 161.023C211.576 162.693 211.854 164.27 212.132 165.847C214.637 166.681 220.759 165.754 221.964 161.487C217.698 163.899 213.338 162.507 211.483 161.023Z" fill="white"/>
<path d="M402.153 248.491C398.118 232.832 384.474 219.191 368.331 218.614C361.893 218.326 355.456 220.055 349.018 220.055C342.58 220.055 335.374 217.75 332.491 211.986C327.399 201.802 338.256 187.2 330.377 178.938C324.804 173.078 313.178 175.191 309.238 168.082C307.221 164.432 308.278 159.917 309.046 155.882C311.929 140.703 309.527 124.275 300.783 111.595C281.95 84.1191 239.192 80.8528 225.355 106.695C224.875 111.979 214.594 128.791 245.726 169.716C248.224 172.982 247.455 177.401 246.975 181.34C247.071 181.436 247.263 181.628 247.359 181.724C249.281 183.453 251.395 185.086 252.356 187.488C254.469 192.484 251.01 197.96 248.608 202.955C244.765 210.737 243.323 219.959 245.63 228.317C246.014 229.758 246.59 231.295 247.743 232.256C252.067 236.099 257.929 229.278 263.694 228.413C269.459 227.549 274.359 233.505 274.647 239.269C274.936 245.033 272.149 250.509 269.459 255.6C266.768 260.692 263.982 266.264 264.558 272.028C265.327 281.058 274.551 287.783 283.583 287.879C289.829 287.975 296.939 285.862 301.744 289.801C305.587 292.971 305.971 298.639 307.221 303.442C311.929 321.503 333.164 331.878 351.516 328.612C369.869 325.346 384.858 311.224 393.986 294.892C401.865 280.962 406.189 264.054 402.153 248.491Z" fill="#8A3622"/>
<path d="M251.587 171.925C249.473 175.768 246.494 179.226 242.939 181.916C237.27 186.335 230.352 188.641 223.626 191.139C216.9 193.637 210.078 196.519 204.985 201.514C199.893 206.51 196.914 214.387 199.412 221.112C210.846 213.811 224.491 209.968 237.943 211.025C242.074 211.313 246.206 212.082 250.434 211.986C254.566 211.89 258.889 210.929 262.156 208.335C265.712 205.453 267.537 200.842 268.402 196.327C269.459 191.043 269.651 185.375 267.345 180.571C264.943 175.672 256.872 171.253 251.587 171.925Z" fill="#8A3622"/>
</svg>
