<svg width="37" height="37" viewBox="0 0 37 37" fill="none" xmlns="http://www.w3.org/2000/svg">
<circle cx="18.5" cy="18.5" r="18.5" fill="#BDE3ED"/>
<path d="M19.2832 0.0295328C21.229 0 23.1637 0.0175009 25.0961 0C25.2132 2.23246 26.0317 4.50649 27.6976 6.08486C29.3602 7.7026 31.7119 8.44311 34 8.69359V14.5662C31.8557 14.4973 29.7014 14.0598 27.7556 13.1541C26.9081 12.7779 26.1186 12.2933 25.3459 11.7978C25.3359 16.0593 25.3637 20.3153 25.318 24.5593C25.2021 26.5981 24.5163 28.6272 23.3075 30.3072C21.3628 33.1041 17.9875 34.9275 14.5207 34.9844C12.3943 35.1036 10.2701 34.5348 8.45807 33.4869C5.45518 31.75 3.34211 28.5703 3.03435 25.1576C2.99558 24.4348 2.98963 23.7107 3.0165 22.9875C3.28412 20.2125 4.68354 17.5578 6.85571 15.7519C9.3178 13.6485 12.7667 12.6466 15.996 13.2395C16.0261 15.3997 15.938 17.5578 15.938 19.7181C14.4628 19.2499 12.7388 19.3812 11.4498 20.2595C10.5067 20.8689 9.79405 21.7656 9.4215 22.8114C9.11374 23.5508 9.20183 24.3722 9.21967 25.1576C9.57315 27.5508 11.9193 29.5624 14.4237 29.3447C16.0841 29.3272 17.6753 28.3821 18.5406 26.9985C18.8205 26.5139 19.1338 26.0184 19.1505 25.4485C19.2966 22.8398 19.2386 20.242 19.2565 17.6333C19.2687 11.7541 19.2386 5.89125 19.2843 0.0306266L19.2832 0.0295328Z" fill="black"/>
</svg>
