<svg width="120" height="40" viewBox="0 0 120 40" fill="none" xmlns="http://www.w3.org/2000/svg">
<path d="M24.7689 20.3008C24.7796 19.4662 25.0013 18.6478 25.4134 17.9218C25.8254 17.1959 26.4143 16.5859 27.1254 16.1488C26.6737 15.5036 26.0777 14.9727 25.3849 14.5981C24.6921 14.2236 23.9215 14.0157 23.1343 13.9911C21.455 13.8148 19.8271 14.9959 18.9714 14.9959C18.0991 14.9959 16.7816 14.0086 15.3629 14.0378C14.4452 14.0674 13.5509 14.3343 12.767 14.8123C11.9831 15.2904 11.3364 15.9633 10.89 16.7656C8.95595 20.1141 10.3985 25.0351 12.2511 27.7417C13.178 29.0671 14.2613 30.5475 15.6788 30.495C17.0658 30.4375 17.5839 29.6105 19.2582 29.6105C20.9169 29.6105 21.403 30.495 22.8492 30.4616C24.3376 30.4375 25.2753 29.1304 26.1697 27.7925C26.8357 26.8481 27.3481 25.8044 27.6881 24.7C26.8234 24.3343 26.0855 23.7221 25.5664 22.9398C25.0472 22.1575 24.7699 21.2397 24.7689 20.3008V20.3008Z" fill="black"/>
<path d="M22.0372 12.2111C22.8488 11.2369 23.2486 9.98469 23.1518 8.72046C21.9119 8.85068 20.7667 9.44324 19.9442 10.3801C19.542 10.8377 19.234 11.3702 19.0378 11.9469C18.8415 12.5237 18.7609 13.1335 18.8005 13.7415C19.4206 13.7478 20.0341 13.6134 20.5948 13.3483C21.1554 13.0833 21.6486 12.6944 22.0372 12.2111Z" fill="black"/>
<path d="M42.3023 27.1397H37.5689L36.4322 30.4961H34.4273L38.9107 18.0781H40.9937L45.4771 30.4961H43.438L42.3023 27.1397ZM38.0591 25.5908H41.8111L39.9615 20.1436H39.9097L38.0591 25.5908Z" fill="black"/>
<path d="M55.1597 25.9697C55.1597 28.7832 53.6538 30.5908 51.3814 30.5908C50.8057 30.6209 50.2332 30.4883 49.7294 30.2082C49.2256 29.928 48.8109 29.5117 48.5327 29.0068H48.4897V33.4912H46.6313V21.4423H48.4302V22.9482H48.4644C48.7553 22.4457 49.1771 22.0316 49.6847 21.7497C50.1923 21.4679 50.7669 21.3289 51.3472 21.3476C53.645 21.3476 55.1597 23.164 55.1597 25.9697ZM53.2495 25.9697C53.2495 24.1367 52.3023 22.9316 50.8569 22.9316C49.437 22.9316 48.4819 24.1621 48.4819 25.9697C48.4819 27.7939 49.437 29.0156 50.8569 29.0156C52.3023 29.0156 53.2495 27.8193 53.2495 25.9697Z" fill="black"/>
<path d="M65.1245 25.9697C65.1245 28.7832 63.6187 30.5908 61.3462 30.5908C60.7706 30.6209 60.1981 30.4883 59.6943 30.2081C59.1905 29.928 58.7757 29.5117 58.4976 29.0068H58.4546V33.4912H56.5962V21.4423H58.395V22.9482H58.4292C58.7201 22.4457 59.1419 22.0315 59.6495 21.7497C60.1571 21.4679 60.7317 21.3289 61.312 21.3476C63.6099 21.3476 65.1245 23.164 65.1245 25.9697ZM63.2144 25.9697C63.2144 24.1367 62.2671 22.9316 60.8218 22.9316C59.4019 22.9316 58.4468 24.1621 58.4468 25.9697C58.4468 27.7939 59.4019 29.0156 60.8218 29.0156C62.2671 29.0156 63.2144 27.8193 63.2144 25.9697H63.2144Z" fill="black"/>
<path d="M71.7105 27.0362C71.8482 28.2676 73.0445 29.0762 74.6792 29.0762C76.2456 29.0762 77.3726 28.2676 77.3726 27.1572C77.3726 26.1934 76.6929 25.6162 75.0835 25.2207L73.4742 24.833C71.1939 24.2822 70.1353 23.2158 70.1353 21.4854C70.1353 19.3428 72.0025 17.8711 74.6538 17.8711C77.2778 17.8711 79.0767 19.3428 79.1372 21.4854H77.2612C77.1489 20.2461 76.1245 19.4981 74.6274 19.4981C73.1304 19.4981 72.106 20.2549 72.106 21.3565C72.106 22.2344 72.7603 22.751 74.3608 23.1465L75.729 23.4824C78.2768 24.0849 79.3354 25.1084 79.3354 26.9248C79.3354 29.248 77.4849 30.7031 74.5415 30.7031C71.7876 30.7031 69.9282 29.2822 69.8081 27.0361L71.7105 27.0362Z" fill="black"/>
<path d="M83.3462 19.2998V21.4424H85.0679V22.9141H83.3462V27.9053C83.3462 28.6807 83.6909 29.042 84.4478 29.042C84.6522 29.0384 84.8562 29.0241 85.0591 28.999V30.4619C84.7188 30.5255 84.373 30.5543 84.0269 30.5478C82.1939 30.5478 81.479 29.8593 81.479 28.1035V22.9141H80.1626V21.4424H81.479V19.2998H83.3462Z" fill="black"/>
<path d="M86.065 25.9697C86.065 23.1211 87.7427 21.3311 90.3589 21.3311C92.9839 21.3311 94.6539 23.1211 94.6539 25.9697C94.6539 28.8262 92.9927 30.6084 90.3589 30.6084C87.7261 30.6084 86.065 28.8262 86.065 25.9697ZM92.7603 25.9697C92.7603 24.0156 91.8648 22.8623 90.3589 22.8623C88.8531 22.8623 87.9585 24.0244 87.9585 25.9697C87.9585 27.9316 88.8531 29.0762 90.3589 29.0762C91.8648 29.0762 92.7603 27.9316 92.7603 25.9697H92.7603Z" fill="black"/>
<path d="M96.1861 21.4425H97.9585V22.9835H98.0015C98.1214 22.5022 98.4034 22.0769 98.8 21.779C99.1966 21.4811 99.6836 21.3288 100.179 21.3478C100.393 21.347 100.607 21.3703 100.816 21.4171V23.1554C100.546 23.0728 100.264 23.0348 99.981 23.0431C99.711 23.0321 99.4418 23.0797 99.192 23.1826C98.9422 23.2855 98.7175 23.4412 98.5336 23.6391C98.3496 23.837 98.2106 24.0724 98.1262 24.3291C98.0418 24.5857 98.0139 24.8576 98.0444 25.1261V30.4962H96.1861L96.1861 21.4425Z" fill="black"/>
<path d="M109.384 27.8369C109.134 29.4805 107.534 30.6084 105.486 30.6084C102.852 30.6084 101.217 28.8437 101.217 26.0127C101.217 23.1729 102.861 21.3311 105.408 21.3311C107.913 21.3311 109.488 23.0518 109.488 25.7969V26.4336H103.093V26.5459C103.064 26.8791 103.105 27.2148 103.216 27.5306C103.326 27.8464 103.502 28.1352 103.732 28.3778C103.963 28.6203 104.242 28.8111 104.552 28.9374C104.861 29.0637 105.195 29.1226 105.529 29.1103C105.968 29.1515 106.409 29.0498 106.785 28.8203C107.162 28.5909 107.455 28.246 107.62 27.8369L109.384 27.8369ZM103.102 25.1348H107.628C107.645 24.8352 107.6 24.5354 107.495 24.2541C107.39 23.9729 107.229 23.7164 107.02 23.5006C106.812 23.2849 106.561 23.1145 106.283 23.0003C106.006 22.8861 105.708 22.8305 105.408 22.8369C105.105 22.8351 104.805 22.8933 104.525 23.008C104.245 23.1227 103.99 23.2918 103.776 23.5054C103.562 23.7191 103.392 23.973 103.276 24.2527C103.16 24.5323 103.101 24.8321 103.102 25.1348V25.1348Z" fill="black"/>
<path d="M36.7383 11.2536H37.5362C37.6735 11.2707 37.8129 11.2592 37.9456 11.2198C38.0782 11.1803 38.2013 11.1138 38.307 11.0245C38.4127 10.9351 38.4987 10.8248 38.5597 10.7005C38.6206 10.5763 38.6552 10.4407 38.6612 10.3025C38.6612 9.75217 38.2471 9.3967 37.5449 9.3967C37.4042 9.37704 37.261 9.38577 37.1237 9.42238C36.9864 9.45899 36.8579 9.52273 36.7456 9.60985C36.6334 9.69696 36.5398 9.80569 36.4702 9.92959C36.4007 10.0535 36.3567 10.1901 36.3408 10.3313H35.4648C35.4799 10.075 35.5476 9.82452 35.6637 9.59551C35.7797 9.3665 35.9417 9.16383 36.1395 9.00013C36.3373 8.83643 36.5666 8.71519 36.8133 8.64397C37.06 8.57275 37.3186 8.55307 37.5732 8.58615C38.748 8.58615 39.5752 9.24386 39.5752 10.1906C39.578 10.5078 39.4719 10.8163 39.2746 11.0647C39.0773 11.3131 38.8008 11.4863 38.4912 11.5554V11.6257C38.8582 11.642 39.2039 11.8029 39.4526 12.0733C39.7013 12.3437 39.8328 12.7015 39.8184 13.0686C39.7912 13.3325 39.7117 13.5883 39.5844 13.821C39.4571 14.0538 39.2846 14.2588 39.077 14.424C38.8695 14.5892 38.631 14.7113 38.3756 14.7832C38.1203 14.855 37.8531 14.8752 37.5899 14.8425C37.3261 14.8785 37.0577 14.861 36.8008 14.791C36.5439 14.721 36.3037 14.6001 36.0946 14.4353C35.8854 14.2705 35.7116 14.0653 35.5835 13.832C35.4553 13.5986 35.3755 13.3418 35.3487 13.0769H36.2383C36.292 13.6477 36.8164 14.0159 37.5899 14.0159C38.3633 14.0159 38.8682 13.6023 38.8682 13.0193C38.8682 12.428 38.3926 12.0637 37.5616 12.0637H36.7383V11.2536Z" fill="black"/>
<path d="M40.8291 13.4246C40.8291 12.614 41.4336 12.1467 42.5039 12.0803L43.7236 12.01V11.6213C43.7236 11.1457 43.4102 10.8772 42.8018 10.8772C42.3057 10.8772 41.9629 11.0593 41.8633 11.3777H41.0029C41.0938 10.6042 41.8223 10.1082 42.8438 10.1082C43.9727 10.1082 44.6094 10.6702 44.6094 11.6213V14.698H43.7529V14.0652H43.6826C43.5399 14.2922 43.3395 14.4772 43.1019 14.6014C42.8643 14.7256 42.5979 14.7846 42.3301 14.7722C42.1411 14.7918 41.95 14.7717 41.7692 14.713C41.5885 14.6543 41.422 14.5584 41.2806 14.4314C41.1392 14.3044 41.026 14.1492 40.9482 13.9758C40.8704 13.8024 40.8299 13.6146 40.8291 13.4246V13.4246ZM43.7236 13.0398V12.6633L42.624 12.7336C42.0039 12.7751 41.7226 12.9861 41.7226 13.383C41.7226 13.7883 42.0742 14.0242 42.5576 14.0242C42.6993 14.0385 42.8424 14.0242 42.9784 13.9821C43.1144 13.94 43.2405 13.871 43.3493 13.7792C43.4581 13.6873 43.5473 13.5745 43.6116 13.4475C43.6759 13.3205 43.714 13.1818 43.7236 13.0398V13.0398Z" fill="black"/>
<path d="M46.9678 10.9431V14.698H46.0791V10.1951H49.044V10.9431L46.9678 10.9431Z" fill="black"/>
<path d="M54.4297 12.4445C54.4297 13.8752 53.7061 14.7722 52.5694 14.7722C52.2903 14.7912 52.0116 14.7302 51.7661 14.5962C51.5206 14.4622 51.3185 14.2608 51.1836 14.0158H51.1133V16.195H50.2246V10.195H51.0801V10.9392H51.1465C51.2838 10.6856 51.4886 10.475 51.7381 10.3305C51.9877 10.186 52.2723 10.1132 52.5606 10.1203C53.7061 10.1203 54.4297 11.0134 54.4297 12.4445ZM53.5156 12.4445C53.5156 11.4934 53.0654 10.9187 52.3125 10.9187C51.5645 10.9187 51.0967 11.5056 51.0967 12.4484C51.0967 13.3869 51.5645 13.9743 52.3086 13.9743C53.0654 13.9743 53.5156 13.3996 53.5156 12.4445Z" fill="black"/>
<path d="M55.6133 16.3108V15.5457C55.7095 15.5579 55.8064 15.5634 55.9033 15.5623C56.0926 15.5763 56.2805 15.5199 56.4308 15.4039C56.5811 15.2879 56.6833 15.1205 56.7178 14.9338L56.7842 14.7146L55.1543 10.1951H56.1221L57.251 13.7717H57.3213L58.4463 10.1951H59.3887L57.71 14.884C57.3252 15.9797 56.8994 16.3313 55.9815 16.3313C55.9072 16.3313 55.6963 16.323 55.6133 16.3108Z" fill="black"/>
<path d="M60.0811 13.42H60.9658C61.0527 13.817 61.4248 14.024 61.9453 14.024C62.5371 14.024 62.9004 13.7633 62.9004 13.358C62.9004 12.9239 62.5742 12.7169 61.9453 12.7169H61.2715V12.0265H61.9336C62.4707 12.0265 62.7442 11.8199 62.7442 11.4435C62.7442 11.1129 62.4795 10.8605 61.9336 10.8605C61.4365 10.8605 61.0733 11.0714 61.0156 11.4269H60.1592C60.2232 11.0184 60.445 10.6514 60.7768 10.4048C61.1087 10.1581 61.524 10.0516 61.9336 10.108C63.0039 10.108 63.6162 10.5919 63.6162 11.3527C63.6212 11.5645 63.5533 11.7717 63.4239 11.9395C63.2945 12.1073 63.1114 12.2256 62.9053 12.2746V12.3449C63.1507 12.3765 63.376 12.4972 63.5384 12.6839C63.7008 12.8707 63.7889 13.1106 63.7862 13.358C63.7862 14.214 63.0576 14.7804 61.9453 14.7804C60.9619 14.7804 60.1631 14.3297 60.0811 13.42Z" fill="black"/>
<path d="M65.0659 14.698V10.1951H65.9468V13.2922H66.0171L68.0923 10.1951H68.9732V14.698H68.0923V11.5842H68.0259L65.9468 14.698L65.0659 14.698Z" fill="black"/>
<path d="M73.8257 10.9431H72.4077V14.6979H71.5181V10.9431H70.1001V10.1951H73.8257V10.9431Z" fill="black"/>
<path d="M78.6128 13.482C78.4917 13.8935 78.2299 14.2494 77.8731 14.4875C77.5163 14.7257 77.0871 14.8309 76.6607 14.7847C76.364 14.7926 76.0692 14.7358 75.7967 14.6182C75.5242 14.5007 75.2805 14.3253 75.0826 14.1041C74.8847 13.883 74.7373 13.6214 74.6506 13.3376C74.5639 13.0538 74.54 12.7545 74.5806 12.4605C74.5411 12.1656 74.5654 11.8657 74.6519 11.581C74.7384 11.2964 74.885 11.0336 75.0819 10.8105C75.2787 10.5874 75.5212 10.4093 75.7929 10.2881C76.0647 10.1669 76.3592 10.1054 76.6568 10.108C77.9097 10.108 78.6665 10.964 78.6665 12.378V12.6881H75.4868V12.7379C75.4728 12.9032 75.4934 13.0696 75.5475 13.2264C75.6015 13.3832 75.6878 13.527 75.8008 13.6485C75.9137 13.77 76.0508 13.8665 76.2033 13.9318C76.3557 13.9972 76.5202 14.0299 76.6861 14.0279C76.8985 14.0533 77.1137 14.0149 77.3043 13.9177C77.4948 13.8205 77.6522 13.6689 77.7564 13.482L78.6128 13.482ZM75.4868 12.0308H77.7602C77.7715 11.8798 77.751 11.7281 77.7001 11.5854C77.6492 11.4427 77.5691 11.3123 77.4648 11.2024C77.3605 11.0926 77.2344 11.0058 77.0946 10.9475C76.9547 10.8893 76.8043 10.861 76.6528 10.8643C76.4991 10.8623 76.3465 10.891 76.204 10.9489C76.0616 11.0068 75.9322 11.0926 75.8235 11.2014C75.7148 11.3101 75.629 11.4396 75.5712 11.582C75.5134 11.7245 75.4847 11.8771 75.4868 12.0308H75.4868Z" fill="black"/>
<path d="M82.3804 10.1951H84.4107C85.2915 10.1951 85.8081 10.6414 85.8081 11.3401C85.8095 11.5618 85.7347 11.7772 85.5962 11.9504C85.4577 12.1235 85.264 12.2439 85.0474 12.2912V12.3615C85.3104 12.3782 85.5569 12.4951 85.7361 12.6883C85.9153 12.8815 86.0134 13.1362 86.0103 13.3996C86.0103 14.1853 85.4194 14.698 84.4312 14.698H82.3804V10.1951ZM83.2613 10.8772V12.0432H84.1421C84.6792 12.0432 84.9361 11.8367 84.9361 11.4558C84.9361 11.1047 84.7124 10.8772 84.2408 10.8772L83.2613 10.8772ZM83.2613 12.6965V14.0159H84.315C84.8404 14.0159 85.1216 13.7839 85.1216 13.3582C85.1216 12.9075 84.8033 12.6965 84.2036 12.6965L83.2613 12.6965Z" fill="black"/>
<rect x="0.5" y="0.5" width="118" height="39" rx="5.5" stroke="black"/>
</svg>
