<svg width="163" height="163" viewBox="0 0 163 163" fill="none" xmlns="http://www.w3.org/2000/svg">
<circle cx="81.5" cy="81.5" r="80.5" fill="#AFAC8D" fill-opacity="0.84" stroke="black" stroke-width="2"/>
<circle cx="81.5" cy="81.5" r="14.2698" fill="white" fill-opacity="0.84" stroke="black" stroke-width="2"/>
<path d="M79.4763 0.735903C81.5 0.735878 82.2359 0.735901 83.8916 0.769384V66.4142C83.8916 66.4142 82.6886 66.2303 81.684 66.2303C80.6793 66.2303 79.4763 66.3651 79.4763 66.3651V0.735903Z" fill="#A36678"/>
<path d="M0.367952 83.8917C0.367928 81.868 0.36795 81.1321 0.401434 79.4763H66.0463C66.0463 79.4763 65.8623 80.6793 65.8623 81.684C65.8623 82.6887 65.9972 83.8917 65.9972 83.8917H0.367952Z" fill="#A36678"/>
<path d="M83.8917 162.632C81.868 162.632 81.1321 162.632 79.4763 162.598L79.4763 96.4018C79.4763 96.4018 80.6793 96.5873 81.684 96.5873C82.6887 96.5873 83.8917 96.4513 83.8917 96.4513L83.8917 162.632Z" fill="#A36678"/>
</svg>
