<svg width="32" height="20" viewBox="0 0 32 20" fill="none" xmlns="http://www.w3.org/2000/svg">
<rect x="0.5" y="0.5" width="31" height="19" stroke="black"/>
<line x1="8" y1="2" x2="8" y2="12" stroke="black" stroke-width="2"/>
<path d="M27.7071 11.7071C28.0976 11.3166 28.0976 10.6834 27.7071 10.2929L21.3431 3.92893C20.9526 3.53841 20.3195 3.53841 19.9289 3.92893C19.5384 4.31946 19.5384 4.95262 19.9289 5.34315L25.5858 11L19.9289 16.6569C19.5384 17.0474 19.5384 17.6805 19.9289 18.0711C20.3195 18.4616 20.9526 18.4616 21.3431 18.0711L27.7071 11.7071ZM8 12L27 12L27 10L8 10L8 12Z" fill="black"/>
</svg>
