<svg id="Capa_1" enable-background="new 0 0 512 512" height="512" viewBox="0 0 512 512" width="512" xmlns="http://www.w3.org/2000/svg"><g><path d="m490.027 202.973-180.985-181.725c-14.165-14.165-33.605-21.248-53.042-21.248-19.44 0-38.877 7.083-53.027 21.248l-181 181.71c-14.165 14.165-21.973 32.988-21.973 53.042s7.808 38.877 21.973 53.027l180.985 181c14.165 14.165 32.988 21.973 53.042 21.973s38.877-7.808 53.027-21.973l181-180.985c14.165-14.165 21.973-32.988 21.973-53.042 0-20.039-7.808-38.877-21.973-53.027z" fill="#82d9cb"/><path d="m490.027 309.042c14.165-14.165 21.973-32.988 21.973-53.042 0-20.039-7.808-38.877-21.973-53.027l-180.985-181.725c-14.165-14.165-33.605-21.248-53.042-21.248v512c20.054 0 38.877-7.808 53.027-21.973z" fill="#59b3b3"/><path d="m390.084 241c-7.573-67.315-64.777-120-134.084-120s-126.511 52.685-134.084 120l29.084 15-29.084 15c7.573 67.315 64.777 120 134.084 120s126.511-52.685 134.084-120l-29.084-15z" fill="#f3f5f9"/><path d="m390.084 271-29.084-15 29.084-15c-7.573-67.315-64.777-120-134.084-120v270c69.307 0 126.511-52.685 134.084-120z" fill="#e1e6f0"/><path d="m181 256c0-8.284-6.716-15-15-15h-44.084c-.562 4.99-.916 9.864-.916 15s.354 10.01.916 15h44.084c8.284 0 15-6.716 15-15z" fill="#e1e6f0"/><path d="m270.224 161.254c-2.036-6.123-8.13-9.185-14.224-9.185s-12.188 3.062-14.224 9.185l-30 90c-1.04 3.076-1.04 6.416 0 9.492l30 90c2.036 6.123 7.764 10.254 14.224 10.254s12.188-4.131 14.224-10.254l30-90c1.04-3.076 1.04-6.416 0-9.492z" fill="#f93"/><path d="m270.224 350.746 30-90c1.04-3.076 1.04-6.416 0-9.492l-30-90c-2.036-6.123-8.13-9.185-14.224-9.185v208.931c6.46 0 12.188-4.131 14.224-10.254z" fill="#f25a3c"/><path d="m390.084 241h-44.084c-8.284 0-15 6.716-15 15s6.716 15 15 15h44.084c.562-4.99.916-9.864.916-15s-.354-10.01-.916-15z" fill="#cfd7e6"/></g></svg>