<?xml version="1.0" encoding="iso-8859-1"?>
<!-- Generator: Adobe Illustrator 19.0.0, SVG Export Plug-In . SVG Version: 6.00 Build 0)  -->
<svg version="1.1" id="Capa_1" xmlns="http://www.w3.org/2000/svg" xmlns:xlink="http://www.w3.org/1999/xlink" x="0px" y="0px"
	 viewBox="0 0 448.64 448.64" style="enable-background:new 0 0 448.64 448.64;" xml:space="preserve">
<g>
	<g>
		<polygon points="232.032,0 183.808,48.208 195.12,59.52 224.032,30.624 224.032,96 240.032,96 240.032,30.624 269.008,59.584 
			280.32,48.272 		"/>
	</g>
</g>
<g>
	<g>
		<polygon points="167.808,136.368 118.288,136.368 147.184,107.456 135.872,96.144 87.664,144.368 135.936,192.64 147.248,181.328 
			118.288,152.368 167.808,152.368 		"/>
	</g>
</g>
<g>
	<g>
		<polygon points="328.32,96.144 317.008,107.456 345.92,136.368 295.984,136.368 295.984,152.368 345.92,152.368 316.944,181.328 
			328.256,192.64 376.544,144.368 		"/>
	</g>
</g>
<g>
	<g>
		<path d="M356.688,294.032c-0.64-0.64-1.328-1.184-2.064-1.632c-10.368-6.528-22.192-9.824-34.016-9.824
			c-16.368,0-32.72,6.24-45.2,18.72l-11.312,11.328v-152.24c0-17.6-14.4-32-32-32c-17.6,0-32,14.4-32,32v70.4
			c-5.84-7.168-14.64-11.84-24.608-11.84c-6.928,0-13.312,2.272-18.544,6.032l-68.912,39.888
			c-9.52,5.536-15.936,15.792-15.936,27.568v52.624c0,57.216,46.368,103.584,103.584,103.584c27.712,0,52.816-10.944,71.392-28.672
			l0.016,0.144l1.776-1.776c0.032-0.032,0.064-0.064,0.08-0.08l107.744-107.76C361.248,305.952,361.248,298.576,356.688,294.032z
			 M236.032,408.384c-16.4,15.632-37.84,24.24-60.352,24.24c-48.304,0-87.584-39.28-87.584-87.584v-52.624
			c0-5.632,2.992-10.736,8.016-13.664l70.144-40.784c1.92-1.376,5.088-3.04,9.216-3.04c6.4,0,10.4,3.728,12.224,5.952l14.208,17.408
			c2.144,2.624,5.696,3.616,8.88,2.48c3.184-1.136,5.312-4.144,5.312-7.536v-92.848c0-8.816,7.184-16,16-16s16,7.184,16,16v159.952
			c0,6.352,3.744,11.76,9.12,14.304c3.056,1.44,6.688,0.816,9.072-1.584l20.432-20.416c9.056-9.056,21.088-14.032,33.888-14.032
			c7.216,0,14.272,1.6,20.704,4.672L236.032,408.384z"/>
	</g>
</g>
<g>
</g>
<g>
</g>
<g>
</g>
<g>
</g>
<g>
</g>
<g>
</g>
<g>
</g>
<g>
</g>
<g>
</g>
<g>
</g>
<g>
</g>
<g>
</g>
<g>
</g>
<g>
</g>
<g>
</g>
</svg>
