<svg width="137" height="57" viewBox="0 0 137 57" fill="none" xmlns="http://www.w3.org/2000/svg">
<path d="M18.5287 21.5157L18.5287 37.1706C16.6036 38.2945 14.6786 39.4988 12.2722 39.4988C7.70021 39.4988 6.096 33.9593 6.096 29.6241C6.096 25.2086 7.70021 19.4284 12.5129 19.4284C14.7588 19.5086 16.5234 20.2312 18.5287 21.5157ZM22.6194 50.6579C23.983 48.0889 24.2236 43.9143 24.2236 40.7833L24.2236 20.472C20.1329 16.8593 15.0796 15.334 10.9086 15.334C3.44904 15.334 -3.00018e-05 23.8438 -3.02604e-05 29.7847C0.0801803 36.1269 3.28861 43.834 10.9888 43.9143C14.0369 43.9143 16.363 43.1917 18.7693 41.7467C18.6891 41.9072 18.6891 42.1481 18.6891 42.3889C18.6891 44.396 18.6089 47.4467 17.8068 48.972C16.0421 52.2636 10.9889 52.5847 7.70021 53.0664L8.66274 57.0002C13.716 56.8396 20.2131 55.1537 22.6194 50.6579Z" fill="#89C37D"/>
<path d="M29.678 1.7662L35.0521 -2.07719e-07L35.0521 36.3676C35.0521 39.338 36.4157 39.9803 39.7845 40.1408L39.7845 43.6732C33.3677 44.3155 29.678 41.5056 29.678 36.4479L29.678 1.7662V1.7662Z" fill="#89C37D"/>
<path d="M44.1961 16.6987L49.8911 14.8522L49.8911 43.272L44.2763 43.272L44.1961 16.6987ZM43.3138 7.30575C43.3138 5.21843 44.918 3.61279 47.0035 3.61279C49.089 3.61279 50.6932 5.21843 50.613 7.30575C50.613 9.39308 49.0087 10.9987 46.9233 10.9987C44.8378 10.9987 43.2336 9.39308 43.3138 7.30575Z" fill="#89C37D"/>
<path d="M54.2225 40.5425L56.3882 37.0101C58.6341 38.7763 61.1207 39.5791 63.3666 39.5791C66.1739 39.5791 68.9011 38.2946 68.8209 35.6453C68.7407 33.4777 66.575 32.8354 64.8906 32.1932C64.0885 31.8721 63.2864 31.4706 62.4842 31.1495C58.7143 29.7044 55.0246 28.3397 55.0246 23.3622C55.0246 17.8228 59.9175 14.9326 64.7302 14.9326C67.5375 14.9326 70.1043 15.896 73.0721 17.5819L70.9866 21.2749C68.5001 19.9101 66.7354 19.3481 64.9708 19.3481C62.6447 19.3481 60.3988 20.5523 60.3988 22.8002C60.3988 23.9242 61.0405 24.5664 62.2436 25.1284C63.6072 25.7706 65.2916 26.4129 66.976 26.9749C68.5803 27.6171 70.2647 28.3397 71.7887 29.3833C73.3929 30.5875 74.5961 32.3537 74.5159 35.0833C74.3554 41.1847 68.6605 43.834 63.6072 43.834C60.2383 43.9946 57.1101 42.7101 54.2225 40.5425Z" fill="#89C37D"/>
<path d="M79.1681 19.8298L76.2805 19.8298L76.2805 15.7354L79.1681 15.7354L79.1681 8.67062L84.7026 6.66357L84.7026 15.7354L89.5153 15.7354L89.5153 19.8298L84.7026 19.8298L84.7026 36.2875C84.7026 39.2579 86.0662 39.9002 89.5153 40.0608L89.5153 43.5129C83.0182 44.1551 79.1681 41.3453 79.1681 36.3678L79.1681 19.8298Z" fill="#89C37D"/>
<path d="M104.354 19.3481C107.402 19.3481 109.006 22.3988 109.167 25.8509L99.2207 25.8509C99.5415 22.3988 100.985 19.3481 104.354 19.3481ZM110.129 43.0312C111.974 42.5495 113.418 41.7467 115.263 40.5424L113.659 37.3312C110.771 38.696 108.846 39.6593 106.039 39.6593C101.868 39.8199 98.579 35.9664 98.8196 29.7044L114.782 29.7044C114.621 20.8734 111.974 15.334 104.114 15.334C95.932 15.334 93.2049 23.041 93.1246 29.9453C93.0444 34.5213 94.8893 38.7762 97.8571 41.3453C101.146 44.2354 106.279 44.0748 110.129 43.0312Z" fill="#89C37D"/>
<path d="M131.064 19.8295C128.498 19.8295 126.733 20.7126 125.369 21.8365L125.369 43.2717L119.835 43.2717L119.835 20.7126C121.68 18.6252 123.845 17.1802 126.332 16.2971C128.979 15.3337 131.626 14.6914 136.118 15.5745C135.235 17.421 134.513 18.7055 133.872 20.2309C132.588 19.99 131.546 19.7492 131.064 19.8295Z" fill="#89C37D"/>
</svg>
