<svg width="87" height="87" viewBox="0 0 87 87" fill="none" xmlns="http://www.w3.org/2000/svg">
<path d="M43.5 86C66.9721 86 86 66.9721 86 43.5C86 20.0279 66.9721 1 43.5 1C20.0279 1 1 20.0279 1 43.5C1 66.9721 20.0279 86 43.5 86Z" stroke="#1F4F85" stroke-width="2"/>
<mask id="mask0" mask-type="alpha" maskUnits="userSpaceOnUse" x="0" y="0" width="87" height="87">
<path d="M43.5 87C67.5244 87 87 67.5244 87 43.5C87 19.4756 67.5244 0 43.5 0C19.4756 0 0 19.4756 0 43.5C0 67.5244 19.4756 87 43.5 87Z" fill="#C4C4C4"/>
</mask>
<g mask="url(#mask0)">
<path d="M5.66619 103.878C4.28276 103.878 2.99155 103.42 1.91555 102.595L-4.57121 97.4646C-5.83167 96.4874 -6.60025 95.0826 -6.81545 93.4945C-6.99991 91.9064 -6.5695 90.3489 -5.55499 89.0968L13.0445 65.7341L12.6448 65.4287C12.2144 65.0927 11.9685 64.6347 11.907 64.0849C11.8455 63.5658 11.9992 63.0466 12.3374 62.619L15.5962 58.5267C15.9343 58.0992 16.3955 57.8549 16.9489 57.7938C17.0411 57.7938 17.1026 57.7938 17.1948 57.7938C17.6559 57.7938 18.0863 57.9465 18.4553 58.2214L18.8549 58.5267L19.1009 58.1908C20.4536 56.5111 27.5244 48.0211 34.3494 47.2271C34.6875 47.1966 35.0257 47.166 35.3639 47.166C35.5791 47.166 35.7943 47.166 35.9787 47.1966C36.0402 47.1966 36.1017 47.1966 36.1632 47.1966C36.8395 47.1966 37.4851 46.8912 37.8848 46.4026L54.4553 25.5746L53.5022 24.8416C53.1333 24.5362 52.8874 24.1087 52.8259 23.6201C52.7644 23.1314 52.9181 22.6733 53.1948 22.2763L53.9326 21.3296L52.1803 19.9553C51.9036 19.7415 51.8729 19.3751 52.0881 19.1002C52.211 18.9475 52.3647 18.8559 52.5799 18.8559C52.7029 18.8559 52.8566 18.8864 52.9489 18.9781L54.7319 20.3523L55.8387 18.9475L54.0863 17.5732C53.8097 17.3595 53.7789 16.993 53.9941 16.7181C54.1171 16.5654 54.2708 16.4738 54.486 16.4738C54.609 16.4738 54.7627 16.5044 54.8549 16.596L56.6073 17.9703L57.7448 16.5654L55.9002 15.2217C55.7772 15.1301 55.685 14.9774 55.685 14.8247C55.6542 14.672 55.7157 14.5193 55.808 14.3971C55.9309 14.2444 56.0846 14.1528 56.2691 14.1528C56.3921 14.1528 56.5458 14.1833 56.638 14.275L58.3904 15.6492L58.9745 14.9163C59.2512 14.5498 59.6816 14.336 60.1427 14.275C60.2042 14.275 60.2657 14.275 60.3272 14.275C60.7268 14.275 61.0957 14.3971 61.4032 14.6414L62.7251 15.6798C65.0923 17.5427 65.492 20.9937 63.6167 23.3452L42.3425 50.0978C41.9121 50.617 41.7892 51.3194 41.9736 52.0218C43.5415 57.8243 37.977 66.8946 34.8105 70.8647L10.4621 101.587C9.44757 102.84 8.0334 103.634 6.40402 103.847C6.15808 103.847 5.91214 103.878 5.66619 103.878ZM35.2717 48.3265C34.995 48.3265 34.7183 48.3571 34.4416 48.3876C29.492 48.9679 23.5586 54.4345 19.9924 58.9238L18.8857 60.298L14.8276 65.3981L14.3664 65.9784L13.9053 66.5586L-4.60196 89.8298C-6.23133 91.8759 -5.89316 94.8688 -3.80264 96.4874L2.71487 101.618C3.57567 102.29 4.62093 102.656 5.69693 102.656C5.88139 102.656 6.09659 102.656 6.28105 102.626C7.57226 102.473 8.70974 101.832 9.50906 100.824L33.9497 70.1012C36.4091 67.0167 42.404 57.8243 40.8976 52.2967C40.6209 51.2278 40.8054 50.1284 41.4817 49.3038L62.7559 22.5512C63.4629 21.6655 63.7704 20.5356 63.6474 19.4056C63.5244 18.2756 62.9403 17.2678 62.0488 16.5654L60.7268 15.5271C60.6346 15.466 60.5116 15.4049 60.3886 15.4049C60.3579 15.4049 60.3579 15.4049 60.3272 15.4049C60.1735 15.4049 60.0505 15.4965 59.9583 15.6187L57.591 18.581L56.6688 19.7415L55.7157 20.9326L54.7934 22.1236L54.1478 22.9482C54.0556 23.0704 53.9941 23.2231 54.0249 23.3757C54.0556 23.5284 54.1171 23.6811 54.2401 23.7728L56.1461 25.2692L38.8071 47.0439C38.2537 47.7158 37.4544 48.1738 36.5629 48.2655C36.4399 48.296 36.2862 48.296 36.1632 48.296C36.071 48.296 35.9787 48.296 35.8558 48.296C35.6406 48.3571 35.4561 48.3265 35.2717 48.3265ZM17.1333 58.9543C17.1026 58.9543 17.0718 58.9543 17.0411 58.9543C16.8259 58.9848 16.6414 59.0765 16.5185 59.2597L13.2597 63.352C13.1367 63.5047 13.0752 63.7185 13.106 63.9322C13.1367 64.146 13.229 64.3293 13.4134 64.4514L13.8131 64.7568L18.0556 59.4124L17.6559 59.107C17.5022 59.0154 17.3178 58.9543 17.1333 58.9543ZM8.43306 93.4029C8.2486 93.4029 8.09488 93.3418 7.97191 93.2502L3.48344 89.7381C3.32973 89.616 3.2375 89.4327 3.20676 89.2495C3.17601 89.0357 3.2375 88.8525 3.36047 88.6998C3.51418 88.5166 3.72938 88.425 3.94459 88.425C4.12904 88.425 4.28276 88.486 4.40573 88.5776L8.8942 92.0897C9.23237 92.334 9.26312 92.8226 9.01717 93.1586C8.8942 93.3113 8.70974 93.4029 8.52529 93.4334C8.49454 93.4029 8.4638 93.4029 8.43306 93.4029ZM23.8353 71.2923C23.1282 71.2923 22.4826 71.048 21.9292 70.6204C21.2836 70.1012 20.8532 69.3683 20.761 68.5437C20.6688 67.7191 20.884 66.8946 21.4066 66.2533C21.9292 65.6119 22.667 65.1844 23.4971 65.0927C23.6201 65.0927 23.743 65.0622 23.866 65.0622C24.5731 65.0622 25.2187 65.3065 25.8028 65.7341C26.4484 66.2532 26.8788 66.9862 26.9711 67.8108C27.0633 68.6353 26.8481 69.4599 26.3255 70.1012C25.8028 70.7426 25.065 71.1701 24.2349 71.2617C24.112 71.2617 23.9583 71.2923 23.8353 71.2923ZM23.866 66.2838C23.8045 66.2838 23.7123 66.2838 23.6508 66.2838C23.1282 66.3449 22.6978 66.5892 22.3596 66.9862C22.0522 67.3832 21.8985 67.8718 21.96 68.391C22.0214 68.9102 22.2674 69.3377 22.667 69.6737C23.0052 69.9485 23.4356 70.0707 23.866 70.0707C23.9275 70.0707 24.0197 70.0707 24.0812 70.0707C24.6039 70.0096 25.065 69.7653 25.3724 69.3683C25.6799 68.9713 25.8336 68.4826 25.7721 67.9635C25.7106 67.4748 25.4647 67.0167 25.065 66.6808C24.6961 66.4059 24.2964 66.2838 23.866 66.2838Z" fill="#005487" stroke="#1F4F85" stroke-width="0.25"/>
</g>
</svg>
