<svg width="87" height="88" viewBox="0 0 87 88" fill="none" xmlns="http://www.w3.org/2000/svg">
<path d="M86 44.3161C86 67.8917 66.9682 86.9964 43.5 86.9964C20.0318 86.9964 1 67.8917 1 44.3161C1 20.7405 20.0318 1.63574 43.5 1.63574C66.9682 1.63574 86 20.7405 86 44.3161Z" stroke="#1F4F85" stroke-width="2"/>
<path d="M33.0258 76.4097L34.387 70.7657C34.5815 69.9296 36.3316 62.7179 36.3316 62.7179C36.4289 62.1953 37.1095 59.4779 37.1095 59.4779C37.304 58.5372 39.5403 49.3397 39.5403 49.3397C39.7347 48.608 40.2209 46.6222 40.4153 45.6816C40.6098 44.7409 41.0959 43.1731 41.2904 42.2325C41.2904 42.2325 41.971 39.8286 42.1655 39.097C42.5544 37.6337 43.4295 35.3343 43.7212 34.4982C44.1101 33.662 45.6658 30.7356 46.3464 29.0633C46.6381 28.3317 46.8326 27.8091 47.2215 26.9729C47.9993 25.1961 48.6799 22.1651 48.8744 21.4335C48.9716 20.9109 49.2633 19.9703 49.3606 19.2386C49.3606 19.2386 49.6523 17.5664 49.7495 17.2528C49.8467 16.5212 49.4578 16.3121 49.3606 16.2076C49.0689 15.8941 48.7772 15.3715 48.7772 14.8489C48.7772 14.4308 48.7772 14.1173 48.9716 13.1766C49.1661 12.236 49.2633 11.8179 49.555 10.8772C49.7495 10.0411 50.0412 8.99592 50.819 8.78689C52.2775 8.2643 54.2221 9.62303 54.5138 10.0411C54.7082 10.3547 54.9999 10.9818 54.9999 11.7134C54.9027 13.2811 54.3193 15.0579 54.3193 15.0579C54.2221 15.5805 54.0276 15.9986 53.9304 16.3121C53.7359 16.7302 53.4442 17.1483 53.2498 17.4618C53.0553 17.6709 52.8609 17.9844 52.5692 19.6567L52.2775 20.9109C52.1802 21.4335 51.9858 22.0606 51.8886 22.4787C51.7913 23.0013 51.4996 24.151 51.3052 25.3006C51.1107 26.4503 51.0135 27.182 50.9163 27.9136C50.819 28.6452 50.7218 31.4672 50.7218 31.9898V35.5434C50.7218 36.1705 50.7218 37.0066 50.6246 38.0518C50.5273 39.097 50.3329 40.6647 50.1384 41.7099C49.9439 42.7551 49.4578 45.2635 48.9716 47.7719C48.4855 49.8623 48.291 50.9074 48.0966 51.43L44.4018 67.4212C44.1101 68.4664 43.9156 69.6161 43.7212 70.1386L42.0683 77.2458C41.971 77.7684 41.7766 78.6045 41.6793 78.8136C41.5821 79.1271 40.9987 79.8588 40.2209 79.9633C39.6375 79.9633 39.1513 79.9633 38.3735 79.8588C37.304 79.7542 36.04 79.3362 35.2621 78.9181C33.9981 78.5 33.512 77.9774 33.3175 77.5594C33.123 77.4549 32.9286 76.8278 33.0258 76.4097ZM51.4024 16.9392C51.4024 17.0438 51.4024 17.0438 51.4024 17.1483C51.4024 17.3573 51.0135 19.4477 51.0135 19.4477C50.819 20.1793 49.8467 24.0464 49.7495 24.6735C49.555 25.3006 49.1661 26.4503 48.8744 27.391C48.4855 28.3317 48.291 28.8542 47.9021 29.6904C47.5132 30.5265 47.1243 31.2581 46.7353 32.0943C46.7353 32.0943 45.3741 34.4982 44.4018 37.3202C44.2073 37.9473 43.235 41.0828 43.0406 41.8144C43.0406 41.8144 42.1655 45.2635 41.8738 46.2041C41.6793 47.1448 41.1932 49.1306 40.9987 49.8623L39.5403 55.9243C39.3458 56.8649 38.7624 59.1643 38.568 60.0004L38.179 61.4637C37.9846 62.0908 37.8873 62.7179 37.6929 63.345L36.3316 69.0935C36.2344 69.6161 35.9427 70.5567 35.7483 71.3928L34.5815 76.4097C34.5815 76.4097 34.387 76.8278 34.776 77.1413C34.9704 77.2458 35.2621 77.4549 35.651 77.6639C36.7206 78.082 37.6929 78.3955 38.3735 78.5C39.0541 78.6046 39.3458 78.6045 39.7347 78.6045C39.832 78.6045 39.8319 78.6045 39.9292 78.6045C40.0264 78.6045 40.2209 78.291 40.3181 78.082C40.4153 77.7684 40.5126 77.3503 40.6098 76.9323L42.2627 69.8251C42.3599 69.3025 42.6516 68.1528 42.9433 67.1076L46.6381 50.8029C46.7353 50.1758 47.027 49.2351 47.4159 47.1448C47.9021 44.7409 48.3883 42.2325 48.5827 41.1873C48.7772 40.1421 49.1661 35.8569 49.1661 35.2298C49.1661 34.7072 49.1661 33.9756 49.1661 33.5575C49.1661 33.5575 49.2633 30.0039 49.2633 29.4813C49.2633 28.9588 49.3606 28.1226 49.4578 27.391C49.555 26.6594 49.6523 25.9278 49.8467 24.6735C50.0412 23.4193 50.3329 22.2696 50.4301 21.7471C50.5273 21.4335 50.6246 20.8064 50.819 20.1793C50.819 20.1793 51.4996 17.5664 51.5969 17.1483C51.7913 16.6257 51.8886 16.4167 52.1803 16.1031C52.6664 15.5805 52.8609 14.8489 52.9581 14.3263L53.4442 12.654C53.5415 12.236 53.5415 11.8179 53.5415 11.6089C53.5415 11.2953 53.4442 10.7727 52.4719 10.4592C52.3747 10.4592 51.7913 10.2501 51.4996 10.4592C51.4024 10.5637 51.2079 10.8772 51.0135 11.2953C50.7218 12.1314 50.6246 12.5495 50.5273 13.4902C50.3329 14.3263 50.3329 14.5353 50.3329 14.6399C50.3329 14.8489 50.7218 15.3715 50.9163 15.685C51.1107 15.8941 51.2079 16.4167 51.2079 16.5212C51.4024 16.6257 51.4024 16.8347 51.4024 16.9392Z" fill="#1F4F85"/>
<path d="M1 50.9359C5.57912 46.2821 19.8889 41.5118 43.9293 52.6811C67.9697 63.8504 81.9933 54.4263 86 48.3181" stroke="#1F4F85"/>
</svg>
