<svg width="16" height="16" viewBox="0 0 16 16" fill="none" xmlns="http://www.w3.org/2000/svg">
<path d="M8.00004 11.6667C11.6819 11.6667 14.6667 9.87583 14.6667 7.66669C14.6667 5.45755 11.6819 3.66669 8.00004 3.66669C4.31814 3.66669 1.33337 5.45755 1.33337 7.66669C1.33337 9.87583 4.31814 11.6667 8.00004 11.6667Z" stroke="#65BF4F" stroke-width="1.5"/>
<path d="M8.00004 11.6667C11.6819 11.6667 14.6667 9.87583 14.6667 7.66669C14.6667 5.45755 11.6819 3.66669 8.00004 3.66669C4.31814 3.66669 1.33337 5.45755 1.33337 7.66669C1.33337 9.87583 4.31814 11.6667 8.00004 11.6667Z" stroke="#A1A75C" stroke-width="1.5"/>
<path d="M12.6667 10.3334C12.3334 11.6667 10.2552 13 8.00004 13C5.74488 13 3.66671 11.6667 3.33337 10.3334" stroke="#65BF4F" stroke-width="1.5"/>
<path d="M12.6667 10.3334C12.3334 11.6667 10.2552 13 8.00004 13C5.74488 13 3.66671 11.6667 3.33337 10.3334" stroke="#A1A75C" stroke-width="1.5"/>
<path d="M12.0772 8.42926C11.9173 9.5072 10.9314 9.99733 9.14484 9.98906C6.86284 9.9786 5.87658 8.61126 6.03645 7.53333C6.19632 6.45536 7.67818 5.78206 9.34631 6.02946C11.0144 6.27686 12.237 7.35126 12.0772 8.42926Z" stroke="#65BF4F" stroke-width="1.5"/>
<path d="M12.0772 8.42926C11.9173 9.5072 10.9314 9.99733 9.14484 9.98906C6.86284 9.9786 5.87658 8.61126 6.03645 7.53333C6.19632 6.45536 7.67818 5.78206 9.34631 6.02946C11.0144 6.27686 12.237 7.35126 12.0772 8.42926Z" stroke="#A1A75C" stroke-width="1.5"/>
<path d="M6.00723 7.18559C4.72882 7.02339 3.61849 7.47485 3.52723 8.19399C3.43598 8.91319 4.39836 9.62765 5.67676 9.78985C6.26382 9.86439 6.81541 9.80945 7.24921 9.65865" stroke="#65BF4F" stroke-width="1.5" stroke-linecap="round"/>
<path d="M6.00723 7.18559C4.72882 7.02339 3.61849 7.47485 3.52723 8.19399C3.43598 8.91319 4.39836 9.62765 5.67676 9.78985C6.26382 9.86439 6.81541 9.80945 7.24921 9.65865" stroke="#A1A75C" stroke-width="1.5" stroke-linecap="round"/>
</svg>
