<svg width="95" height="70" viewBox="0 0 95 70" fill="none" xmlns="http://www.w3.org/2000/svg">
<g clip-path="url(#clip0)">
<path d="M26.3594 39.6296C27.6247 36.7525 34.0722 25.8438 34.0722 23.9258C34.0722 23.2664 33.8311 22.5472 33.4997 22.5472C32.9574 22.5472 28.1068 30.5789 24.7927 38.5507C23.3165 38.7905 21.9607 38.9103 20.9364 38.9703C21.5992 37.5317 22.2922 36.1831 22.985 34.8945L23.8286 33.3361C26.2388 28.8708 28.3478 25.7839 28.3478 23.9258C28.3478 23.2664 28.1068 22.5472 27.7754 22.5472C26.8413 22.5472 20.2133 35.434 19.0081 38.9703C17.8332 39.1202 16.2968 39.4498 15.1519 39.8095C16.8691 36.2131 17.562 34.8345 18.0441 33.9355C20.364 29.4701 22.4729 26.3832 22.4729 24.3454C22.4729 23.656 22.2318 22.9368 21.8704 22.9368C21.1774 22.9368 17.4717 29.9496 15.5436 34.0853C13.8563 37.7416 13.7358 38.251 13.5551 38.7306C13.2538 39.5397 13.2538 39.9293 13.525 40.4388C13.7358 40.8283 13.9166 41.2779 14.1577 41.5476C14.5191 41.9973 14.8506 41.9973 15.423 41.8474C17.1102 41.3978 20.3941 40.6785 21.7197 40.6486C23.2562 40.6186 24.4011 40.4987 25.3953 40.4388C25.9677 40.3489 26.1184 40.1691 26.3594 39.6296Z" fill="#71B639"/>
<path d="M45.6712 24.7949C46.0328 24.8549 46.093 24.645 46.0026 24.4053C45.6411 23.4164 44.9783 22.9069 43.7129 22.9369C42.0258 22.9668 38.7117 23.8359 36.2111 23.686C35.9098 23.6561 35.8194 23.776 35.8797 24.0457C36.0604 24.6751 36.3919 25.2744 37.1451 25.5741C34.6143 29.4701 31.6016 35.0443 30.2156 38.7306C29.9145 39.5397 29.9145 39.9293 30.1856 40.4389C30.3965 40.8284 30.5773 41.2779 30.8182 41.5476C31.1797 41.9973 31.5112 41.9973 32.0836 41.8474C33.7707 41.3979 37.0547 40.6186 38.7418 40.6486C39.1033 40.6486 39.1335 40.4687 39.0431 40.199C38.7117 39.3 37.9585 38.8205 36.4822 38.8804C35.247 38.9404 33.2586 39.3599 31.8124 39.8095C32.4451 38.4009 33.2586 36.7526 34.1323 35.0743C35.8194 34.6548 38.079 34.2352 39.7059 34.2352C40.0976 34.2352 40.0976 34.0554 40.0071 33.7856C39.7059 32.8566 39.0431 32.3771 37.5367 32.4371C36.9944 32.467 36.2111 32.527 35.3977 32.6768C36.874 30.0096 38.3502 27.4023 39.5554 25.604C41.3931 25.3044 43.502 24.765 45.6712 24.7949Z" fill="#71B639"/>
<path d="M50.2139 35.7699C52.1926 31.9781 54.2897 28.18 55.4028 26.2334C55.9712 25.234 56.2959 24.3964 56.4458 23.6973C58.0999 23.9625 58.747 24.7774 58.747 26.4433C58.747 30.775 54.5144 35.0314 50.2139 35.7699ZM45.1594 32.6768C45.1594 28.7605 50.2644 24.1216 54.2855 23.64C52.3203 26.8699 49.5978 31.9253 47.7555 35.7996C45.9628 35.5226 45.1594 34.5303 45.1594 32.6768ZM60.8861 27.1025C60.8861 25.129 59.1342 23.2398 56.5336 23.1225C56.5869 22.5094 56.4895 22.025 56.3067 21.6482C56.1259 21.2886 55.8548 21.2285 55.5836 21.6182C55.4019 21.8793 55.2025 22.1794 54.9891 22.5117C54.7027 22.4759 54.3257 22.4573 53.8061 22.4573C48.5638 22.4573 42.8696 26.3533 42.8696 32.1973C42.8696 34.1792 44.0113 36.1183 47.3345 36.6977C46.8054 37.8444 46.3748 38.8526 46.0934 39.6296C45.4306 41.4578 45.792 42.5066 46.2139 42.9563C46.4549 43.2259 46.5754 43.1959 46.6959 42.8963C47.4578 41.1938 48.5125 39.0634 49.6433 36.87C56.2398 36.8178 60.8861 32.3166 60.8861 27.1025Z" fill="#71B639"/>
<path d="M60.9766 35.9434C61.0369 38.4009 62.2119 40.2589 63.5676 40.9783C65.1944 41.8474 67.7252 41.8773 69.8642 40.349C71.1296 39.4498 73.0578 37.2022 72.3046 35.1942C72.1539 34.8046 71.8226 34.8046 71.6719 35.1342C69.3823 39.5997 66.1887 41.6076 64.2605 40.0492C62.7842 38.8505 62.483 34.4151 65.1342 30.0395C67.8457 25.5742 72.4251 23.1466 73.2686 24.0457C73.9616 24.765 72.877 26.4732 72.3951 28.0615C71.943 29.56 72.4251 30.489 73.1181 30.9385C73.4796 31.1784 73.6905 30.9985 73.7809 30.7588C74.1123 29.8897 74.5341 28.7209 74.986 27.7918C75.4379 26.8628 75.5283 26.0236 75.2571 25.1546C75.0161 24.4053 74.3231 23.5362 73.6603 22.9668C72.6962 22.1276 71.22 22.2475 69.5931 22.8769C66.2188 24.1656 60.856 29.59 60.9766 35.9434Z" fill="#71B639"/>
<path d="M52.133 44.5763C50.4567 46.8603 50.0517 47.894 49.5845 49.5619C49.2668 50.6804 49.4049 51.248 49.7299 51.5337C49.8816 51.6681 50.0423 51.6221 50.0944 51.4748C51.4544 48.0762 52.0147 47.5549 52.6847 46.1803C53.083 45.3631 52.8735 44.962 52.6877 44.6134C52.5247 44.2995 52.3027 44.3495 52.133 44.5763Z" fill="#71B639"/>
<path d="M76.4529 44.1506C77.0154 43.6651 77.9437 43.4629 78.082 44.0304C78.1635 44.3494 78.1104 44.8029 78.0029 45.3678C77.8945 45.915 77.5426 46.8195 77.2686 47.3407C76.3746 49.0534 75.1715 49.7591 74.5746 49.3823C74.0198 49.021 74.2211 47.3517 74.9906 45.9349C75.3752 45.2266 75.9288 44.5976 76.4529 44.1506ZM66.6405 50.0956C65.8446 50.1277 66.0095 48.5326 66.9919 46.9224C68.0116 45.2559 69.4252 43.9967 70.0808 44.0098C70.6751 44.0265 70.5622 45.15 69.4034 47.2035C68.4641 48.8469 67.4772 50.0613 66.6405 50.0956ZM81.099 39.0153C81.7159 38.4184 81.8402 37.4744 81.6907 37.0516C81.6159 36.8401 81.4937 36.8478 81.3815 37.0168C80.7694 38.0096 79.7619 38.577 78.9118 39.0446C76.2844 40.4866 75.1331 42.0161 73.5814 45.5825C73.2019 46.3422 72.99 47.1134 73.0164 47.8081C72.3804 48.9119 71.4932 49.9043 70.766 49.9813C70.0754 50.0605 70.047 49.288 70.4927 48.2517C70.9216 47.2703 71.8551 45.8613 72.2524 45.0261C72.6847 44.0986 72.4729 43.3375 72.1468 43.0338C71.9938 42.8813 71.833 42.9275 71.6644 43.1722C71.4585 43.4732 71.2378 43.8652 71.0001 44.3122C70.9967 43.6102 70.5516 43.0439 69.6753 43.0988C68.6563 43.1626 67.0977 44.0706 65.5811 46.2906C64.898 47.2913 64.6182 48.2873 64.6797 49.0796C64.1472 49.8195 63.5644 50.373 63.0199 50.4307C62.2274 50.5164 62.1084 49.9296 62.5099 48.842L63.8791 44.9387C64.1042 44.2943 64.0406 43.6141 63.7145 43.3103C63.5401 43.1412 63.196 43.1987 63.0081 43.4627L61.0536 46.5203C59.1002 49.5959 58.1699 50.7346 57.6401 50.7679C57.384 50.784 57.2728 50.4986 57.2897 50.1036C57.518 49.825 57.6962 49.5408 57.8331 49.2972C58.1106 48.8297 58.1239 48.3966 58.0084 48.1878C57.8929 47.9789 57.7107 48.0083 57.602 48.2314C57.5348 48.3742 57.46 48.5215 57.3791 48.6701C57.1329 48.7488 56.8142 48.9738 56.7068 49.2779C56.6304 49.4858 56.5685 49.7089 56.5336 49.9283C56.0953 50.4493 55.6165 50.8235 55.1877 50.8136C54.4089 50.7903 53.7735 49.8037 53.5989 48.338C55.7486 47.3931 56.611 46.4746 57.2537 45.3179C57.6578 44.5902 57.2171 43.7716 56.6842 44.3991C55.4662 45.8441 54.2032 46.8957 52.5062 47.5602C52.1269 47.71 52.0884 47.7484 52.1088 48.0714C52.2215 50.4952 53.4886 51.4423 54.9161 51.3708C55.6048 51.3353 56.1562 51.0938 56.5972 50.7684C56.7443 51.1045 57.0828 51.3251 57.7341 51.2842C58.8345 51.2152 60.084 49.9485 61.6322 46.9343L61.7964 46.942C60.2223 50.1919 60.9358 51.1196 62.8105 51.0021C63.5689 50.9546 64.3445 50.5269 64.9321 49.9527C65.2206 50.4548 65.7405 50.7465 66.4538 50.7017C67.4319 50.6404 68.307 49.9192 68.9124 49.1431C68.9658 49.986 69.5728 50.5242 70.6766 50.5091C71.6503 50.4948 72.6961 49.6922 73.2625 48.8151C73.3613 49.0141 73.4889 49.2003 73.6531 49.3682C74.5273 50.2496 75.5507 50.2575 76.2708 49.9964C77.7503 49.4535 78.9816 47.5756 79.2507 46.0101C79.3401 45.4822 79.3117 45.3579 79.323 45.2132C79.3635 43.9142 78.7442 43.8269 78.2403 43.3002C77.802 42.8415 77.4454 42.7017 76.8159 42.7772C76.3892 42.8292 75.968 43.0022 75.5703 43.2568C76.7645 40.9647 79.9544 40.1584 81.099 39.0153Z" fill="#71B639"/>
<path d="M29.967 18.5313C30.0185 18.5417 30.07 18.5522 30.1216 18.5627C30.3778 18.615 30.641 18.5276 30.8181 18.336C35.3487 13.4353 41.8439 10.3586 49.0488 10.3586C56.0146 10.3586 62.3172 13.2345 66.8221 17.8542C67.069 18.1074 67.461 18.1455 67.7585 17.9538C67.7603 17.9527 67.7621 17.9515 67.7638 17.9504C67.7974 17.9288 67.8311 17.9072 67.8649 17.8856C68.2582 17.6341 68.3267 17.0874 68.0015 16.7532C63.201 11.8209 56.4789 8.74996 49.0488 8.74996C41.3432 8.74996 34.3987 12.0526 29.5698 17.3092C29.1807 17.7329 29.4017 18.4167 29.967 18.5313Z" fill="#71B639"/>
<path d="M65.6309 53.9365C65.6256 53.934 65.6202 53.9315 65.6149 53.929C65.3321 53.7955 64.9994 53.8403 64.7576 54.0381C60.4795 57.5374 55.0068 59.6414 49.0488 59.6414C38.4169 59.6414 29.328 52.9441 25.8215 43.5679C25.6762 43.1794 25.2572 42.9662 24.8562 43.0789C24.8509 43.0804 24.8457 43.0819 24.8405 43.0833C24.3914 43.2092 24.1422 43.6889 24.3048 44.1239C28.0394 54.1137 37.7216 61.25 49.0488 61.25C55.4012 61.25 61.2363 59.0054 65.7954 55.2718C66.2485 54.9008 66.1609 54.187 65.6309 53.9365Z" fill="#71B639"/>
</g>
<defs>
<clipPath id="clip0">
<rect width="95" height="70" fill="white"/>
</clipPath>
</defs>
</svg>
