<svg width="48" height="49" viewBox="0 0 48 49" fill="none" xmlns="http://www.w3.org/2000/svg">
<ellipse cx="24" cy="24.431" rx="24" ry="24.0995" fill="#369BEA"/>
<path d="M23.2929 30.1589C23.6834 30.5494 24.3166 30.5494 24.7071 30.1589L31.0711 23.795C31.4616 23.4044 31.4616 22.7713 31.0711 22.3807C30.6805 21.9902 30.0474 21.9902 29.6569 22.3807L24 28.0376L18.3431 22.3807C17.9526 21.9902 17.3195 21.9902 16.9289 22.3807C16.5384 22.7713 16.5384 23.4044 16.9289 23.795L23.2929 30.1589ZM23 9.3689L23 29.4518L25 29.4518L25 9.3689L23 9.3689Z" fill="white"/>
<line x1="14" y1="35.4808" x2="34" y2="35.4808" stroke="white" stroke-width="2"/>
</svg>
