<svg width="78" height="89" viewBox="0 0 78 89" fill="none" xmlns="http://www.w3.org/2000/svg">
<path d="M10.0629 12.061L17.6314 4.46102C19.2265 2.85935 21.3938 1.95898 23.6543 1.95898H59C63.6944 1.95898 67.5 5.76456 67.5 10.459V78.8238C67.5 83.5182 63.6944 87.3238 59 87.3238H10C5.30558 87.3238 1.5 83.5182 1.5 78.8238V24.1699C1.5 21.9216 2.39071 19.7649 3.97717 18.1719L10.0629 12.061Z" stroke="#1F4F85" stroke-width="3"/>
<path d="M21 2.46729V16.546C21 19.3075 18.7614 21.546 16 21.546H1" stroke="#1F4F85" stroke-width="3"/>
<path d="M10 35.6041H20" stroke="#1F4F85" stroke-width="2" stroke-linecap="round"/>
<path d="M27 35.6041L59 35.6041" stroke="#1F4F85" stroke-width="2" stroke-linecap="round"/>
<path d="M10 47.6538H20" stroke="#1F4F85" stroke-width="2" stroke-linecap="round"/>
<path d="M27 47.6538L59 47.6538" stroke="#1F4F85" stroke-width="2" stroke-linecap="round"/>
<path d="M10 59.7036H20" stroke="#1F4F85" stroke-width="2" stroke-linecap="round"/>
<path d="M27 59.7036L59 59.7036" stroke="#1F4F85" stroke-width="2" stroke-linecap="round"/>
<path d="M10 71.7533H20" stroke="#1F4F85" stroke-width="2" stroke-linecap="round"/>
<path d="M27 71.7533L59 71.7533" stroke="#1F4F85" stroke-width="2" stroke-linecap="round"/>
<rect x="32" y="8.49219" width="46" height="19.0788" rx="3" fill="#A665A7"/>
<path d="M41.6602 18.7256V21.5088H40.7666V14.3994H43.0322C43.693 14.3994 44.2122 14.598 44.5898 14.9951C44.9674 15.389 45.1562 15.9147 45.1562 16.5723C45.1562 17.2559 44.9756 17.7832 44.6143 18.1543C44.2562 18.5221 43.75 18.7126 43.0957 18.7256H41.6602ZM41.6602 17.959H43.0322C43.4294 17.959 43.7337 17.8402 43.9453 17.6025C44.1569 17.3649 44.2627 17.0247 44.2627 16.582C44.2627 16.1556 44.1536 15.8138 43.9355 15.5566C43.7174 15.2995 43.418 15.1709 43.0371 15.1709H41.6602V17.959ZM48.4619 18.6328H47.2119V21.5088H46.3135V14.3994H48.3057C49.0023 14.3994 49.5296 14.5817 49.8877 14.9463C50.2458 15.3076 50.4248 15.8382 50.4248 16.5381C50.4248 16.9775 50.3271 17.3617 50.1318 17.6904C49.9398 18.016 49.6663 18.2617 49.3115 18.4277L50.6885 21.4502V21.5088H49.7266L48.4619 18.6328ZM47.2119 17.8662H48.2959C48.6702 17.8662 48.9681 17.7458 49.1895 17.5049C49.4141 17.264 49.5264 16.9417 49.5264 16.5381C49.5264 15.6266 49.113 15.1709 48.2861 15.1709H47.2119V17.8662ZM56.25 18.5791C56.25 19.5492 56.0433 20.2962 55.6299 20.8203C55.2165 21.3444 54.6289 21.6064 53.8672 21.6064C53.1348 21.6064 52.5553 21.3525 52.1289 20.8447C51.7057 20.3337 51.486 19.6126 51.4697 18.6816V17.3438C51.4697 16.3932 51.6797 15.6494 52.0996 15.1123C52.5195 14.5719 53.1055 14.3018 53.8574 14.3018C54.6061 14.3018 55.1888 14.5605 55.6055 15.0781C56.0254 15.5924 56.2402 16.3281 56.25 17.2852V18.5791ZM55.3564 17.334C55.3564 16.582 55.2327 16.0238 54.9854 15.6592C54.7412 15.2913 54.3652 15.1074 53.8574 15.1074C53.3659 15.1074 52.9932 15.293 52.7393 15.6641C52.4886 16.0352 52.3617 16.582 52.3584 17.3047V18.5791C52.3584 19.305 52.4837 19.8584 52.7344 20.2393C52.9883 20.6201 53.3659 20.8105 53.8672 20.8105C54.3685 20.8105 54.7396 20.6348 54.9805 20.2832C55.2214 19.9316 55.3467 19.3929 55.3564 18.667V17.334ZM58.7842 14.3994L60.6396 20.2002L62.4951 14.3994H63.6475V21.5088H62.7539V18.7402L62.8369 15.9668L60.9766 21.5088H60.293L58.4424 15.9863L58.5254 18.7402V21.5088H57.6318V14.3994H58.7842ZM69.8145 18.5791C69.8145 19.5492 69.6077 20.2962 69.1943 20.8203C68.7809 21.3444 68.1934 21.6064 67.4316 21.6064C66.6992 21.6064 66.1198 21.3525 65.6934 20.8447C65.2702 20.3337 65.0505 19.6126 65.0342 18.6816V17.3438C65.0342 16.3932 65.2441 15.6494 65.6641 15.1123C66.084 14.5719 66.6699 14.3018 67.4219 14.3018C68.1706 14.3018 68.7533 14.5605 69.1699 15.0781C69.5898 15.5924 69.8047 16.3281 69.8145 17.2852V18.5791ZM68.9209 17.334C68.9209 16.582 68.7972 16.0238 68.5498 15.6592C68.3057 15.2913 67.9297 15.1074 67.4219 15.1074C66.9303 15.1074 66.5576 15.293 66.3037 15.6641C66.0531 16.0352 65.9261 16.582 65.9229 17.3047V18.5791C65.9229 19.305 66.0482 19.8584 66.2988 20.2393C66.5527 20.6201 66.9303 20.8105 67.4316 20.8105C67.9329 20.8105 68.304 20.6348 68.5449 20.2832C68.7858 19.9316 68.9111 19.3929 68.9209 18.667V17.334Z" fill="white"/>
</svg>
