<svg width="87" height="88" viewBox="0 0 87 88" fill="none" xmlns="http://www.w3.org/2000/svg">
<path d="M86 43.7975C86 67.3731 66.9682 86.4778 43.5 86.4778C20.0318 86.4778 1 67.3731 1 43.7975C1 20.2219 20.0318 1.11719 43.5 1.11719C66.9682 1.11719 86 20.2219 86 43.7975Z" stroke="#1F4F85" stroke-width="2"/>
<g clip-path="url(#clip0)">
<path d="M20.7729 45.6989C21.1941 45.6989 21.5802 45.6282 21.9663 45.5222C22.3173 45.3807 22.6332 45.2039 22.914 44.9564C23.1948 44.7089 23.3703 44.4261 23.5458 44.0725C23.6862 43.7189 23.7564 43.3654 23.7564 42.9411C23.7564 42.0571 23.5107 41.3854 22.9842 40.9611C22.4226 40.5368 21.7206 40.3246 20.808 40.3246H19.404V39.7589L22.1067 35.5514L22.9842 34.7028L21.7557 34.8796H18.0351V33.4653H24.7744V34.031L21.7557 38.5921L21.0888 39.1578V39.1932L21.7206 39.0518C22.212 39.0518 22.7034 39.1578 23.1246 39.3346C23.5458 39.5114 23.9319 39.7589 24.2479 40.0771C24.5638 40.3953 24.8095 40.7843 24.985 41.2439C25.1605 41.7036 25.2658 42.1986 25.2658 42.7643C25.2658 43.4361 25.1605 44.0725 24.9148 44.6029C24.6691 45.1332 24.3532 45.5929 23.9319 45.9464C23.5107 46.3 23.0544 46.5829 22.4928 46.7597C21.9312 46.9364 21.3696 47.0425 20.7378 47.0425C20.1762 47.0425 19.6497 47.0072 19.1934 46.9011C18.7371 46.795 18.351 46.6889 18 46.5475L18.3861 45.2039C18.6669 45.3454 19.0179 45.4514 19.404 45.5575C19.8252 45.6636 20.2815 45.6989 20.7729 45.6989Z" fill="#005487"/>
<path d="M30.6713 45.6989C31.5488 45.6989 32.2508 45.4514 32.8124 44.9211C33.374 44.4261 33.6548 43.6836 33.6548 42.7289C33.6548 41.8096 33.374 41.1025 32.8124 40.6429C32.2508 40.1832 31.4786 39.9711 30.4958 39.9711L28.9163 40.0771V33.4653H34.8131V34.8796H30.3203V38.6628L31.1276 38.6275C32.3561 38.6275 33.3389 38.9811 34.076 39.6882C34.778 40.36 35.1641 41.35 35.1641 42.6229C35.1641 43.33 35.0588 43.9664 34.8131 44.5321C34.5674 45.0979 34.2515 45.5575 33.8303 45.9111C33.4091 46.2647 32.9528 46.5475 32.3912 46.7597C31.8296 46.9364 31.2329 47.0425 30.6011 47.0425C30.0395 47.0425 29.5481 47.0072 29.162 46.9364C28.7759 46.8657 28.3898 46.7597 28.0739 46.6536L28.46 45.3454C28.7408 45.4514 29.0567 45.5575 29.4077 45.5929C29.7587 45.6636 30.1799 45.6989 30.6713 45.6989Z" fill="#005487"/>
<path d="M37.7264 40.1486C37.7264 37.8503 38.0774 36.1532 38.8145 34.9864C39.5868 33.8196 40.6398 33.2539 42.0789 33.2539C43.5882 33.2539 44.6763 33.8196 45.3783 34.9511C46.0803 36.0825 46.3962 37.815 46.3962 40.1486C46.3962 42.4468 46.0452 44.1439 45.3081 45.3107C44.571 46.4775 43.4829 47.0432 42.0789 47.0432C40.5696 47.0432 39.4815 46.4422 38.7794 45.24C38.0774 44.0025 37.7264 42.3054 37.7264 40.1486ZM39.306 40.1486C39.306 40.9618 39.3762 41.7396 39.4815 42.4114C39.5868 43.0832 39.7623 43.6843 39.9729 44.1793C40.1835 44.6743 40.4994 45.0632 40.8153 45.3107C41.1663 45.5936 41.5875 45.735 42.0438 45.735C42.9915 45.735 43.6935 45.2754 44.1498 44.3914C44.6061 43.5075 44.8167 42.0932 44.8167 40.1839C44.8167 39.3707 44.7816 38.6282 44.6763 37.9564C44.571 37.2846 44.4306 36.6836 44.22 36.1886C44.0094 35.6936 43.7286 35.3046 43.3776 35.0571C43.0266 34.7743 42.6054 34.6682 42.0789 34.6682C41.1312 34.6682 40.4292 35.1278 40.008 36.0118C39.5166 36.825 39.306 38.2393 39.306 40.1486Z" fill="#005487"/>
<path d="M48.0459 40.1486C48.0459 37.8503 48.3969 36.1532 49.134 34.9864C49.8711 33.8196 50.9592 33.2539 52.3632 33.2539C53.8725 33.2539 54.9958 33.8196 55.6627 34.9511C56.3647 36.0825 56.6806 37.815 56.6806 40.1486C56.6806 42.4468 56.3296 44.1439 55.5925 45.3107C54.8554 46.4775 53.7672 47.0432 52.3632 47.0432C50.8539 47.0432 49.7658 46.4422 49.0638 45.24C48.3618 44.0025 48.0459 42.3054 48.0459 40.1486ZM49.5903 40.1486C49.5903 40.9618 49.6605 41.7396 49.7658 42.4114C49.8711 43.0832 50.0466 43.6843 50.2572 44.1793C50.4678 44.6743 50.7837 45.0632 51.0996 45.3107C51.4506 45.5936 51.8718 45.735 52.3281 45.735C53.2758 45.735 53.9778 45.2754 54.4341 44.3914C54.8905 43.5075 55.1011 42.0932 55.1011 40.1839C55.1011 39.3707 55.066 38.6282 54.9607 37.9564C54.8554 37.2846 54.715 36.6836 54.5043 36.1886C54.2937 35.6936 54.0129 35.3046 53.6619 35.0571C53.3109 34.7743 52.8897 34.6682 52.3632 34.6682C51.4155 34.6682 50.7135 35.1278 50.2923 36.0118C49.836 36.825 49.5903 38.2393 49.5903 40.1486Z" fill="#005487"/>
<path d="M58.3302 40.1486C58.3302 37.8503 58.6812 36.1532 59.4183 34.9864C60.1554 33.8196 61.2435 33.2539 62.6475 33.2539C64.1568 33.2539 65.28 33.8196 65.947 34.9511C66.649 36.0825 66.9649 37.815 66.9649 40.1486C66.9649 42.4468 66.6139 44.1439 65.8767 45.3107C65.1396 46.4775 64.0515 47.0432 62.6475 47.0432C61.1382 47.0432 60.0501 46.4422 59.3481 45.24C58.6812 44.0025 58.3302 42.3054 58.3302 40.1486ZM59.9097 40.1486C59.9097 40.9618 59.9799 41.7396 60.0852 42.4114C60.1905 43.0832 60.366 43.6843 60.5766 44.1793C60.7872 44.6743 61.1031 45.0632 61.419 45.3107C61.77 45.5936 62.1912 45.735 62.6475 45.735C63.5952 45.735 64.2972 45.2754 64.7535 44.3914C65.2098 43.5075 65.4205 42.0932 65.4205 40.1839C65.4205 39.3707 65.3853 38.6282 65.28 37.9564C65.1747 37.2846 65.0343 36.6836 64.8237 36.1886C64.6131 35.6936 64.3323 35.3046 63.9813 35.0571C63.6303 34.7743 63.2091 34.6682 62.6826 34.6682C61.7349 34.6682 61.0329 35.1278 60.6117 36.0118C60.1203 36.825 59.9097 38.2393 59.9097 40.1486Z" fill="#005487"/>
<path d="M49.836 49.4121L50.5029 49.695L46.7121 58.3575L46.0452 58.0746L49.836 49.4121Z" fill="#005487"/>
<path d="M55.2063 53.7611L55.2765 52.7711H55.2063L54.8202 53.5843L53.5566 55.635H53.2758L51.9771 53.5843L51.6261 52.7711H51.591L51.6963 53.7611V56.8725H50.9241V51.6396H51.7314L53.1705 53.9732L53.4864 54.5743H53.5215L53.8374 53.9379L55.2063 51.6396H56.0487V56.8725H55.2063V53.7611Z" fill="#005487"/>
<path d="M60.6119 53.7964L60.647 53.16H60.6119L60.1907 53.8318L57.8389 56.9079H57.3475V51.6396H58.1899V54.8218L58.1548 55.4229H58.1899L58.6111 54.7864L60.9629 51.6396H61.4543V56.8725H60.6119V53.7964Z" fill="#005487"/>
<path d="M65.9471 54.5743H63.5953V56.8725H62.7529V51.6396H63.5953V53.8318H65.9471V51.6396H66.7895V56.8725H65.9471V54.5743Z" fill="#005487"/>
</g>
<defs>
<clipPath id="clip0">
<rect width="49" height="25.1036" fill="white" transform="translate(18 33.2539)"/>
</clipPath>
</defs>
</svg>
