<svg width="87" height="88" viewBox="0 0 87 88" fill="none" xmlns="http://www.w3.org/2000/svg">
<path d="M86 43.7975C86 67.3731 66.9682 86.4778 43.5 86.4778C20.0318 86.4778 1 67.3731 1 43.7975C1 20.2219 20.0318 1.11719 43.5 1.11719C66.9682 1.11719 86 20.2219 86 43.7975Z" stroke="#1F4F85" stroke-width="2"/>
<path d="M57.7171 30.8524L60.961 27.5623C61.1463 27.3742 61.1463 27.0922 60.961 26.9042C60.7756 26.7162 60.4976 26.7162 60.3122 26.9042L57.0683 30.1944C53.8244 26.9982 49.3756 25.0241 44.4634 24.8361V19.6658C44.4634 19.3838 44.278 19.1958 44 19.1958C43.722 19.1958 43.5366 19.3838 43.5366 19.6658V24.8361C33.2488 25.1181 25 33.6726 25 44.1072C25 54.7297 33.5268 63.3782 44 63.3782C54.4732 63.3782 63 54.7297 63 44.1072C63 38.9369 60.961 34.3306 57.7171 30.8524ZM44 62.4382C33.9902 62.4382 25.9268 54.2597 25.9268 44.1072C25.9268 33.9546 33.9902 25.7762 44 25.7762C54.0098 25.7762 62.0732 33.9546 62.0732 44.1072C62.0732 54.2597 54.0098 62.4382 44 62.4382Z" fill="#005487" stroke="#005487" stroke-width="0.5"/>
<path d="M39.5556 20.1999H48.4444C48.7778 20.1999 49 19.9991 49 19.6979C49 19.3966 48.7778 19.1958 48.4444 19.1958H39.5556C39.2222 19.1958 39 19.3966 39 19.6979C39 19.9991 39.2222 20.1999 39.5556 20.1999Z" fill="#005487" stroke="#005487" stroke-width="0.5"/>
<path d="M52.0604 36.3832L44.1484 44.4925C43.9505 44.6952 43.9505 44.9993 44.1484 45.2021C44.2473 45.3034 44.3462 45.3034 44.544 45.3034C44.6429 45.3034 44.8407 45.3034 44.9396 45.2021L52.8516 37.0927C53.0494 36.89 53.0494 36.5859 52.8516 36.3832C52.6538 36.1804 52.2582 36.2818 52.0604 36.3832Z" fill="#005487" stroke="#005487" stroke-width="0.5"/>
</svg>
