<svg width="87" height="89" viewBox="0 0 87 89" fill="none" xmlns="http://www.w3.org/2000/svg">
<path d="M86 44.3244C86 67.9 66.9682 87.0047 43.5 87.0047C20.0318 87.0047 1 67.9 1 44.3244C1 20.7488 20.0318 1.64404 43.5 1.64404C66.9682 1.64404 86 20.7488 86 44.3244Z" stroke="#1F4F85" stroke-width="2"/>
<path d="M39.7738 45.8307C39.619 45.8307 39.619 45.8307 39.4643 45.674C39.1548 45.5173 39 45.2039 39 45.0472V27.4963C39 27.1829 39.1548 26.8695 39.4643 26.8695C39.619 26.7128 39.9286 26.7128 40.2381 26.8695L51.6905 35.6449C51.8452 35.8016 52 35.9583 52 36.2717C52 36.5852 51.8452 36.7419 51.6905 36.8986L40.2381 45.674C40.0833 45.8307 39.9286 45.8307 39.7738 45.8307ZM40.5476 29.0633V43.4802L49.9881 36.2717L40.5476 29.0633Z" fill="#005487"/>
<path d="M39.7738 61.8971C39.619 61.8971 39.619 61.8971 39.4643 61.7404C39.1548 61.5837 39 61.2703 39 61.1136V43.5627C39 43.2493 39.1548 42.9359 39.4643 42.9359C39.7738 42.7792 40.0833 42.7792 40.2381 42.9359L51.6905 51.7113C51.8452 51.868 52 52.0247 52 52.3382C52 52.6516 51.8452 52.8083 51.6905 52.965L40.2381 61.7404C40.0833 61.8971 39.9286 61.8971 39.7738 61.8971ZM40.5476 45.1297V59.5466L49.9881 52.3382L40.5476 45.1297Z" fill="#005487"/>
<path d="M29.7795 51.8556C29.6264 51.8556 29.3202 51.715 29.1671 51.5743C28.861 51.293 29.014 50.8711 29.3202 50.5898L48.7618 36.9468C49.0679 36.6655 49.5272 36.8061 49.8334 37.0874C50.1395 37.3687 49.9864 37.7907 49.6803 38.072L30.2387 51.715C30.0856 51.8556 29.9325 51.8556 29.7795 51.8556Z" fill="#005487"/>
<path d="M49.221 51.8556C49.0679 51.8556 48.9149 51.8556 48.7618 51.7137L29.3202 38.084C29.014 37.8001 28.861 37.3742 29.1671 37.0902C29.4733 36.8063 29.9325 36.6643 30.2387 36.9482L49.6803 50.7198C49.9864 51.0038 50.1395 51.4297 49.8334 51.7137C49.6803 51.7137 49.5272 51.8556 49.221 51.8556Z" fill="#005487"/>
<path d="M52.9781 49.8474C52.8004 49.8474 52.4448 49.8474 52.267 49.6813C51.9115 49.3491 51.9115 48.8508 52.267 48.5186C53.5115 47.3559 54.2226 45.861 54.2226 44.3661C54.2226 42.7051 53.5115 41.3763 52.267 40.2136C51.9115 39.8814 51.9115 39.3831 52.267 39.0509C52.6226 38.7187 53.1559 38.7187 53.5115 39.0509C55.1115 40.5458 56.0004 42.3729 56.0004 44.3661C56.0004 46.3593 55.1115 48.3525 53.5115 49.6813C53.3337 49.6813 53.1559 49.8474 52.9781 49.8474Z" fill="#005487"/>
<path d="M55.9018 51.8556C55.7378 51.8556 55.41 51.8556 55.246 51.5701C54.9182 51.2846 54.9182 50.8563 55.246 50.5707C57.2132 48.8575 58.3608 46.7159 58.3608 44.2889C58.3608 41.8618 57.2132 39.7202 55.246 38.007C54.9182 37.7215 54.9182 37.2932 55.246 37.0076C55.5739 36.7221 56.0657 36.7221 56.3936 37.0076C58.6886 39.0064 60.0001 41.5762 60.0001 44.2889C60.0001 47.0015 58.6886 49.5713 56.3936 51.5701C56.3936 51.8556 56.2296 51.8556 55.9018 51.8556Z" fill="#005487"/>
<path d="M59.7147 54.8683C59.5848 54.8683 59.325 54.8683 59.1952 54.5703C58.9354 54.2722 58.9354 53.8251 59.1952 53.5271C61.403 50.9937 62.7017 47.7151 62.7017 44.2875C62.7017 40.8599 61.403 37.5814 59.1952 35.048C58.9354 34.7499 58.9354 34.3028 59.1952 34.0048C59.4549 33.7067 59.8445 33.7067 60.1043 34.0048C62.5718 36.6872 64.0004 40.4129 64.0004 44.2875C64.0004 48.1622 62.5718 51.8878 60.1043 54.5703C60.1043 54.8683 59.8445 54.8683 59.7147 54.8683Z" fill="#005487"/>
</svg>
