<svg width="87" height="88" viewBox="0 0 87 88" fill="none" xmlns="http://www.w3.org/2000/svg">
<path d="M86 43.7975C86 67.3731 66.9682 86.4778 43.5 86.4778C20.0318 86.4778 1 67.3731 1 43.7975C1 20.2219 20.0318 1.11719 43.5 1.11719C66.9682 1.11719 86 20.2219 86 43.7975Z" stroke="#1F4F85" stroke-width="2"/>
<path d="M43.375 49.536C44.5 49.536 45.3437 49.2372 46.0469 48.4904C46.75 47.8929 47.1719 46.8472 47.1719 45.5028C47.1719 44.3078 46.75 43.4115 46.0469 42.814C45.3437 42.2165 44.5 41.9178 43.2344 41.9178L41.125 42.0672V33.2539H48.5781V35.1958H42.9531V40.2746H43.9375C45.4844 40.2746 46.75 40.7228 47.5938 41.619C48.4375 42.5153 49 43.8597 49 45.5028C49 46.3991 48.8594 47.2953 48.5781 48.0422C48.2969 48.7891 47.875 49.3866 47.3125 49.8348C46.75 50.2829 46.1875 50.731 45.4844 50.8804C44.7812 51.1791 44.0781 51.3285 43.2344 51.3285C42.5312 51.3285 41.9688 51.3285 41.4062 51.1791C40.8438 51.0298 40.4219 51.0298 40 50.731L40.5625 48.9385C40.9844 49.0879 41.2656 49.2372 41.6875 49.2372C42.25 49.536 42.8125 49.536 43.375 49.536Z" fill="#005487"/>
</svg>
