<svg width="41" height="14" viewBox="0 0 41 14" fill="none" xmlns="http://www.w3.org/2000/svg">
<path d="M40.6369 13H20.3621C20.1621 13 20 12.8586 20 12.6842V1.3158C20 1.14141 20.1621 1 20.3621 1H40.637C40.8369 1 40.999 1.14141 40.999 1.3158V12.6842C40.999 12.8586 40.8369 13 40.6369 13Z" fill="#41479B"/>
<path d="M40.999 1.3158C40.999 1.14141 40.8369 1 40.6369 1H39.0171L32.3097 4.83296V1H28.6892V4.83296L21.9819 1H20.3621C20.1621 1 20 1.14141 20 1.3158V2.13254L25.7546 5.42104H20V8.57893H25.7546L20 11.8675V12.6842C20 12.8586 20.1621 13 20.3621 13H21.9819L28.6893 9.16704V13H32.3098V9.16704L39.0172 13H40.637C40.8369 13 40.9991 12.8586 40.9991 12.6842V11.8675L35.2445 8.57896H40.999V5.42107H35.2444L40.999 2.13254V1.3158Z" fill="#F5F5F5"/>
<path d="M40.9995 6.05264H31.5861V1H29.4138V6.05264H20.0005V7.94736H29.4138V13H31.5861V7.94736H40.9995V6.05264Z" fill="#FF4B55"/>
<path d="M27.3398 8.57892L20.0107 12.7285C20.0364 12.881 20.1805 13 20.3625 13H20.8612L28.6698 8.57895H27.3398V8.57892V8.57892Z" fill="#FF4B55"/>
<path d="M34.2069 8.57892H32.877L40.6742 12.9934C40.8559 12.9766 40.9993 12.8471 40.9993 12.6841V12.4245L34.2069 8.57892Z" fill="#FF4B55"/>
<path d="M20 1.6644L26.6351 5.42106H27.9651L20.2109 1.03079C20.0871 1.08098 20 1.18884 20 1.3158V1.6644Z" fill="#FF4B55"/>
<path d="M33.6405 5.42106L40.9872 1.26149C40.9567 1.11404 40.8156 1.00003 40.6377 1.00003H40.119L32.3105 5.42106H33.6405Z" fill="#FF4B55"/>
<path d="M6.09766 11.5146C6.09766 11.5967 6.0931 11.6696 6.08398 11.7334C6.07487 11.7926 6.05892 11.8428 6.03613 11.8838C6.01335 11.9248 5.986 11.9544 5.9541 11.9727C5.92676 11.9909 5.89486 12 5.8584 12H1.61328C1.50846 12 1.4082 11.9658 1.3125 11.8975C1.22135 11.8245 1.17578 11.6992 1.17578 11.5215V3.63281C1.17578 3.45508 1.22135 3.33203 1.3125 3.26367C1.4082 3.19076 1.50846 3.1543 1.61328 3.1543H5.81055C5.84701 3.1543 5.87891 3.16341 5.90625 3.18164C5.93815 3.19987 5.96322 3.22949 5.98145 3.27051C5.99967 3.31152 6.01335 3.36393 6.02246 3.42773C6.03613 3.48698 6.04297 3.56217 6.04297 3.65332C6.04297 3.73535 6.03613 3.80827 6.02246 3.87207C6.01335 3.93132 5.99967 3.98145 5.98145 4.02246C5.96322 4.05892 5.93815 4.08626 5.90625 4.10449C5.87891 4.12272 5.84701 4.13184 5.81055 4.13184H2.35156V6.90723H5.31836C5.35482 6.90723 5.38672 6.91862 5.41406 6.94141C5.44596 6.95964 5.47103 6.98698 5.48926 7.02344C5.51204 7.0599 5.52799 7.11003 5.53711 7.17383C5.54622 7.23763 5.55078 7.31283 5.55078 7.39941C5.55078 7.48145 5.54622 7.55208 5.53711 7.61133C5.52799 7.67057 5.51204 7.71842 5.48926 7.75488C5.47103 7.79134 5.44596 7.81868 5.41406 7.83691C5.38672 7.85059 5.35482 7.85742 5.31836 7.85742H2.35156V11.0225H5.8584C5.89486 11.0225 5.92676 11.0316 5.9541 11.0498C5.986 11.068 6.01335 11.0977 6.03613 11.1387C6.05892 11.1751 6.07487 11.2253 6.08398 11.2891C6.0931 11.3483 6.09766 11.4235 6.09766 11.5146ZM14.6973 11.5146C14.6973 11.6058 14.6813 11.6833 14.6494 11.7471C14.6221 11.8109 14.5833 11.8633 14.5332 11.9043C14.4876 11.9453 14.4352 11.9749 14.376 11.9932C14.3167 12.0114 14.2575 12.0205 14.1982 12.0205H13.8223C13.7038 12.0205 13.599 12.0091 13.5078 11.9863C13.4212 11.959 13.3369 11.9134 13.2549 11.8496C13.1774 11.7812 13.0977 11.6901 13.0156 11.5762C12.9382 11.4622 12.8516 11.3164 12.7559 11.1387L9.9668 6.10742C9.82096 5.84766 9.67285 5.5765 9.52246 5.29395C9.37663 5.00684 9.23991 4.72884 9.1123 4.45996H9.09863C9.10775 4.78809 9.11458 5.12305 9.11914 5.46484C9.1237 5.80664 9.12598 6.14616 9.12598 6.4834V11.8223C9.12598 11.8542 9.11686 11.8861 9.09863 11.918C9.0804 11.9453 9.0485 11.9681 9.00293 11.9863C8.96191 12 8.90495 12.0114 8.83203 12.0205C8.76367 12.0342 8.6748 12.041 8.56543 12.041C8.45605 12.041 8.36491 12.0342 8.29199 12.0205C8.22363 12.0114 8.16895 12 8.12793 11.9863C8.08691 11.9681 8.05729 11.9453 8.03906 11.918C8.02083 11.8861 8.01172 11.8542 8.01172 11.8223V3.66016C8.01172 3.47786 8.06185 3.34798 8.16211 3.27051C8.26237 3.19303 8.37174 3.1543 8.49023 3.1543H9.05078C9.18294 3.1543 9.29232 3.16569 9.37891 3.18848C9.47005 3.21126 9.5498 3.25 9.61816 3.30469C9.69108 3.35482 9.75944 3.42773 9.82324 3.52344C9.8916 3.61458 9.96452 3.73079 10.042 3.87207L12.1885 7.75488C12.3206 7.99186 12.4482 8.22428 12.5713 8.45215C12.6943 8.67546 12.8128 8.89648 12.9268 9.11523C13.0407 9.33398 13.1523 9.55046 13.2617 9.76465C13.3757 9.97428 13.4873 10.1862 13.5967 10.4004H13.6035C13.5944 10.0404 13.5876 9.66667 13.583 9.2793C13.583 8.88737 13.583 8.51139 13.583 8.15137V3.35254C13.583 3.32064 13.5921 3.29102 13.6104 3.26367C13.6286 3.23633 13.6582 3.21354 13.6992 3.19531C13.7448 3.17253 13.8018 3.15658 13.8701 3.14746C13.943 3.13835 14.0365 3.13379 14.1504 3.13379C14.2507 3.13379 14.3372 3.13835 14.4102 3.14746C14.4831 3.15658 14.54 3.17253 14.5811 3.19531C14.6221 3.21354 14.6517 3.23633 14.6699 3.26367C14.6882 3.29102 14.6973 3.32064 14.6973 3.35254V11.5146Z" fill="black"/>
</svg>
