<svg width="41" height="14" viewBox="0 0 41 14" fill="none" xmlns="http://www.w3.org/2000/svg">
<path d="M7.0752 11.8223C7.0752 11.8587 7.06836 11.8906 7.05469 11.918C7.04102 11.9453 7.01139 11.9681 6.96582 11.9863C6.92025 12.0046 6.85645 12.0182 6.77441 12.0273C6.69238 12.0365 6.58301 12.041 6.44629 12.041C6.3278 12.041 6.22982 12.0365 6.15234 12.0273C6.07943 12.0182 6.02018 12.0046 5.97461 11.9863C5.92904 11.9635 5.89258 11.9339 5.86523 11.8975C5.84245 11.861 5.82194 11.8154 5.80371 11.7607L4.99023 9.67578C4.89453 9.4388 4.79427 9.22233 4.68945 9.02637C4.58919 8.82585 4.46842 8.65495 4.32715 8.51367C4.18587 8.36784 4.01953 8.25618 3.82812 8.17871C3.63672 8.09668 3.40658 8.05566 3.1377 8.05566H2.35156V11.8223C2.35156 11.8587 2.34017 11.8906 2.31738 11.918C2.29915 11.9453 2.26725 11.9681 2.22168 11.9863C2.18066 12 2.12142 12.0114 2.04395 12.0205C1.97103 12.0342 1.8776 12.041 1.76367 12.041C1.64974 12.041 1.55404 12.0342 1.47656 12.0205C1.40365 12.0114 1.3444 12 1.29883 11.9863C1.25326 11.9681 1.22135 11.9453 1.20312 11.918C1.1849 11.8906 1.17578 11.8587 1.17578 11.8223V3.63281C1.17578 3.45508 1.22135 3.33203 1.3125 3.26367C1.4082 3.19076 1.50846 3.1543 1.61328 3.1543H3.49316C3.71647 3.1543 3.90104 3.16113 4.04688 3.1748C4.19727 3.18392 4.33171 3.19531 4.4502 3.20898C4.79199 3.26823 5.09277 3.36165 5.35254 3.48926C5.61686 3.61686 5.83789 3.77865 6.01562 3.97461C6.19336 4.17057 6.32552 4.39616 6.41211 4.65137C6.50326 4.90202 6.54883 5.18001 6.54883 5.48535C6.54883 5.78158 6.50781 6.04818 6.42578 6.28516C6.34831 6.51758 6.23438 6.72493 6.08398 6.90723C5.93359 7.08496 5.75358 7.23991 5.54395 7.37207C5.33431 7.50423 5.09961 7.61589 4.83984 7.70703C4.98568 7.77083 5.11784 7.85286 5.23633 7.95312C5.35482 8.04883 5.46419 8.16504 5.56445 8.30176C5.66927 8.43848 5.76725 8.5957 5.8584 8.77344C5.94954 8.95117 6.04069 9.15169 6.13184 9.375L6.9248 11.3232C6.98861 11.4873 7.02962 11.6035 7.04785 11.6719C7.06608 11.7357 7.0752 11.7858 7.0752 11.8223ZM5.30469 5.6084C5.30469 5.26204 5.22721 4.97038 5.07227 4.7334C4.91732 4.49186 4.65755 4.31868 4.29297 4.21387C4.17904 4.18197 4.04915 4.15918 3.90332 4.14551C3.76204 4.13184 3.5752 4.125 3.34277 4.125H2.35156V7.10547H3.5C3.8099 7.10547 4.0765 7.06901 4.2998 6.99609C4.52767 6.91862 4.7168 6.8138 4.86719 6.68164C5.01758 6.54492 5.12695 6.38542 5.19531 6.20312C5.26823 6.02083 5.30469 5.82259 5.30469 5.6084ZM15.4287 8.73242C15.4287 9.27018 15.349 9.75098 15.1895 10.1748C15.0345 10.5941 14.8112 10.9495 14.5195 11.2412C14.2279 11.5329 13.8724 11.7539 13.4531 11.9043C13.0339 12.0547 12.5576 12.1299 12.0244 12.1299C11.5368 12.1299 11.0924 12.0592 10.6914 11.918C10.2904 11.7767 9.94629 11.5693 9.65918 11.2959C9.37207 11.0179 9.15104 10.6715 8.99609 10.2568C8.84115 9.84212 8.76367 9.36361 8.76367 8.82129V3.33203C8.76367 3.29557 8.77279 3.26367 8.79102 3.23633C8.80924 3.20898 8.84115 3.18848 8.88672 3.1748C8.93229 3.15658 8.99154 3.1429 9.06445 3.13379C9.13737 3.12012 9.23307 3.11328 9.35156 3.11328C9.46094 3.11328 9.55436 3.12012 9.63184 3.13379C9.70931 3.1429 9.76855 3.15658 9.80957 3.1748C9.85514 3.18848 9.88704 3.20898 9.90527 3.23633C9.9235 3.26367 9.93262 3.29557 9.93262 3.33203V8.67773C9.93262 9.08789 9.98275 9.44564 10.083 9.75098C10.1833 10.0563 10.3268 10.3115 10.5137 10.5166C10.7051 10.7171 10.9329 10.8698 11.1973 10.9746C11.4661 11.0749 11.7669 11.125 12.0996 11.125C12.4414 11.125 12.7445 11.0749 13.0088 10.9746C13.2777 10.8743 13.5033 10.724 13.6855 10.5234C13.8724 10.3229 14.0137 10.0745 14.1094 9.77832C14.2096 9.4821 14.2598 9.13574 14.2598 8.73926V3.33203C14.2598 3.29557 14.2689 3.26367 14.2871 3.23633C14.3053 3.20898 14.3372 3.18848 14.3828 3.1748C14.4284 3.15658 14.4876 3.1429 14.5605 3.13379C14.638 3.12012 14.7337 3.11328 14.8477 3.11328C14.957 3.11328 15.0482 3.12012 15.1211 3.13379C15.1986 3.1429 15.2578 3.15658 15.2988 3.1748C15.3444 3.18848 15.3763 3.20898 15.3945 3.23633C15.4173 3.26367 15.4287 3.29557 15.4287 3.33203V8.73242Z" fill="black"/>
<rect x="20" y="1" width="21" height="4" fill="white"/>
<rect x="20" y="5" width="21" height="4" fill="#654CFF"/>
<rect x="20" y="9" width="21" height="4" fill="#FF0000"/>
</svg>
