<svg width="149" height="102" viewBox="0 0 149 102" fill="none" xmlns="http://www.w3.org/2000/svg">
<path d="M0.380859 77.2915V75.5015C0.380859 74.981 0.552246 74.5493 0.89502 74.2065C1.23779 73.8638 1.66943 73.6924 2.18994 73.6924H26.3555C26.876 73.6924 27.3076 73.8638 27.6504 74.2065C27.9932 74.5493 28.1646 74.981 28.1646 75.5015V77.2915C28.1646 77.812 27.9932 78.2437 27.6504 78.5864C27.3076 78.9165 26.876 79.0815 26.3555 79.0815H17.8623V99.248C17.8623 99.7432 17.6846 100.162 17.3291 100.505C16.9863 100.835 16.5674 101 16.0723 101H12.4731C11.978 101 11.5527 100.835 11.1973 100.505C10.8545 100.162 10.6831 99.7432 10.6831 99.248V79.0815H2.18994C1.66943 79.0815 1.23779 78.9165 0.89502 78.5864C0.552246 78.2437 0.380859 77.812 0.380859 77.2915ZM27.5171 99.248L32.2969 81.1191C33.5918 76.1807 37.8066 73.7051 44.9414 73.6924H55.2056C55.6753 73.6924 56.0625 73.8701 56.3672 74.2256C56.6846 74.5811 56.8433 74.9937 56.8433 75.4634V99.248C56.8433 99.7432 56.6655 100.162 56.3101 100.505C55.9546 100.835 55.5293 101 55.0342 101H51.4541C50.9336 101 50.502 100.835 50.1592 100.505C49.8291 100.162 49.6641 99.7305 49.6641 99.21V94.4111H36.1245L34.8486 99.21C34.7217 99.7305 34.436 100.162 33.9917 100.505C33.5474 100.835 33.0776 101 32.5825 101H28.8311C28.3359 101 27.9805 100.86 27.7646 100.581C27.5488 100.289 27.4409 100.035 27.4409 99.8193C27.4536 99.6035 27.479 99.4131 27.5171 99.248ZM37.5337 89.022H49.6641V79.0815H44.2368C43.0181 79.0815 41.9517 79.4307 41.0376 80.1289C40.1362 80.8145 39.5269 81.7412 39.2095 82.9092L37.5337 89.022ZM62.2896 99.248V75.5015C62.2896 75.0063 62.4673 74.5811 62.8228 74.2256C63.1782 73.8701 63.6035 73.6924 64.0986 73.6924H67.6406C68.1611 73.6924 68.5928 73.8701 68.9355 74.2256C69.291 74.5811 69.4688 75.0063 69.4688 75.5015V99.21C69.4688 99.7051 69.2847 100.13 68.9165 100.486C68.561 100.829 68.1357 101 67.6406 101H64.0986C63.6035 101 63.1782 100.835 62.8228 100.505C62.4673 100.162 62.2896 99.7432 62.2896 99.248ZM86.4551 101.152C82.2402 101.152 79.0029 100.016 76.7432 97.7437C74.4961 95.4712 73.3726 91.999 73.3726 87.3271C73.3726 82.6426 74.5469 79.1768 76.8955 76.9297C79.2568 74.6699 82.7925 73.54 87.5024 73.54H91.749C94.5547 73.54 97.0811 74.2129 99.3281 75.5586C101.588 76.8916 102.718 78.561 102.718 80.5669C102.718 81.3159 102.496 81.8555 102.051 82.1855C101.607 82.5029 101.175 82.6616 100.756 82.6616H98.4902C97.3984 82.6616 96.5288 82.0396 95.8813 80.7954C95.2339 79.5513 93.6343 78.9292 91.0825 78.9292H87.6929C84.9126 78.9292 83.0273 79.5259 82.0371 80.7192C81.0469 81.9126 80.5518 84.1089 80.5518 87.3081C80.5518 90.5073 80.9961 92.7227 81.8848 93.9541C82.7734 95.1729 84.3604 95.7822 86.6455 95.7822H90.5493C92.5933 95.7822 94.0532 95.395 94.9292 94.6206C95.8052 93.8335 96.2559 92.71 96.2812 91.25H91.9775C91.4824 91.25 91.0571 91.0786 90.7017 90.7358C90.3589 90.3804 90.1875 89.9551 90.1875 89.46V87.9746C90.1875 87.4795 90.3589 87.0605 90.7017 86.7178C91.0571 86.3623 91.4824 86.1846 91.9775 86.1846H101.537C102.032 86.1846 102.451 86.3623 102.794 86.7178C103.149 87.0605 103.327 87.4795 103.327 87.9746V90.0884C103.327 93.6431 102.261 96.3789 100.128 98.2959C97.9951 100.2 94.8657 101.152 90.7397 101.152H86.4551ZM104.984 99.248L109.764 81.1191C111.059 76.1807 115.273 73.7051 122.408 73.6924H132.672C133.142 73.6924 133.529 73.8701 133.834 74.2256C134.151 74.5811 134.31 74.9937 134.31 75.4634V99.248C134.31 99.7432 134.132 100.162 133.777 100.505C133.421 100.835 132.996 101 132.501 101H128.921C128.4 101 127.969 100.835 127.626 100.505C127.296 100.162 127.131 99.7305 127.131 99.21V94.4111H113.591L112.315 99.21C112.188 99.7305 111.903 100.162 111.458 100.505C111.014 100.835 110.544 101 110.049 101H106.298C105.803 101 105.447 100.86 105.231 100.581C105.016 100.289 104.908 100.035 104.908 99.8193C104.92 99.6035 104.946 99.4131 104.984 99.248ZM115 89.022H127.131V79.0815H121.704C120.485 79.0815 119.418 79.4307 118.504 80.1289C117.603 80.8145 116.994 81.7412 116.676 82.9092L115 89.022Z" fill="url(#paint0_linear)"/>
<path d="M72.4523 23.7982C69.7297 21.4817 67.2316 18.9119 64.993 16.1226C62.2125 18.1811 59.2382 19.9913 56.0991 21.515C57.9961 24.5025 60.1775 27.2896 62.6067 29.8419C66.1134 28.1791 69.4089 26.1456 72.4523 23.7982" fill="url(#paint1_linear)"/>
<path d="M60.6959 44.7549C64.648 43.6847 68.4778 42.18 72.0169 40.2876C68.4245 38.0422 65.0983 35.4094 62.1093 32.4351C59.0771 33.7706 55.9061 34.8423 52.623 35.6277C54.9852 38.9683 57.6545 42.0327 60.6959 44.7549Z" fill="#FF3E28"/>
<path d="M74.1659 39.0729V39.0728C77.7765 36.9243 81.1133 34.3646 84.1179 31.4619C80.5733 29.7217 77.0879 27.9008 74.1659 25.9144V25.9147C71.2437 27.901 67.7584 29.7219 64.2139 31.4621C67.2185 34.3648 70.5553 36.9244 74.1659 39.0729Z" fill="url(#paint2_linear)"/>
<path d="M69.2031 53.4392C65.9945 51.6277 62.9787 49.5154 60.1998 47.1301C58.4265 47.5711 56.6193 47.9241 54.7852 48.1931C54.921 48.402 55.0723 48.5994 55.2148 48.8034C56.391 50.4101 59.8061 54.6405 63.1609 54.6405C67.3018 54.6405 69.1889 53.4386 69.1889 53.4386L69.2031 53.4392" fill="url(#paint3_linear)"/>
<path d="M72.7684 5.91326C71.6854 4.5546 70.6713 3.13955 69.7155 1.68299C69.7155 1.68299 64.0935 6.59673 64.2148 11.428C64.597 11.9876 64.9717 12.553 65.3745 13.097C68.0616 10.9415 70.5371 8.53572 72.7684 5.91326Z" fill="url(#paint4_linear)"/>
<path d="M74.1653 4.60419V4.60407C74.8791 3.69248 75.5618 2.75527 76.2301 1.8081C76.3944 0.297499 74.1653 1.34403e-05 74.1653 1.34403e-05V0.000122698C74.1653 0.000122698 71.9362 0.297721 72.1004 1.80821C72.7688 2.75549 73.4515 3.69259 74.1653 4.60419" fill="url(#paint5_linear)"/>
<path d="M58.2 45.3274C56.1063 43.3494 54.1895 41.1937 52.423 38.9147C52.405 38.9087 52.3844 38.9081 52.3714 38.8916C52.2177 38.6942 52.0121 38.8455 52 39.0793C52.3369 40.7296 53.1849 44.1613 54.5385 44.9395C56.1069 45.8413 57.794 45.4439 58.2 45.3274Z" fill="url(#paint6_linear)"/>
<path d="M55.1647 32.6984C56.9927 32.1496 58.7855 31.5188 60.5251 30.783C58.4009 28.4909 56.4803 26.0122 54.759 23.3907C54.7275 23.3579 54.6944 23.3192 54.6563 23.2614C54.3071 22.7327 53.5121 22.9449 53.471 23.6661C53.2325 26.3117 52.8341 33.1633 55.1647 32.6984Z" fill="url(#paint7_linear)"/>
<path d="M63.6678 14.4186C62.7214 13.1423 61.8468 11.8116 61.011 10.4547C60.9889 10.4379 60.9658 10.414 60.9401 10.3727C60.6477 9.90114 60.1456 10.0738 59.9782 10.345C59.1313 12.0333 57.3881 15.8836 57.8543 18.1553C59.8728 17.0285 61.8178 15.7853 63.6678 14.4186" fill="url(#paint8_linear)"/>
<path d="M75.8784 23.7981C78.9219 26.1454 82.2173 28.1789 85.724 29.8416C88.1533 27.2895 90.3346 24.5023 92.2316 21.5149C89.0925 19.9911 86.1182 18.1809 83.3378 16.1224C81.0992 18.9118 78.601 21.4814 75.8784 23.7981" fill="url(#paint9_linear)"/>
<path d="M95.7078 35.6275C92.4247 34.8422 89.2537 33.7704 86.2216 32.4349C83.2326 35.4092 79.9064 38.0419 76.314 40.2874C79.853 42.1798 83.6829 43.6846 87.6349 44.7548C90.6764 42.0326 93.3457 38.9681 95.7078 35.6275" fill="url(#paint10_linear)"/>
<path d="M74.1655 22.4284C76.899 20.1384 79.3998 17.5811 81.6342 14.8006C78.9282 12.6324 76.6078 10.6277 74.1655 8.31412V8.31434C71.7232 10.6279 69.4028 12.6326 66.6968 14.8007C68.9312 17.5813 71.4321 20.1385 74.1655 22.4285V22.4284" fill="url(#paint11_linear)"/>
<path d="M79.1284 53.439L79.1426 53.4385C79.1426 53.4385 81.0297 54.6404 85.1706 54.6404C88.5254 54.6404 91.9405 50.4099 93.1167 48.8033C93.2591 48.5991 93.4105 48.4018 93.5463 48.1929C91.7122 47.9238 89.905 47.5708 88.1317 47.1299C85.3528 49.5153 82.337 51.6275 79.1284 53.439" fill="url(#paint12_linear)"/>
<path d="M74.1657 53.5651V53.5649C78.2838 51.6644 82.1262 49.266 85.6077 46.4368C81.5862 45.2332 77.6165 43.9071 74.1657 42.2807C74.1657 42.2809 74.1657 42.2809 74.1657 42.2809V42.281C70.7147 43.9074 66.7451 45.2334 62.7236 46.437C66.2051 49.2663 70.0475 51.6645 74.1657 53.5651Z" fill="url(#paint13_linear)"/>
<path d="M74.1655 55.1237V55.1239C74.1655 55.1239 68.2609 56.2779 65.4736 56.0095C66.6657 56.6697 67.7924 57.0226 68.5887 57.2253C68.5866 57.2259 68.5844 57.2268 68.5822 57.2275C68.6187 57.2366 68.6563 57.2426 68.6928 57.2514C69.029 57.3346 69.3057 57.3928 69.4826 57.4318L69.4955 57.4254C71.0045 57.7363 72.5644 57.9104 74.1655 57.9104V57.9102C75.7667 57.9102 77.3266 57.7361 78.8356 57.4253L78.8485 57.4316C79.0254 57.3926 79.302 57.3343 79.6382 57.2513C79.6748 57.2424 79.7124 57.2363 79.7489 57.2273C79.7466 57.2266 79.7445 57.2258 79.7424 57.225C80.5386 57.0224 81.6655 56.6696 82.8575 56.0094C80.0702 56.2776 74.1655 55.1237 74.1655 55.1237" fill="url(#paint14_linear)"/>
<path d="M82.9564 13.0968C83.3592 12.5528 83.7338 11.9875 84.116 11.4279C84.2373 6.59653 78.6154 1.68289 78.6154 1.68289C77.6596 3.13934 76.6455 4.55439 75.5625 5.91305C77.7937 8.53551 80.2693 10.9414 82.9564 13.0968" fill="url(#paint15_linear)"/>
<path d="M95.9595 38.8913C95.9465 38.908 95.9259 38.9084 95.9079 38.9145C94.1414 41.1935 92.2246 43.3492 90.1309 45.3272C90.5369 45.4437 92.224 45.8412 93.7923 44.9393C95.146 44.1611 95.994 40.7294 96.3309 39.0791C96.3188 38.8452 96.1132 38.694 95.9595 38.8913" fill="url(#paint16_linear)"/>
<path d="M93.1665 32.6982C95.4972 33.1632 95.0988 26.3115 94.8603 23.666C94.8192 22.9448 94.0242 22.7324 93.675 23.2613C93.6369 23.3189 93.6038 23.3577 93.5723 23.3904C91.8509 26.0121 89.9304 28.4907 87.8062 30.7827C89.5458 31.5187 91.3385 32.1494 93.1665 32.6982Z" fill="url(#paint17_linear)"/>
<path d="M88.3526 10.3447C88.1853 10.0736 87.683 9.90101 87.3907 10.3725C87.3651 10.4138 87.3419 10.4377 87.3199 10.4545C86.484 11.8115 85.6095 13.1422 84.6631 14.4184C86.513 15.7852 88.458 17.0283 90.4766 18.155C90.9428 15.8834 89.1996 12.0332 88.3526 10.3447" fill="url(#paint18_linear)"/>
<defs>
<linearGradient id="paint0_linear" x1="75" y1="62" x2="75" y2="36" gradientUnits="userSpaceOnUse">
<stop offset="0.471875" stop-color="#455A64"/>
<stop offset="1" stop-color="#455A64" stop-opacity="0"/>
</linearGradient>
<linearGradient id="paint1_linear" x1="64.2757" y1="29.8419" x2="64.2757" y2="16.1226" gradientUnits="userSpaceOnUse">
<stop offset="0.497917" stop-color="#006660"/>
<stop offset="1" stop-color="#30706C" stop-opacity="0"/>
</linearGradient>
<linearGradient id="paint2_linear" x1="74.1659" y1="39.0729" x2="74.1659" y2="25.9144" gradientUnits="userSpaceOnUse">
<stop offset="0.497917" stop-color="#006660"/>
<stop offset="1" stop-color="#30706C" stop-opacity="0"/>
</linearGradient>
<linearGradient id="paint3_linear" x1="61.9941" y1="54.6405" x2="61.9941" y2="47.1301" gradientUnits="userSpaceOnUse">
<stop offset="0.497917" stop-color="#006660"/>
<stop offset="1" stop-color="#30706C" stop-opacity="0"/>
</linearGradient>
<linearGradient id="paint4_linear" x1="68.4906" y1="13.097" x2="68.4906" y2="1.68299" gradientUnits="userSpaceOnUse">
<stop offset="0.497917" stop-color="#006660"/>
<stop offset="1" stop-color="#30706C" stop-opacity="0"/>
</linearGradient>
<linearGradient id="paint5_linear" x1="74.1653" y1="4.60419" x2="74.1653" y2="1.33514e-05" gradientUnits="userSpaceOnUse">
<stop offset="0.497917" stop-color="#006660"/>
<stop offset="1" stop-color="#30706C" stop-opacity="0"/>
</linearGradient>
<linearGradient id="paint6_linear" x1="55.1" y1="45.5153" x2="55.1" y2="38.8005" gradientUnits="userSpaceOnUse">
<stop offset="0.497917" stop-color="#006660"/>
<stop offset="1" stop-color="#30706C" stop-opacity="0"/>
</linearGradient>
<linearGradient id="paint7_linear" x1="56.9054" y1="32.7209" x2="56.9054" y2="22.9669" gradientUnits="userSpaceOnUse">
<stop offset="0.497917" stop-color="#006660"/>
<stop offset="1" stop-color="#30706C" stop-opacity="0"/>
</linearGradient>
<linearGradient id="paint8_linear" x1="60.7221" y1="18.1553" x2="60.7221" y2="10.0777" gradientUnits="userSpaceOnUse">
<stop offset="0.497917" stop-color="#006660"/>
<stop offset="1" stop-color="#30706C" stop-opacity="0"/>
</linearGradient>
<linearGradient id="paint9_linear" x1="84.055" y1="29.8416" x2="84.055" y2="16.1224" gradientUnits="userSpaceOnUse">
<stop offset="0.497917" stop-color="#006660"/>
<stop offset="1" stop-color="#30706C" stop-opacity="0"/>
</linearGradient>
<linearGradient id="paint10_linear" x1="86.0109" y1="44.7548" x2="86.0109" y2="32.4349" gradientUnits="userSpaceOnUse">
<stop offset="0.497917" stop-color="#006660"/>
<stop offset="1" stop-color="#30706C" stop-opacity="0"/>
</linearGradient>
<linearGradient id="paint11_linear" x1="74.1655" y1="22.4285" x2="74.1655" y2="8.31412" gradientUnits="userSpaceOnUse">
<stop offset="0.497917" stop-color="#006660"/>
<stop offset="1" stop-color="#30706C" stop-opacity="0"/>
</linearGradient>
<linearGradient id="paint12_linear" x1="86.3374" y1="54.6404" x2="86.3374" y2="47.1299" gradientUnits="userSpaceOnUse">
<stop offset="0.497917" stop-color="#006660"/>
<stop offset="1" stop-color="#30706C" stop-opacity="0"/>
</linearGradient>
<linearGradient id="paint13_linear" x1="74.1657" y1="53.5651" x2="74.1657" y2="42.2807" gradientUnits="userSpaceOnUse">
<stop offset="0.497917" stop-color="#006660"/>
<stop offset="1" stop-color="#30706C" stop-opacity="0"/>
</linearGradient>
<linearGradient id="paint14_linear" x1="74.1655" y1="57.9104" x2="74.1655" y2="55.1237" gradientUnits="userSpaceOnUse">
<stop offset="0.497917" stop-color="#006660"/>
<stop offset="1" stop-color="#30706C" stop-opacity="0"/>
</linearGradient>
<linearGradient id="paint15_linear" x1="79.8402" y1="13.0968" x2="79.8402" y2="1.68289" gradientUnits="userSpaceOnUse">
<stop offset="0.497917" stop-color="#006660"/>
<stop offset="1" stop-color="#30706C" stop-opacity="0"/>
</linearGradient>
<linearGradient id="paint16_linear" x1="93.2309" y1="45.5151" x2="93.2309" y2="38.8002" gradientUnits="userSpaceOnUse">
<stop offset="0.497917" stop-color="#006660"/>
<stop offset="1" stop-color="#30706C" stop-opacity="0"/>
</linearGradient>
<linearGradient id="paint17_linear" x1="91.4259" y1="32.7208" x2="91.4259" y2="22.9667" gradientUnits="userSpaceOnUse">
<stop offset="0.497917" stop-color="#006660"/>
<stop offset="1" stop-color="#30706C" stop-opacity="0"/>
</linearGradient>
<linearGradient id="paint18_linear" x1="87.6088" y1="18.155" x2="87.6088" y2="10.0776" gradientUnits="userSpaceOnUse">
<stop offset="0.497917" stop-color="#006660"/>
<stop offset="1" stop-color="#30706C" stop-opacity="0"/>
</linearGradient>
</defs>
</svg>
